<svg width="540" height="199" viewBox="0 0 540 199" fill="none" xmlns="http://www.w3.org/2000/svg">
<path d="M13.248 105.096H13.032V122.736C13.032 126.192 13.752 127.848 16.776 129H5.148C8.172 127.848 8.892 126.192 8.892 122.736V105.096H8.676C4.32 105.096 2.556 106.032 0 109.848L1.332 102.972C2.088 103.584 3.312 103.8 4.788 103.8H17.136C18.576 103.8 19.8 103.584 20.592 102.972L21.924 109.848C19.332 106.032 17.568 105.096 13.248 105.096ZM33.5295 129C35.0055 128.244 35.5815 127.344 35.5815 124.86V116.796C35.5815 113.988 34.3935 112.512 32.1615 112.512C30.5055 112.512 29.2095 113.268 28.3095 114.744V124.86C28.3095 127.344 28.8135 128.172 30.3615 129H22.3695C24.0255 128.208 24.6015 127.308 24.6015 124.86V108.732C24.6015 106.572 23.9175 105.708 22.2975 105.42L28.3095 102.72V113.484C29.3535 111.576 31.3695 110.388 33.7455 110.388C37.2735 110.388 39.2895 112.512 39.2895 116.292V124.86C39.2895 127.344 39.8655 128.244 41.4135 129H33.5295ZM50.7035 110.388C55.0595 110.388 57.6875 113.556 57.5075 118.38H45.4115C45.5555 122.988 48.1475 125.868 52.2515 125.868C54.4475 125.868 56.1395 125.148 57.3635 123.708C56.7515 127.38 54.2675 129.54 50.7035 129.54C45.7355 129.54 42.5675 125.976 42.5675 120.216C42.5675 114.384 45.7715 110.388 50.7035 110.388ZM53.7275 117.156C53.8355 113.7 52.5035 111.756 50.1635 111.756C47.4275 111.756 45.6995 113.772 45.4475 117.156H53.7275ZM77.5724 129.612C71.5244 129.612 67.9964 126.048 67.9964 119.316V108.372C67.9964 105.924 67.1324 104.7 65.6564 103.8H75.1604C73.1084 104.7 72.3524 105.888 72.3524 108.372V119.1C72.3524 124.392 74.5484 127.164 78.7964 127.164C82.7204 127.164 84.8804 124.32 84.8804 118.956V109.092C84.8804 106.284 83.6204 104.7 81.3164 103.8H89.0564C87.4364 104.7 86.6444 106.284 86.6444 109.092V118.668C86.6444 125.976 83.6204 129.612 77.5724 129.612ZM90.2239 129C91.8799 128.208 92.4559 127.308 92.4559 124.86V108.732C92.4559 106.572 91.7359 105.708 90.1519 105.42L96.1639 102.72V124.86C96.1639 127.344 96.7399 128.244 98.3599 129H90.2239ZM108.011 127.2C109.055 127.2 109.919 126.804 110.639 125.94C109.991 128.352 108.443 129.54 106.103 129.54C103.511 129.54 101.783 128.136 101.783 125.004V112.08H99.335L105.491 106.176V110.928H109.667V112.08H105.491V124.176C105.491 126.084 106.355 127.2 108.011 127.2ZM115.171 108.3C113.803 108.3 112.795 107.256 112.795 105.96C112.795 104.592 113.803 103.584 115.171 103.584C116.539 103.584 117.583 104.628 117.583 105.96C117.583 107.256 116.539 108.3 115.171 108.3ZM113.515 124.86V116.22C113.515 114.024 112.903 113.124 111.319 112.764L117.223 110.532V124.824C117.223 127.236 117.799 128.208 119.455 129H111.319C113.011 128.172 113.515 127.2 113.515 124.86ZM141.417 129C143.037 128.136 143.469 127.2 143.469 124.86V116.256C143.469 113.808 142.389 112.512 140.409 112.512C138.897 112.512 137.853 113.232 136.989 114.816C137.025 115.176 137.061 115.608 137.061 116.04V124.86C137.061 127.236 137.529 128.172 139.113 129H131.301C132.885 128.136 133.353 127.2 133.353 124.86V116.328C133.353 113.844 132.273 112.512 130.293 112.512C128.889 112.512 127.773 113.268 126.909 114.744V124.86C126.909 127.236 127.377 128.172 128.961 129H121.005C122.697 128.172 123.201 127.2 123.201 124.86V116.22C123.201 114.024 122.589 113.124 121.005 112.728L126.873 110.532V113.556C127.845 111.576 129.681 110.388 131.841 110.388C134.469 110.388 136.161 111.576 136.773 113.808C137.817 111.612 139.725 110.388 141.957 110.388C145.377 110.388 147.213 112.368 147.213 116.04V124.86C147.213 127.236 147.645 128.172 149.265 129H141.417ZM166.715 127.272C167.255 127.272 167.723 127.128 168.191 126.732C167.939 128.424 166.607 129.54 164.807 129.54C162.899 129.54 161.531 128.46 161.279 126.228C160.343 128.244 158.255 129.54 156.023 129.54C152.999 129.54 151.091 127.812 151.091 125.22C151.091 122.34 153.071 120.432 157.319 119.46L161.243 118.596V116.148C161.243 112.692 160.343 111.468 157.895 111.468C156.203 111.468 154.943 112.44 154.943 113.772C154.943 114.816 155.339 115.464 156.167 116.112C156.059 117.3 155.195 118.164 153.791 118.164C152.351 118.164 151.415 117.048 151.415 115.5C151.415 112.62 154.367 110.388 158.291 110.388C162.683 110.388 164.951 112.44 164.951 116.544V125.148C164.951 126.588 165.527 127.272 166.715 127.272ZM157.787 127.308C159.335 127.308 160.379 126.66 161.243 125.112V119.676L158.831 120.288C156.239 120.936 154.943 122.124 154.943 124.284C154.943 126.156 156.023 127.308 157.787 127.308ZM177.061 127.2C178.105 127.2 178.969 126.804 179.689 125.94C179.041 128.352 177.493 129.54 175.153 129.54C172.561 129.54 170.833 128.136 170.833 125.004V112.08H168.385L174.541 106.176V110.928H178.717V112.08H174.541V124.176C174.541 126.084 175.405 127.2 177.061 127.2ZM188.153 110.388C192.509 110.388 195.137 113.556 194.957 118.38H182.861C183.005 122.988 185.597 125.868 189.701 125.868C191.897 125.868 193.589 125.148 194.813 123.708C194.201 127.38 191.717 129.54 188.153 129.54C183.185 129.54 180.017 125.976 180.017 120.216C180.017 114.384 183.221 110.388 188.153 110.388ZM191.177 117.156C191.285 113.7 189.953 111.756 187.613 111.756C184.877 111.756 183.149 113.772 182.897 117.156H191.177ZM225.105 110.928H230.397C229.497 111.612 228.921 112.512 228.165 114.42L222.153 129.432H221.937L216.573 116.832L211.497 129.432H211.317L204.837 114.168C204.081 112.296 203.289 111.36 202.533 110.928H210.561C209.373 111.36 208.833 112.044 208.833 112.944C208.833 113.376 208.941 113.916 209.229 114.636L212.613 123.132L215.817 114.996L215.457 114.168C214.665 112.296 213.909 111.36 213.009 110.928H221.289C219.957 111.36 219.417 112.044 219.417 112.944C219.417 113.376 219.489 113.916 219.813 114.636L223.197 123.132L226.509 114.852C226.833 114.024 226.977 113.52 226.977 112.944C226.977 111.936 226.221 111.288 225.105 110.928ZM246.365 127.272C246.905 127.272 247.373 127.128 247.841 126.732C247.589 128.424 246.257 129.54 244.457 129.54C242.549 129.54 241.181 128.46 240.929 126.228C239.993 128.244 237.905 129.54 235.673 129.54C232.649 129.54 230.741 127.812 230.741 125.22C230.741 122.34 232.721 120.432 236.969 119.46L240.893 118.596V116.148C240.893 112.692 239.993 111.468 237.545 111.468C235.853 111.468 234.593 112.44 234.593 113.772C234.593 114.816 234.989 115.464 235.817 116.112C235.709 117.3 234.845 118.164 233.441 118.164C232.001 118.164 231.065 117.048 231.065 115.5C231.065 112.62 234.017 110.388 237.941 110.388C242.333 110.388 244.601 112.44 244.601 116.544V125.148C244.601 126.588 245.177 127.272 246.365 127.272ZM237.437 127.308C238.985 127.308 240.029 126.66 240.893 125.112V119.676L238.481 120.288C235.889 120.936 234.593 122.124 234.593 124.284C234.593 126.156 235.673 127.308 237.437 127.308ZM258.486 110.928H264.138C263.022 111.684 262.518 112.476 261.726 114.6L255.822 130.656C254.274 134.94 252.582 136.74 249.918 136.74C248.01 136.74 246.642 135.66 246.642 133.932C246.642 132.492 247.65 131.448 248.982 131.304C249.27 132.78 250.278 133.572 251.538 133.572C253.05 133.572 254.13 132.348 254.13 130.512C254.13 129.864 253.986 129.144 253.662 128.208L248.226 114.492C247.506 112.728 246.498 111.36 245.562 110.928H253.914C252.834 111.324 252.294 112.08 252.294 113.088C252.294 113.7 252.546 114.6 252.87 115.464L256.434 124.896L259.602 116.22C260.07 114.996 260.286 114.096 260.286 113.448C260.286 112.296 259.71 111.504 258.486 110.928ZM280.126 127.2C281.17 127.2 282.034 126.804 282.754 125.94C282.106 128.352 280.558 129.54 278.218 129.54C275.626 129.54 273.898 128.136 273.898 125.004V112.08H271.45L277.606 106.176V110.928H281.782V112.08H277.606V124.176C277.606 126.084 278.47 127.2 280.126 127.2ZM291.903 129.54C286.395 129.54 283.083 125.508 283.083 119.964C283.083 114.456 286.395 110.388 291.903 110.388C297.411 110.388 300.759 114.456 300.759 119.964C300.759 125.508 297.411 129.54 291.903 129.54ZM291.903 128.316C294.963 128.316 296.583 125.148 296.583 119.964C296.583 114.78 294.963 111.612 291.903 111.612C288.879 111.612 287.223 114.78 287.223 119.964C287.223 125.148 288.879 128.316 291.903 128.316ZM15.624 162.732C18.756 162.732 21.312 160.464 23.508 156.036V163.776C20.88 165.108 18.144 165.72 14.904 165.72C6.336 165.72 0.9 160.788 0.9 152.58C0.9 144.372 6.336 139.08 15.12 139.08C18.18 139.08 20.808 139.692 23.148 141.024V148.764C20.916 144.12 18.612 142.068 15.48 142.068C11.448 142.068 9.468 145.956 9.468 152.04C9.468 158.952 12.024 162.732 15.624 162.732ZM44.5492 164.424L36.3052 165.216V162.876C35.2972 164.46 33.2812 165.54 31.2652 165.54C28.4212 165.54 26.2612 163.992 26.2612 159.816V153.588C26.2612 151.032 25.8292 149.988 24.6052 149.052L33.1012 145.56V159.888C33.1012 161.256 33.6052 161.976 34.7212 161.976C35.3692 161.976 35.8732 161.688 36.3052 161.256V153.336C36.3052 150.78 35.8732 149.988 34.6492 149.052L43.1452 145.56V161.364C43.1452 162.732 43.6132 163.74 44.5492 164.424ZM53.2882 165.54C50.9122 165.54 48.5362 165 46.3042 163.956V158.052C48.5722 161.004 51.7042 162.948 54.2242 162.948C55.2682 162.948 55.9162 162.408 55.9162 161.436C55.9162 160.68 55.4122 160.248 54.0442 159.708L50.4082 158.376C47.3122 157.224 45.8002 155.208 45.8002 152.148C45.8002 148.296 48.9682 145.56 53.3962 145.56C55.8082 145.56 58.4722 146.244 59.8042 147.216V152.472C58.1842 149.916 55.0162 147.972 52.6402 147.972C51.4882 147.972 50.9122 148.368 50.9122 149.196C50.9122 149.952 51.2722 150.348 52.7122 150.924L56.3122 152.4C59.6962 153.768 60.9562 155.712 60.9562 158.52C60.9562 162.732 57.8962 165.54 53.2882 165.54ZM72.3575 161.508C73.2215 161.508 74.0135 161.184 74.5535 160.608C74.0135 163.884 72.1055 165.54 68.5775 165.54C65.5535 165.54 63.0695 163.956 63.0695 160.212V147.9H61.3055L69.9095 140.628V146.1H73.6895V147.9H69.9095V158.736C69.9095 160.464 70.8455 161.508 72.3575 161.508ZM84.4234 165.54C78.4114 165.54 74.3794 161.544 74.3794 155.568C74.3794 149.556 78.4114 145.56 84.4234 145.56C90.4354 145.56 94.4674 149.556 94.4674 155.568C94.4674 161.544 90.4354 165.54 84.4234 165.54ZM84.4234 163.56C86.1874 163.56 87.0874 160.824 87.0874 155.568C87.0874 150.276 86.1874 147.54 84.4234 147.54C82.6594 147.54 81.7594 150.276 81.7594 155.568C81.7594 160.824 82.6594 163.56 84.4234 163.56ZM115.654 165C116.554 163.884 116.842 162.948 116.842 160.968V150.924C116.842 149.7 116.338 149.124 115.294 149.124C114.61 149.124 114.142 149.34 113.746 149.844C113.782 150.168 113.782 150.492 113.782 150.816V160.968C113.782 162.948 114.07 163.884 114.97 165H105.754C106.654 163.884 106.942 162.948 106.942 160.968V150.96C106.942 149.736 106.438 149.124 105.394 149.124C104.782 149.124 104.314 149.34 103.882 149.808V160.968C103.882 162.948 104.17 163.884 105.07 165H95.3859C96.6099 163.992 97.0419 162.948 97.0419 160.968V153.264C97.0419 150.816 96.6459 149.808 95.3859 148.944L103.702 145.56V148.584C104.638 146.676 106.51 145.56 108.814 145.56C111.298 145.56 112.882 146.64 113.494 148.656C114.538 146.676 116.41 145.56 118.678 145.56C121.954 145.56 123.682 147.396 123.682 150.816V160.968C123.682 162.948 123.97 163.884 124.87 165H115.654ZM130.851 145.272C128.763 145.272 127.143 143.616 127.143 141.636C127.143 139.62 128.763 137.964 130.851 137.964C132.939 137.964 134.559 139.62 134.559 141.636C134.559 143.616 132.939 145.272 130.851 145.272ZM127.611 160.968V153.264C127.611 150.816 127.251 149.844 126.027 149.016L134.451 145.56V160.932C134.451 162.948 135.027 163.992 136.107 165H125.955C127.179 163.992 127.611 162.948 127.611 160.968ZM137.188 165L146.188 147.936C143.272 147.936 140.824 150.204 138.124 154.164L139.204 146.1H154.828L145.9 163.308C148.744 163.308 152.56 160.32 154.612 156.36L154.072 165H137.188ZM161.35 154.38C162.034 157.764 164.446 159.672 168.082 159.672C169.918 159.672 171.106 159.348 172.438 158.52C172.006 162.876 169.198 165.54 165.022 165.54C159.37 165.54 155.734 162.012 155.734 155.892C155.734 149.952 159.19 145.56 164.554 145.56C169.594 145.56 172.438 148.98 172.438 154.38H161.35ZM163.762 147.468C162.106 147.468 161.134 149.232 161.134 152.256V152.364H166.102C166.102 148.872 165.454 147.468 163.762 147.468ZM192.218 146.1H198.302C197.33 147 196.97 147.612 196.25 149.52L189.77 166.44C188.006 171.084 186.278 172.74 183.218 172.74C180.734 172.74 179.114 171.336 179.114 169.176C179.114 167.268 180.446 165.792 182.354 165.576C182.822 167.808 183.65 168.744 185.162 168.744C186.422 168.744 187.142 167.88 187.142 166.404C187.142 165.792 186.962 165.036 186.638 164.1L180.014 149.088C179.366 147.612 178.754 146.604 178.214 146.1H189.626C188.762 146.712 188.258 147.612 188.258 148.548C188.258 149.088 188.474 149.988 188.726 150.708L190.994 156.828L193.334 150.564C193.586 149.952 193.694 149.34 193.694 148.764C193.694 147.648 193.226 146.82 192.218 146.1ZM206.719 165.54C200.707 165.54 196.675 161.544 196.675 155.568C196.675 149.556 200.707 145.56 206.719 145.56C212.731 145.56 216.763 149.556 216.763 155.568C216.763 161.544 212.731 165.54 206.719 165.54ZM206.719 163.56C208.483 163.56 209.383 160.824 209.383 155.568C209.383 150.276 208.483 147.54 206.719 147.54C204.955 147.54 204.055 150.276 204.055 155.568C204.055 160.824 204.955 163.56 206.719 163.56ZM237.442 164.424L229.198 165.216V162.876C228.19 164.46 226.174 165.54 224.158 165.54C221.314 165.54 219.154 163.992 219.154 159.816V153.588C219.154 151.032 218.722 149.988 217.498 149.052L225.994 145.56V159.888C225.994 161.256 226.498 161.976 227.614 161.976C228.262 161.976 228.766 161.688 229.198 161.256V153.336C229.198 150.78 228.766 149.988 227.542 149.052L236.038 145.56V161.364C236.038 162.732 236.506 163.74 237.442 164.424ZM250.609 145.56C252.373 145.56 253.633 146.712 253.633 148.62C253.633 150.816 252.373 152.292 250.717 152.292C250.501 151.356 249.745 150.888 248.845 150.888C248.161 150.888 247.477 151.14 247.117 151.464V160.86C247.117 162.912 247.945 164.028 249.709 165H238.621C239.845 163.992 240.277 162.948 240.277 160.968V153.264C240.241 150.816 239.917 149.772 238.513 148.764L246.469 145.56V150.492C247.261 147.324 248.341 145.56 250.609 145.56ZM269.635 165.72C266.215 165.72 262.831 164.82 260.455 163.272V156.036C263.947 160.824 267.187 163.164 270.355 163.164C272.407 163.164 273.739 162.228 273.739 160.644C273.739 159.024 272.839 158.016 271.039 157.332L265.783 155.352C262.399 154.092 260.311 151.104 260.311 147.504C260.311 142.608 264.379 139.08 269.995 139.08C273.307 139.08 275.683 139.692 278.023 141.132V148.044C275.503 143.796 272.551 141.672 269.203 141.672C267.187 141.672 266.035 142.536 266.035 144.12C266.035 145.524 266.899 146.316 268.879 147.108L274.135 149.232C277.915 150.78 279.751 153.192 279.751 156.648C279.751 162.012 275.611 165.72 269.635 165.72ZM291.985 165C292.849 163.992 293.173 162.948 293.173 160.968V151.608C293.173 149.952 292.489 149.124 291.193 149.124C290.437 149.124 289.825 149.412 289.393 149.808V160.968C289.393 162.948 289.645 163.848 290.581 165H280.897C282.121 163.992 282.553 162.948 282.553 160.968V146.964C282.553 144.696 282.013 143.76 280.645 142.824L289.393 138.72V148.224C290.365 146.64 292.345 145.56 294.433 145.56C297.925 145.56 300.013 147.612 300.013 151.392V160.968C300.013 162.948 300.409 163.92 301.417 165H291.985ZM320.896 162.012C321.436 162.012 321.832 161.904 322.12 161.688C321.724 163.956 319.888 165.54 317.476 165.54C315.424 165.54 313.552 164.64 312.868 162.48C311.752 164.64 309.772 165.54 307.684 165.54C304.696 165.54 302.68 163.56 302.68 161.076C302.68 157.872 304.84 155.784 309.556 154.704L312.58 154.02V150.168C312.58 148.116 311.86 147.252 310.528 147.252C309.34 147.252 308.584 148.044 308.584 149.232C308.584 150.276 308.944 150.996 309.628 152.004C309.376 152.94 308.08 154.128 306.352 154.128C304.336 154.128 303.148 152.724 303.148 150.78C303.148 147.792 306.532 145.56 311.212 145.56C316.684 145.56 319.42 147.756 319.42 152.652V159.672C319.42 161.364 319.996 162.012 320.896 162.012ZM311.32 161.868C311.824 161.868 312.256 161.688 312.616 161.364C312.58 161.076 312.58 160.788 312.58 160.464V155.64L312.112 155.748C310.42 156.18 309.268 157.116 309.268 159.168C309.268 160.86 310.06 161.868 311.32 161.868ZM333.88 145.56C335.644 145.56 336.904 146.712 336.904 148.62C336.904 150.816 335.644 152.292 333.988 152.292C333.772 151.356 333.016 150.888 332.116 150.888C331.432 150.888 330.748 151.14 330.388 151.464V160.86C330.388 162.912 331.216 164.028 332.98 165H321.892C323.116 163.992 323.548 162.948 323.548 160.968V153.264C323.512 150.816 323.188 149.772 321.784 148.764L329.74 145.56V150.492C330.532 147.324 331.612 145.56 333.88 145.56ZM341.991 145.272C339.903 145.272 338.283 143.616 338.283 141.636C338.283 139.62 339.903 137.964 341.991 137.964C344.079 137.964 345.699 139.62 345.699 141.636C345.699 143.616 344.079 145.272 341.991 145.272ZM338.751 160.968V153.264C338.751 150.816 338.391 149.844 337.167 149.016L345.591 145.56V160.932C345.591 162.948 346.167 163.992 347.247 165H337.095C338.319 163.992 338.751 162.948 338.751 160.968ZM359.416 165C360.28 163.992 360.604 162.912 360.604 160.968V151.608C360.604 149.952 359.92 149.124 358.624 149.124C357.904 149.124 357.292 149.376 356.824 149.808V160.968C356.824 163.02 357.076 163.848 358.012 165H348.328C349.552 163.992 349.984 162.948 349.984 160.968V153.3C349.984 150.816 349.588 149.808 348.328 148.944L356.644 145.56V148.512C357.544 146.784 359.632 145.56 361.864 145.56C365.428 145.56 367.444 147.684 367.444 151.392V160.968C367.444 162.84 367.84 163.992 368.848 165H359.416ZM383.036 159.636C386.744 159.636 389.084 161.292 389.084 164.964C389.084 169.5 384.692 172.74 378.608 172.74C372.668 172.74 369.572 171.336 369.572 168.672C369.572 167.34 370.688 166.296 372.668 165.864C370.976 165.036 369.932 163.344 369.932 161.22C369.932 159.024 371.228 157.26 373.28 156.648C371.552 155.568 370.544 153.876 370.544 151.788C370.544 148.008 373.82 145.524 378.824 145.524C380.048 145.524 381.128 145.668 382.136 145.956C381.812 145.416 381.668 144.84 381.668 144.264C381.668 142.248 383.144 140.88 385.232 140.88C387.5 140.88 388.904 141.888 388.904 143.832C388.904 145.452 387.716 146.568 385.988 146.568C386.06 145.308 385.592 144.552 384.728 144.552C384.008 144.552 383.612 144.948 383.612 145.632C383.612 146.1 383.936 146.568 384.476 147C386.168 148.08 387.104 149.736 387.104 151.788C387.104 155.568 383.828 158.052 378.824 158.052C377.24 158.052 375.836 157.8 374.648 157.332C374.252 157.656 374.072 158.016 374.072 158.52C374.072 159.348 374.756 159.96 376.052 159.96C378.536 159.96 380.48 159.636 383.036 159.636ZM378.824 147.288C377.636 147.288 377.096 148.692 377.096 151.788C377.096 154.884 377.636 156.288 378.824 156.288C380.012 156.288 380.552 154.884 380.552 151.788C380.552 148.692 380.012 147.288 378.824 147.288ZM379.004 170.652C381.596 170.652 383.54 169.428 383.54 167.808C383.54 166.512 382.856 166.044 380.948 166.044C379.58 166.044 377.456 166.404 375.152 166.404C374.936 166.404 374.684 166.404 374.468 166.368C374.288 166.836 374.252 167.088 374.252 167.592C374.252 169.428 376.16 170.652 379.004 170.652ZM393.643 165.864C391.519 165.864 389.791 164.136 389.791 162.012C389.791 159.924 391.519 158.196 393.643 158.196C395.731 158.196 397.459 159.924 397.459 162.012C397.459 164.136 395.731 165.864 393.643 165.864Z" fill="#353535"/>
<path d="M1.264 183.576H3.088L6.768 193.24L10.512 183.576H12.272V195H10.912V185.992L7.328 195H6.128L2.608 186.024V195H1.264V183.576ZM21.6593 186.728V195H20.2993V193.816C19.9579 194.275 19.5633 194.632 19.1153 194.888C18.6673 195.133 18.1393 195.256 17.5313 195.256C16.7206 195.256 16.0539 195.064 15.5313 194.68C15.0193 194.296 14.6353 193.773 14.3793 193.112C14.1339 192.451 14.0113 191.715 14.0113 190.904C14.0113 189.528 14.3366 188.445 14.9873 187.656C15.6486 186.867 16.5499 186.472 17.6913 186.472C18.1286 186.472 18.5766 186.568 19.0353 186.76C19.4939 186.941 19.9153 187.277 20.2993 187.768V186.728H21.6593ZM20.3153 190.616C20.3153 189.955 20.2406 189.443 20.0913 189.08C19.9526 188.707 19.7179 188.392 19.3873 188.136C19.1526 187.944 18.9126 187.811 18.6673 187.736C18.4326 187.661 18.1713 187.624 17.8833 187.624C17.4353 187.624 17.0246 187.731 16.6513 187.944C16.2886 188.157 16.0006 188.504 15.7873 188.984C15.5739 189.453 15.4673 190.083 15.4673 190.872C15.4673 191.683 15.5793 192.323 15.8033 192.792C16.0273 193.261 16.3153 193.597 16.6673 193.8C17.0193 193.992 17.3873 194.088 17.7713 194.088C18.0806 194.088 18.3579 194.056 18.6033 193.992C18.8486 193.917 19.0939 193.784 19.3393 193.592C19.6699 193.347 19.9153 193.032 20.0753 192.648C20.2353 192.253 20.3153 191.763 20.3153 191.176V190.616ZM24.8705 183.576V190.568L28.5665 186.728H30.3425L26.4065 190.664L30.5345 195H28.7265L24.8705 190.936V195H23.4945V183.576H24.8705ZM38.1234 192.68C37.9847 193.48 37.6274 194.109 37.0514 194.568C36.486 195.027 35.67 195.256 34.6034 195.256C33.3447 195.256 32.3794 194.877 31.7074 194.12C31.0354 193.352 30.6994 192.285 30.6994 190.92C30.6994 190.205 30.7954 189.571 30.9874 189.016C31.1794 188.461 31.446 187.997 31.7874 187.624C32.1394 187.251 32.5554 186.968 33.0354 186.776C33.5154 186.573 34.038 186.472 34.6034 186.472C35.2434 186.472 35.7927 186.573 36.2514 186.776C36.71 186.979 37.0834 187.261 37.3714 187.624C37.67 187.976 37.8887 188.397 38.0274 188.888C38.1767 189.379 38.2514 189.917 38.2514 190.504V191.208H32.1074C32.1074 191.624 32.1607 192.013 32.2674 192.376C32.3847 192.728 32.5447 193.037 32.7474 193.304C32.9607 193.56 33.222 193.763 33.5314 193.912C33.8407 194.061 34.198 194.136 34.6034 194.136C35.2967 194.136 35.8034 194.008 36.1234 193.752C36.4434 193.485 36.662 193.128 36.7794 192.68H38.1234ZM36.8594 190.168C36.8594 189.773 36.8167 189.416 36.7314 189.096C36.646 188.776 36.5127 188.504 36.3314 188.28C36.15 188.045 35.9154 187.864 35.6274 187.736C35.3394 187.608 34.9927 187.544 34.5874 187.544C33.8514 187.544 33.2754 187.768 32.8594 188.216C32.454 188.664 32.214 189.315 32.1394 190.168H36.8594ZM50.2029 186.728L45.4349 198.104H43.9949L45.4829 194.792L42.0589 186.728H43.6749L46.1709 193.16L48.6669 186.728H50.2029ZM54.4734 195.256C53.844 195.256 53.284 195.155 52.7934 194.952C52.3027 194.749 51.8867 194.461 51.5454 194.088C51.204 193.715 50.9427 193.256 50.7614 192.712C50.58 192.168 50.4894 191.56 50.4894 190.888C50.4894 190.216 50.5854 189.608 50.7774 189.064C50.9694 188.52 51.2414 188.056 51.5934 187.672C51.9454 187.288 52.3667 186.995 52.8574 186.792C53.3587 186.579 53.9134 186.472 54.5214 186.472C55.14 186.472 55.6947 186.573 56.1854 186.776C56.676 186.979 57.092 187.272 57.4334 187.656C57.7854 188.029 58.052 188.483 58.2334 189.016C58.4147 189.549 58.5054 190.152 58.5054 190.824C58.5054 191.507 58.4094 192.12 58.2174 192.664C58.036 193.208 57.7694 193.672 57.4174 194.056C57.076 194.44 56.6547 194.739 56.1534 194.952C55.652 195.155 55.092 195.256 54.4734 195.256ZM54.4894 194.104C54.9374 194.104 55.3214 194.024 55.6414 193.864C55.9614 193.704 56.2227 193.48 56.4254 193.192C56.6387 192.904 56.7934 192.563 56.8894 192.168C56.9854 191.763 57.0334 191.32 57.0334 190.84C57.0334 190.371 56.9854 189.939 56.8894 189.544C56.7934 189.149 56.6387 188.813 56.4254 188.536C56.2227 188.248 55.9614 188.024 55.6414 187.864C55.3214 187.704 54.9374 187.624 54.4894 187.624C54.0414 187.624 53.6574 187.704 53.3374 187.864C53.028 188.024 52.7667 188.248 52.5534 188.536C52.3507 188.813 52.2014 189.149 52.1054 189.544C52.0094 189.939 51.9614 190.376 51.9614 190.856C51.9614 191.336 52.0094 191.773 52.1054 192.168C52.2014 192.563 52.3507 192.904 52.5534 193.192C52.756 193.48 53.0174 193.704 53.3374 193.864C53.6574 194.024 54.0414 194.104 54.4894 194.104ZM60.0027 186.728H61.3947V191.944C61.3947 192.712 61.5174 193.256 61.7627 193.576C62.0187 193.896 62.4294 194.056 62.9947 194.056C63.6134 194.056 64.1734 193.832 64.6747 193.384C64.9414 193.149 65.1441 192.904 65.2827 192.648C65.4214 192.381 65.4907 192.04 65.4907 191.624V186.728H66.8827V195H65.5067V193.72C65.1014 194.253 64.6641 194.643 64.1947 194.888C63.7254 195.133 63.2187 195.256 62.6747 195.256C61.7361 195.256 61.0534 195.005 60.6267 194.504C60.2107 193.992 60.0027 193.229 60.0027 192.216V186.728ZM68.6995 186.728H70.0755V188.008C70.3848 187.549 70.7475 187.197 71.1635 186.952C71.5795 186.707 72.0222 186.584 72.4915 186.584C72.7795 186.584 73.0248 186.605 73.2275 186.648L73.0515 187.944C72.9448 187.923 72.8382 187.907 72.7315 187.896C72.6248 187.875 72.5075 187.864 72.3795 187.864C72.1235 187.864 71.8622 187.912 71.5955 188.008C71.3288 188.093 71.0782 188.243 70.8435 188.456C70.6088 188.659 70.4222 188.893 70.2835 189.16C70.1555 189.427 70.0915 189.736 70.0915 190.088V195H68.6995V186.728ZM79.3534 192.68C79.3534 193.085 79.444 193.411 79.6254 193.656C79.8067 193.901 80.084 194.024 80.4574 194.024C80.692 194.024 80.8947 194.008 81.0654 193.976C81.2467 193.933 81.412 193.885 81.5614 193.832L81.8014 194.92C81.588 194.995 81.3534 195.053 81.0974 195.096C80.852 195.149 80.5587 195.176 80.2174 195.176C79.5987 195.176 79.124 195.053 78.7934 194.808C78.4734 194.563 78.2547 194.227 78.1374 193.8C78.02 193.363 77.9614 192.867 77.9614 192.312V187.832H76.6814V186.76H77.4014C77.6787 186.76 77.8494 186.717 77.9134 186.632C77.988 186.547 78.0254 186.371 78.0254 186.104V184.472H79.3534V186.728H81.5454V187.832H79.3534V192.68ZM82.7083 186.728H84.0843V188.008C84.3936 187.549 84.7563 187.197 85.1723 186.952C85.5883 186.707 86.0309 186.584 86.5003 186.584C86.7883 186.584 87.0336 186.605 87.2363 186.648L87.0603 187.944C86.9536 187.923 86.8469 187.907 86.7403 187.896C86.6336 187.875 86.5163 187.864 86.3883 187.864C86.1323 187.864 85.8709 187.912 85.6043 188.008C85.3376 188.093 85.0869 188.243 84.8523 188.456C84.6176 188.659 84.4309 188.893 84.2923 189.16C84.1643 189.427 84.1003 189.736 84.1003 190.088V195H82.7083V186.728ZM95.6236 186.728V195H94.2636V193.816C93.9223 194.275 93.5276 194.632 93.0796 194.888C92.6316 195.133 92.1036 195.256 91.4956 195.256C90.685 195.256 90.0183 195.064 89.4956 194.68C88.9836 194.296 88.5996 193.773 88.3436 193.112C88.0983 192.451 87.9756 191.715 87.9756 190.904C87.9756 189.528 88.301 188.445 88.9516 187.656C89.613 186.867 90.5143 186.472 91.6556 186.472C92.093 186.472 92.541 186.568 92.9996 186.76C93.4583 186.941 93.8796 187.277 94.2636 187.768V186.728H95.6236ZM94.2796 190.616C94.2796 189.955 94.205 189.443 94.0556 189.08C93.917 188.707 93.6823 188.392 93.3516 188.136C93.117 187.944 92.877 187.811 92.6316 187.736C92.397 187.661 92.1356 187.624 91.8476 187.624C91.3996 187.624 90.989 187.731 90.6156 187.944C90.253 188.157 89.965 188.504 89.7516 188.984C89.5383 189.453 89.4316 190.083 89.4316 190.872C89.4316 191.683 89.5436 192.323 89.7676 192.792C89.9916 193.261 90.2796 193.597 90.6316 193.8C90.9836 193.992 91.3516 194.088 91.7356 194.088C92.045 194.088 92.3223 194.056 92.5676 193.992C92.813 193.917 93.0583 193.784 93.3036 193.592C93.6343 193.347 93.8796 193.032 94.0396 192.648C94.1996 192.253 94.2796 191.763 94.2796 191.176V190.616ZM97.4589 186.728H98.8349V187.992C99.2402 187.448 99.6882 187.059 100.179 186.824C100.67 186.589 101.187 186.472 101.731 186.472C102.67 186.472 103.363 186.728 103.811 187.24C104.27 187.752 104.499 188.504 104.499 189.496V195H103.107V189.768C103.107 189 102.968 188.461 102.691 188.152C102.414 187.832 101.987 187.672 101.411 187.672C101.102 187.672 100.792 187.725 100.483 187.832C100.184 187.939 99.9122 188.109 99.6669 188.344C99.4002 188.579 99.1975 188.829 99.0589 189.096C98.9202 189.352 98.8509 189.688 98.8509 190.104V195H97.4589V186.728ZM107.16 192.584C107.256 193.16 107.496 193.565 107.88 193.8C108.275 194.024 108.808 194.136 109.48 194.136C110.184 194.136 110.68 194.019 110.968 193.784C111.267 193.539 111.416 193.219 111.416 192.824C111.416 192.664 111.395 192.515 111.352 192.376C111.32 192.227 111.251 192.099 111.144 191.992C111.037 191.875 110.888 191.773 110.696 191.688C110.504 191.603 110.253 191.533 109.944 191.48L108.888 191.32C108.419 191.245 108.008 191.149 107.656 191.032C107.304 190.915 107.005 190.765 106.76 190.584C106.515 190.392 106.328 190.163 106.2 189.896C106.083 189.619 106.024 189.288 106.024 188.904C106.024 188.52 106.104 188.179 106.264 187.88C106.435 187.581 106.664 187.331 106.952 187.128C107.251 186.915 107.597 186.755 107.992 186.648C108.397 186.531 108.835 186.472 109.304 186.472C109.901 186.472 110.397 186.531 110.792 186.648C111.197 186.765 111.528 186.925 111.784 187.128C112.04 187.331 112.237 187.571 112.376 187.848C112.515 188.125 112.621 188.419 112.696 188.728L111.432 188.936C111.357 188.712 111.272 188.515 111.176 188.344C111.08 188.173 110.952 188.035 110.792 187.928C110.632 187.811 110.435 187.725 110.2 187.672C109.976 187.608 109.693 187.576 109.352 187.576C108.968 187.576 108.648 187.613 108.392 187.688C108.136 187.752 107.928 187.843 107.768 187.96C107.619 188.077 107.512 188.211 107.448 188.36C107.384 188.499 107.352 188.648 107.352 188.808C107.352 188.979 107.373 189.133 107.416 189.272C107.459 189.4 107.539 189.517 107.656 189.624C107.773 189.72 107.933 189.805 108.136 189.88C108.339 189.955 108.6 190.019 108.92 190.072L110.12 190.264C111.091 190.424 111.784 190.701 112.2 191.096C112.627 191.491 112.84 192.067 112.84 192.824C112.84 193.176 112.771 193.501 112.632 193.8C112.493 194.088 112.285 194.344 112.008 194.568C111.731 194.781 111.384 194.947 110.968 195.064C110.552 195.192 110.067 195.256 109.512 195.256C109.011 195.256 108.541 195.208 108.104 195.112C107.677 195.016 107.299 194.867 106.968 194.664C106.637 194.451 106.371 194.173 106.168 193.832C105.965 193.491 105.848 193.075 105.816 192.584H107.16ZM114.847 186.024C114.847 185.427 114.959 184.941 115.183 184.568C115.407 184.184 115.701 183.901 116.063 183.72C116.437 183.539 116.853 183.448 117.311 183.448C117.557 183.448 117.791 183.464 118.015 183.496C118.239 183.517 118.474 183.565 118.719 183.64L118.495 184.728C118.325 184.675 118.159 184.643 117.999 184.632C117.85 184.611 117.701 184.6 117.551 184.6C117.178 184.6 116.858 184.701 116.591 184.904C116.325 185.096 116.191 185.453 116.191 185.976V186.728H118.287V187.832H116.191V195H114.799V187.832H113.503V186.776H114.223C114.501 186.776 114.671 186.728 114.735 186.632C114.81 186.536 114.847 186.333 114.847 186.024ZM126.166 192.68C126.028 193.48 125.67 194.109 125.094 194.568C124.529 195.027 123.713 195.256 122.646 195.256C121.388 195.256 120.422 194.877 119.75 194.12C119.078 193.352 118.742 192.285 118.742 190.92C118.742 190.205 118.838 189.571 119.03 189.016C119.222 188.461 119.489 187.997 119.83 187.624C120.182 187.251 120.598 186.968 121.078 186.776C121.558 186.573 122.081 186.472 122.646 186.472C123.286 186.472 123.836 186.573 124.294 186.776C124.753 186.979 125.126 187.261 125.414 187.624C125.713 187.976 125.932 188.397 126.07 188.888C126.22 189.379 126.294 189.917 126.294 190.504V191.208H120.15C120.15 191.624 120.204 192.013 120.31 192.376C120.428 192.728 120.588 193.037 120.79 193.304C121.004 193.56 121.265 193.763 121.574 193.912C121.884 194.061 122.241 194.136 122.646 194.136C123.34 194.136 123.846 194.008 124.166 193.752C124.486 193.485 124.705 193.128 124.822 192.68H126.166ZM124.902 190.168C124.902 189.773 124.86 189.416 124.774 189.096C124.689 188.776 124.556 188.504 124.374 188.28C124.193 188.045 123.958 187.864 123.67 187.736C123.382 187.608 123.036 187.544 122.63 187.544C121.894 187.544 121.318 187.768 120.902 188.216C120.497 188.664 120.257 189.315 120.182 190.168H124.902ZM127.819 186.728H129.195V188.008C129.505 187.549 129.867 187.197 130.283 186.952C130.699 186.707 131.142 186.584 131.611 186.584C131.899 186.584 132.145 186.605 132.347 186.648L132.171 187.944C132.065 187.923 131.958 187.907 131.851 187.896C131.745 187.875 131.627 187.864 131.499 187.864C131.243 187.864 130.982 187.912 130.715 188.008C130.449 188.093 130.198 188.243 129.963 188.456C129.729 188.659 129.542 188.893 129.403 189.16C129.275 189.427 129.211 189.736 129.211 190.088V195H127.819V186.728ZM134.099 192.584C134.195 193.16 134.435 193.565 134.819 193.8C135.213 194.024 135.747 194.136 136.419 194.136C137.123 194.136 137.619 194.019 137.907 193.784C138.205 193.539 138.355 193.219 138.355 192.824C138.355 192.664 138.333 192.515 138.291 192.376C138.259 192.227 138.189 192.099 138.083 191.992C137.976 191.875 137.827 191.773 137.635 191.688C137.443 191.603 137.192 191.533 136.883 191.48L135.827 191.32C135.357 191.245 134.947 191.149 134.595 191.032C134.243 190.915 133.944 190.765 133.699 190.584C133.453 190.392 133.267 190.163 133.139 189.896C133.021 189.619 132.963 189.288 132.963 188.904C132.963 188.52 133.043 188.179 133.203 187.88C133.373 187.581 133.603 187.331 133.891 187.128C134.189 186.915 134.536 186.755 134.931 186.648C135.336 186.531 135.773 186.472 136.243 186.472C136.84 186.472 137.336 186.531 137.731 186.648C138.136 186.765 138.467 186.925 138.723 187.128C138.979 187.331 139.176 187.571 139.315 187.848C139.453 188.125 139.56 188.419 139.635 188.728L138.371 188.936C138.296 188.712 138.211 188.515 138.115 188.344C138.019 188.173 137.891 188.035 137.731 187.928C137.571 187.811 137.373 187.725 137.139 187.672C136.915 187.608 136.632 187.576 136.291 187.576C135.907 187.576 135.587 187.613 135.331 187.688C135.075 187.752 134.867 187.843 134.707 187.96C134.557 188.077 134.451 188.211 134.387 188.36C134.323 188.499 134.291 188.648 134.291 188.808C134.291 188.979 134.312 189.133 134.355 189.272C134.397 189.4 134.477 189.517 134.595 189.624C134.712 189.72 134.872 189.805 135.075 189.88C135.277 189.955 135.539 190.019 135.859 190.072L137.059 190.264C138.029 190.424 138.723 190.701 139.139 191.096C139.565 191.491 139.779 192.067 139.779 192.824C139.779 193.176 139.709 193.501 139.571 193.8C139.432 194.088 139.224 194.344 138.947 194.568C138.669 194.781 138.323 194.947 137.907 195.064C137.491 195.192 137.005 195.256 136.451 195.256C135.949 195.256 135.48 195.208 135.043 195.112C134.616 195.016 134.237 194.867 133.907 194.664C133.576 194.451 133.309 194.173 133.107 193.832C132.904 193.491 132.787 193.075 132.755 192.584H134.099ZM144.485 186.728H145.861V187.992C146.234 187.48 146.645 187.101 147.093 186.856C147.541 186.6 147.999 186.472 148.469 186.472C149.087 186.472 149.583 186.605 149.957 186.872C150.341 187.139 150.623 187.523 150.805 188.024C151.178 187.512 151.605 187.128 152.085 186.872C152.565 186.605 153.077 186.472 153.621 186.472C154.431 186.472 155.055 186.696 155.493 187.144C155.941 187.581 156.165 188.291 156.165 189.272V195H154.773V189.592C154.773 189.219 154.741 188.909 154.677 188.664C154.613 188.408 154.517 188.211 154.389 188.072C154.271 187.923 154.122 187.821 153.941 187.768C153.759 187.704 153.551 187.672 153.317 187.672C153.071 187.672 152.815 187.715 152.549 187.8C152.282 187.885 152.021 188.035 151.765 188.248C151.551 188.429 151.375 188.648 151.237 188.904C151.098 189.16 151.029 189.453 151.029 189.784V195H149.637V189.608C149.637 188.883 149.509 188.381 149.253 188.104C149.007 187.816 148.65 187.672 148.181 187.672C147.637 187.672 147.125 187.896 146.645 188.344C146.463 188.515 146.287 188.733 146.117 189C145.957 189.267 145.877 189.624 145.877 190.072V195H144.485V186.728ZM161.658 195.256C161.028 195.256 160.468 195.155 159.978 194.952C159.487 194.749 159.071 194.461 158.73 194.088C158.388 193.715 158.127 193.256 157.946 192.712C157.764 192.168 157.674 191.56 157.674 190.888C157.674 190.216 157.77 189.608 157.962 189.064C158.154 188.52 158.426 188.056 158.778 187.672C159.13 187.288 159.551 186.995 160.042 186.792C160.543 186.579 161.098 186.472 161.706 186.472C162.324 186.472 162.879 186.573 163.37 186.776C163.86 186.979 164.276 187.272 164.618 187.656C164.97 188.029 165.236 188.483 165.418 189.016C165.599 189.549 165.69 190.152 165.69 190.824C165.69 191.507 165.594 192.12 165.402 192.664C165.22 193.208 164.954 193.672 164.602 194.056C164.26 194.44 163.839 194.739 163.338 194.952C162.836 195.155 162.276 195.256 161.658 195.256ZM161.674 194.104C162.122 194.104 162.506 194.024 162.826 193.864C163.146 193.704 163.407 193.48 163.61 193.192C163.823 192.904 163.978 192.563 164.074 192.168C164.17 191.763 164.218 191.32 164.218 190.84C164.218 190.371 164.17 189.939 164.074 189.544C163.978 189.149 163.823 188.813 163.61 188.536C163.407 188.248 163.146 188.024 162.826 187.864C162.506 187.704 162.122 187.624 161.674 187.624C161.226 187.624 160.842 187.704 160.522 187.864C160.212 188.024 159.951 188.248 159.738 188.536C159.535 188.813 159.386 189.149 159.29 189.544C159.194 189.939 159.146 190.376 159.146 190.856C159.146 191.336 159.194 191.773 159.29 192.168C159.386 192.563 159.535 192.904 159.738 193.192C159.94 193.48 160.202 193.704 160.522 193.864C160.842 194.024 161.226 194.104 161.674 194.104ZM167.235 186.728H168.611V188.008C168.92 187.549 169.283 187.197 169.699 186.952C170.115 186.707 170.558 186.584 171.027 186.584C171.315 186.584 171.56 186.605 171.763 186.648L171.587 187.944C171.48 187.923 171.374 187.907 171.267 187.896C171.16 187.875 171.043 187.864 170.915 187.864C170.659 187.864 170.398 187.912 170.131 188.008C169.864 188.093 169.614 188.243 169.379 188.456C169.144 188.659 168.958 188.893 168.819 189.16C168.691 189.427 168.627 189.736 168.627 190.088V195H167.235V186.728ZM179.442 192.68C179.303 193.48 178.946 194.109 178.37 194.568C177.805 195.027 176.989 195.256 175.922 195.256C174.663 195.256 173.698 194.877 173.026 194.12C172.354 193.352 172.018 192.285 172.018 190.92C172.018 190.205 172.114 189.571 172.306 189.016C172.498 188.461 172.765 187.997 173.106 187.624C173.458 187.251 173.874 186.968 174.354 186.776C174.834 186.573 175.357 186.472 175.922 186.472C176.562 186.472 177.111 186.573 177.57 186.776C178.029 186.979 178.402 187.261 178.69 187.624C178.989 187.976 179.207 188.397 179.346 188.888C179.495 189.379 179.57 189.917 179.57 190.504V191.208H173.426C173.426 191.624 173.479 192.013 173.586 192.376C173.703 192.728 173.863 193.037 174.066 193.304C174.279 193.56 174.541 193.763 174.85 193.912C175.159 194.061 175.517 194.136 175.922 194.136C176.615 194.136 177.122 194.008 177.442 193.752C177.762 193.485 177.981 193.128 178.098 192.68H179.442ZM178.178 190.168C178.178 189.773 178.135 189.416 178.05 189.096C177.965 188.776 177.831 188.504 177.65 188.28C177.469 188.045 177.234 187.864 176.946 187.736C176.658 187.608 176.311 187.544 175.906 187.544C175.17 187.544 174.594 187.768 174.178 188.216C173.773 188.664 173.533 189.315 173.458 190.168H178.178ZM184.338 186.728H185.714V187.912C186.055 187.443 186.45 187.085 186.898 186.84C187.356 186.595 187.89 186.472 188.498 186.472C189.084 186.472 189.596 186.579 190.034 186.792C190.482 187.005 190.85 187.304 191.138 187.688C191.436 188.072 191.655 188.531 191.794 189.064C191.943 189.587 192.018 190.168 192.018 190.808C192.018 191.491 191.932 192.109 191.762 192.664C191.591 193.208 191.346 193.672 191.026 194.056C190.706 194.44 190.316 194.739 189.858 194.952C189.41 195.155 188.903 195.256 188.338 195.256C187.868 195.256 187.404 195.165 186.946 194.984C186.498 194.792 186.092 194.456 185.73 193.976V198.104H184.338V186.728ZM185.714 191.096C185.714 191.629 185.772 192.088 185.89 192.472C186.018 192.845 186.188 193.155 186.402 193.4C186.615 193.645 186.871 193.827 187.17 193.944C187.468 194.051 187.794 194.104 188.146 194.104C188.487 194.104 188.802 194.045 189.09 193.928C189.388 193.811 189.644 193.624 189.858 193.368C190.071 193.101 190.236 192.76 190.354 192.344C190.482 191.928 190.546 191.421 190.546 190.824C190.546 190.216 190.476 189.709 190.338 189.304C190.21 188.888 190.039 188.557 189.826 188.312C189.612 188.067 189.367 187.891 189.09 187.784C188.823 187.677 188.546 187.624 188.258 187.624C187.895 187.624 187.559 187.688 187.25 187.816C186.94 187.933 186.668 188.115 186.434 188.36C186.21 188.595 186.034 188.899 185.906 189.272C185.778 189.635 185.714 190.056 185.714 190.536V191.096ZM193.564 186.728H194.94V188.008C195.25 187.549 195.612 187.197 196.028 186.952C196.444 186.707 196.887 186.584 197.356 186.584C197.644 186.584 197.89 186.605 198.092 186.648L197.916 187.944C197.81 187.923 197.703 187.907 197.596 187.896C197.49 187.875 197.372 187.864 197.244 187.864C196.988 187.864 196.727 187.912 196.46 188.008C196.194 188.093 195.943 188.243 195.708 188.456C195.474 188.659 195.287 188.893 195.148 189.16C195.02 189.427 194.956 189.736 194.956 190.088V195H193.564V186.728ZM202.332 195.256C201.702 195.256 201.142 195.155 200.652 194.952C200.161 194.749 199.745 194.461 199.404 194.088C199.062 193.715 198.801 193.256 198.62 192.712C198.438 192.168 198.348 191.56 198.348 190.888C198.348 190.216 198.444 189.608 198.636 189.064C198.828 188.52 199.1 188.056 199.452 187.672C199.804 187.288 200.225 186.995 200.716 186.792C201.217 186.579 201.772 186.472 202.38 186.472C202.998 186.472 203.553 186.573 204.044 186.776C204.534 186.979 204.95 187.272 205.292 187.656C205.644 188.029 205.91 188.483 206.092 189.016C206.273 189.549 206.364 190.152 206.364 190.824C206.364 191.507 206.268 192.12 206.076 192.664C205.894 193.208 205.628 193.672 205.276 194.056C204.934 194.44 204.513 194.739 204.012 194.952C203.51 195.155 202.95 195.256 202.332 195.256ZM202.348 194.104C202.796 194.104 203.18 194.024 203.5 193.864C203.82 193.704 204.081 193.48 204.284 193.192C204.497 192.904 204.652 192.563 204.748 192.168C204.844 191.763 204.892 191.32 204.892 190.84C204.892 190.371 204.844 189.939 204.748 189.544C204.652 189.149 204.497 188.813 204.284 188.536C204.081 188.248 203.82 188.024 203.5 187.864C203.18 187.704 202.796 187.624 202.348 187.624C201.9 187.624 201.516 187.704 201.196 187.864C200.886 188.024 200.625 188.248 200.412 188.536C200.209 188.813 200.06 189.149 199.964 189.544C199.868 189.939 199.82 190.376 199.82 190.856C199.82 191.336 199.868 191.773 199.964 192.168C200.06 192.563 200.209 192.904 200.412 193.192C200.614 193.48 200.876 193.704 201.196 193.864C201.516 194.024 201.9 194.104 202.348 194.104ZM208.453 186.024C208.453 185.427 208.565 184.941 208.789 184.568C209.013 184.184 209.306 183.901 209.669 183.72C210.042 183.539 210.458 183.448 210.917 183.448C211.162 183.448 211.397 183.464 211.621 183.496C211.845 183.517 212.08 183.565 212.325 183.64L212.101 184.728C211.93 184.675 211.765 184.643 211.605 184.632C211.456 184.611 211.306 184.6 211.157 184.6C210.784 184.6 210.464 184.701 210.197 184.904C209.93 185.096 209.797 185.453 209.797 185.976V186.728H211.893V187.832H209.797V195H208.405V187.832H207.109V186.776H207.829C208.106 186.776 208.277 186.728 208.341 186.632C208.416 186.536 208.453 186.333 208.453 186.024ZM219.772 192.68C219.633 193.48 219.276 194.109 218.7 194.568C218.135 195.027 217.319 195.256 216.252 195.256C214.993 195.256 214.028 194.877 213.356 194.12C212.684 193.352 212.348 192.285 212.348 190.92C212.348 190.205 212.444 189.571 212.636 189.016C212.828 188.461 213.095 187.997 213.436 187.624C213.788 187.251 214.204 186.968 214.684 186.776C215.164 186.573 215.687 186.472 216.252 186.472C216.892 186.472 217.441 186.573 217.9 186.776C218.359 186.979 218.732 187.261 219.02 187.624C219.319 187.976 219.537 188.397 219.676 188.888C219.825 189.379 219.9 189.917 219.9 190.504V191.208H213.756C213.756 191.624 213.809 192.013 213.916 192.376C214.033 192.728 214.193 193.037 214.396 193.304C214.609 193.56 214.871 193.763 215.18 193.912C215.489 194.061 215.847 194.136 216.252 194.136C216.945 194.136 217.452 194.008 217.772 193.752C218.092 193.485 218.311 193.128 218.428 192.68H219.772ZM218.508 190.168C218.508 189.773 218.465 189.416 218.38 189.096C218.295 188.776 218.161 188.504 217.98 188.28C217.799 188.045 217.564 187.864 217.276 187.736C216.988 187.608 216.641 187.544 216.236 187.544C215.5 187.544 214.924 187.768 214.508 188.216C214.103 188.664 213.863 189.315 213.788 190.168H218.508ZM222.321 192.584C222.417 193.16 222.657 193.565 223.041 193.8C223.436 194.024 223.969 194.136 224.641 194.136C225.345 194.136 225.841 194.019 226.129 193.784C226.428 193.539 226.577 193.219 226.577 192.824C226.577 192.664 226.556 192.515 226.513 192.376C226.481 192.227 226.412 192.099 226.305 191.992C226.198 191.875 226.049 191.773 225.857 191.688C225.665 191.603 225.414 191.533 225.105 191.48L224.049 191.32C223.58 191.245 223.169 191.149 222.817 191.032C222.465 190.915 222.166 190.765 221.921 190.584C221.676 190.392 221.489 190.163 221.361 189.896C221.244 189.619 221.185 189.288 221.185 188.904C221.185 188.52 221.265 188.179 221.425 187.88C221.596 187.581 221.825 187.331 222.113 187.128C222.412 186.915 222.758 186.755 223.153 186.648C223.558 186.531 223.996 186.472 224.465 186.472C225.062 186.472 225.558 186.531 225.953 186.648C226.358 186.765 226.689 186.925 226.945 187.128C227.201 187.331 227.398 187.571 227.537 187.848C227.676 188.125 227.782 188.419 227.857 188.728L226.593 188.936C226.518 188.712 226.433 188.515 226.337 188.344C226.241 188.173 226.113 188.035 225.953 187.928C225.793 187.811 225.596 187.725 225.361 187.672C225.137 187.608 224.854 187.576 224.513 187.576C224.129 187.576 223.809 187.613 223.553 187.688C223.297 187.752 223.089 187.843 222.929 187.96C222.78 188.077 222.673 188.211 222.609 188.36C222.545 188.499 222.513 188.648 222.513 188.808C222.513 188.979 222.534 189.133 222.577 189.272C222.62 189.4 222.7 189.517 222.817 189.624C222.934 189.72 223.094 189.805 223.297 189.88C223.5 189.955 223.761 190.019 224.081 190.072L225.281 190.264C226.252 190.424 226.945 190.701 227.361 191.096C227.788 191.491 228.001 192.067 228.001 192.824C228.001 193.176 227.932 193.501 227.793 193.8C227.654 194.088 227.446 194.344 227.169 194.568C226.892 194.781 226.545 194.947 226.129 195.064C225.713 195.192 225.228 195.256 224.673 195.256C224.172 195.256 223.702 195.208 223.265 195.112C222.838 195.016 222.46 194.867 222.129 194.664C221.798 194.451 221.532 194.173 221.329 193.832C221.126 193.491 221.009 193.075 220.977 192.584H222.321ZM230.361 192.584C230.457 193.16 230.697 193.565 231.081 193.8C231.475 194.024 232.009 194.136 232.681 194.136C233.385 194.136 233.881 194.019 234.169 193.784C234.467 193.539 234.617 193.219 234.617 192.824C234.617 192.664 234.595 192.515 234.553 192.376C234.521 192.227 234.451 192.099 234.345 191.992C234.238 191.875 234.089 191.773 233.897 191.688C233.705 191.603 233.454 191.533 233.145 191.48L232.089 191.32C231.619 191.245 231.209 191.149 230.857 191.032C230.505 190.915 230.206 190.765 229.961 190.584C229.715 190.392 229.529 190.163 229.401 189.896C229.283 189.619 229.225 189.288 229.225 188.904C229.225 188.52 229.305 188.179 229.465 187.88C229.635 187.581 229.865 187.331 230.153 187.128C230.451 186.915 230.798 186.755 231.193 186.648C231.598 186.531 232.035 186.472 232.505 186.472C233.102 186.472 233.598 186.531 233.993 186.648C234.398 186.765 234.729 186.925 234.985 187.128C235.241 187.331 235.438 187.571 235.577 187.848C235.715 188.125 235.822 188.419 235.897 188.728L234.633 188.936C234.558 188.712 234.473 188.515 234.377 188.344C234.281 188.173 234.153 188.035 233.993 187.928C233.833 187.811 233.635 187.725 233.401 187.672C233.177 187.608 232.894 187.576 232.553 187.576C232.169 187.576 231.849 187.613 231.593 187.688C231.337 187.752 231.129 187.843 230.969 187.96C230.819 188.077 230.713 188.211 230.649 188.36C230.585 188.499 230.553 188.648 230.553 188.808C230.553 188.979 230.574 189.133 230.617 189.272C230.659 189.4 230.739 189.517 230.857 189.624C230.974 189.72 231.134 189.805 231.337 189.88C231.539 189.955 231.801 190.019 232.121 190.072L233.321 190.264C234.291 190.424 234.985 190.701 235.401 191.096C235.827 191.491 236.041 192.067 236.041 192.824C236.041 193.176 235.971 193.501 235.833 193.8C235.694 194.088 235.486 194.344 235.209 194.568C234.931 194.781 234.585 194.947 234.169 195.064C233.753 195.192 233.267 195.256 232.713 195.256C232.211 195.256 231.742 195.208 231.305 195.112C230.878 195.016 230.499 194.867 230.169 194.664C229.838 194.451 229.571 194.173 229.369 193.832C229.166 193.491 229.049 193.075 229.017 192.584H230.361ZM237.296 184.408C237.296 184.141 237.387 183.923 237.568 183.752C237.749 183.571 237.968 183.48 238.224 183.48C238.501 183.48 238.725 183.565 238.896 183.736C239.067 183.907 239.152 184.131 239.152 184.408C239.152 184.675 239.067 184.899 238.896 185.08C238.725 185.251 238.501 185.336 238.224 185.336C237.957 185.336 237.733 185.251 237.552 185.08C237.381 184.899 237.296 184.675 237.296 184.408ZM237.536 195V186.728H238.928V195H237.536ZM244.49 195.256C243.86 195.256 243.3 195.155 242.81 194.952C242.319 194.749 241.903 194.461 241.562 194.088C241.22 193.715 240.959 193.256 240.778 192.712C240.596 192.168 240.506 191.56 240.506 190.888C240.506 190.216 240.602 189.608 240.794 189.064C240.986 188.52 241.258 188.056 241.61 187.672C241.962 187.288 242.383 186.995 242.874 186.792C243.375 186.579 243.93 186.472 244.538 186.472C245.156 186.472 245.711 186.573 246.202 186.776C246.692 186.979 247.108 187.272 247.45 187.656C247.802 188.029 248.068 188.483 248.25 189.016C248.431 189.549 248.522 190.152 248.522 190.824C248.522 191.507 248.426 192.12 248.234 192.664C248.052 193.208 247.786 193.672 247.434 194.056C247.092 194.44 246.671 194.739 246.17 194.952C245.668 195.155 245.108 195.256 244.49 195.256ZM244.506 194.104C244.954 194.104 245.338 194.024 245.658 193.864C245.978 193.704 246.239 193.48 246.442 193.192C246.655 192.904 246.81 192.563 246.906 192.168C247.002 191.763 247.05 191.32 247.05 190.84C247.05 190.371 247.002 189.939 246.906 189.544C246.81 189.149 246.655 188.813 246.442 188.536C246.239 188.248 245.978 188.024 245.658 187.864C245.338 187.704 244.954 187.624 244.506 187.624C244.058 187.624 243.674 187.704 243.354 187.864C243.044 188.024 242.783 188.248 242.57 188.536C242.367 188.813 242.218 189.149 242.122 189.544C242.026 189.939 241.978 190.376 241.978 190.856C241.978 191.336 242.026 191.773 242.122 192.168C242.218 192.563 242.367 192.904 242.57 193.192C242.772 193.48 243.034 193.704 243.354 193.864C243.674 194.024 244.058 194.104 244.506 194.104ZM250.067 186.728H251.443V187.992C251.848 187.448 252.296 187.059 252.787 186.824C253.278 186.589 253.795 186.472 254.339 186.472C255.278 186.472 255.971 186.728 256.419 187.24C256.878 187.752 257.107 188.504 257.107 189.496V195H255.715V189.768C255.715 189 255.576 188.461 255.299 188.152C255.022 187.832 254.595 187.672 254.019 187.672C253.71 187.672 253.4 187.725 253.091 187.832C252.792 187.939 252.52 188.109 252.275 188.344C252.008 188.579 251.806 188.829 251.667 189.096C251.528 189.352 251.459 189.688 251.459 190.104V195H250.067V186.728ZM266.248 186.728V195H264.888V193.816C264.547 194.275 264.152 194.632 263.704 194.888C263.256 195.133 262.728 195.256 262.12 195.256C261.309 195.256 260.643 195.064 260.12 194.68C259.608 194.296 259.224 193.773 258.968 193.112C258.723 192.451 258.6 191.715 258.6 190.904C258.6 189.528 258.925 188.445 259.576 187.656C260.237 186.867 261.139 186.472 262.28 186.472C262.717 186.472 263.165 186.568 263.624 186.76C264.083 186.941 264.504 187.277 264.888 187.768V186.728H266.248ZM264.904 190.616C264.904 189.955 264.829 189.443 264.68 189.08C264.541 188.707 264.307 188.392 263.976 188.136C263.741 187.944 263.501 187.811 263.256 187.736C263.021 187.661 262.76 187.624 262.472 187.624C262.024 187.624 261.613 187.731 261.24 187.944C260.877 188.157 260.589 188.504 260.376 188.984C260.163 189.453 260.056 190.083 260.056 190.872C260.056 191.683 260.168 192.323 260.392 192.792C260.616 193.261 260.904 193.597 261.256 193.8C261.608 193.992 261.976 194.088 262.36 194.088C262.669 194.088 262.947 194.056 263.192 193.992C263.437 193.917 263.683 193.784 263.928 193.592C264.259 193.347 264.504 193.032 264.664 192.648C264.824 192.253 264.904 191.763 264.904 191.176V190.616ZM268.115 183.576H269.507V195H268.115V183.576ZM273.655 186.728H275.175L276.839 193.32L278.743 186.776H280.151L282.007 193.32L283.655 186.728H285.127L282.711 195H281.239L279.383 188.408L277.511 195H276.055L273.655 186.728ZM285.806 184.408C285.806 184.141 285.897 183.923 286.078 183.752C286.259 183.571 286.478 183.48 286.734 183.48C287.011 183.48 287.235 183.565 287.406 183.736C287.577 183.907 287.662 184.131 287.662 184.408C287.662 184.675 287.577 184.899 287.406 185.08C287.235 185.251 287.011 185.336 286.734 185.336C286.467 185.336 286.243 185.251 286.062 185.08C285.891 184.899 285.806 184.675 285.806 184.408ZM286.046 195V186.728H287.438V195H286.046ZM291.16 192.68C291.16 193.085 291.25 193.411 291.432 193.656C291.613 193.901 291.89 194.024 292.264 194.024C292.498 194.024 292.701 194.008 292.872 193.976C293.053 193.933 293.218 193.885 293.368 193.832L293.608 194.92C293.394 194.995 293.16 195.053 292.904 195.096C292.658 195.149 292.365 195.176 292.024 195.176C291.405 195.176 290.93 195.053 290.6 194.808C290.28 194.563 290.061 194.227 289.944 193.8C289.826 193.363 289.768 192.867 289.768 192.312V187.832H288.488V186.76H289.208C289.485 186.76 289.656 186.717 289.72 186.632C289.794 186.547 289.832 186.371 289.832 186.104V184.472H291.16V186.728H293.352V187.832H291.16V192.68ZM294.515 183.576H295.907V187.96C296.312 187.437 296.755 187.059 297.235 186.824C297.725 186.589 298.243 186.472 298.787 186.472C299.725 186.472 300.419 186.728 300.867 187.24C301.325 187.752 301.555 188.504 301.555 189.496V195H300.147V189.768C300.147 189 300.008 188.461 299.731 188.152C299.464 187.832 299.043 187.672 298.467 187.672C298.157 187.672 297.848 187.725 297.539 187.832C297.24 187.939 296.968 188.109 296.723 188.344C296.456 188.579 296.253 188.829 296.115 189.096C295.976 189.352 295.907 189.688 295.907 190.104V195H294.515V183.576ZM313.73 192.2C313.591 193.149 313.229 193.896 312.642 194.44C312.055 194.984 311.229 195.256 310.162 195.256C309.533 195.256 308.973 195.155 308.482 194.952C308.002 194.749 307.597 194.461 307.266 194.088C306.946 193.704 306.701 193.245 306.53 192.712C306.37 192.168 306.29 191.56 306.29 190.888C306.29 190.227 306.381 189.624 306.562 189.08C306.743 188.536 307.005 188.072 307.346 187.688C307.687 187.304 308.103 187.005 308.594 186.792C309.085 186.579 309.639 186.472 310.258 186.472C311.25 186.472 312.018 186.717 312.562 187.208C313.106 187.688 313.453 188.355 313.602 189.208L312.21 189.464C312.157 189.197 312.082 188.952 311.986 188.728C311.901 188.504 311.778 188.312 311.618 188.152C311.458 187.981 311.261 187.853 311.026 187.768C310.802 187.672 310.53 187.624 310.21 187.624C309.773 187.624 309.399 187.709 309.09 187.88C308.781 188.04 308.525 188.269 308.322 188.568C308.13 188.856 307.986 189.197 307.89 189.592C307.805 189.987 307.762 190.408 307.762 190.856C307.762 191.304 307.805 191.725 307.89 192.12C307.975 192.515 308.114 192.861 308.306 193.16C308.498 193.448 308.749 193.677 309.058 193.848C309.367 194.019 309.746 194.104 310.194 194.104C310.866 194.104 311.362 193.933 311.682 193.592C312.013 193.251 312.226 192.787 312.322 192.2H313.73ZM315.132 186.728H316.524V191.944C316.524 192.712 316.646 193.256 316.892 193.576C317.148 193.896 317.558 194.056 318.124 194.056C318.742 194.056 319.302 193.832 319.804 193.384C320.07 193.149 320.273 192.904 320.412 192.648C320.55 192.381 320.62 192.04 320.62 191.624V186.728H322.012V195H320.636V193.72C320.23 194.253 319.793 194.643 319.324 194.888C318.854 195.133 318.348 195.256 317.804 195.256C316.865 195.256 316.182 195.005 315.756 194.504C315.34 193.992 315.132 193.229 315.132 192.216V186.728ZM324.724 192.584C324.82 193.16 325.06 193.565 325.444 193.8C325.839 194.024 326.372 194.136 327.044 194.136C327.748 194.136 328.244 194.019 328.532 193.784C328.831 193.539 328.98 193.219 328.98 192.824C328.98 192.664 328.959 192.515 328.916 192.376C328.884 192.227 328.815 192.099 328.708 191.992C328.602 191.875 328.452 191.773 328.26 191.688C328.068 191.603 327.818 191.533 327.508 191.48L326.452 191.32C325.983 191.245 325.572 191.149 325.22 191.032C324.868 190.915 324.57 190.765 324.324 190.584C324.079 190.392 323.892 190.163 323.764 189.896C323.647 189.619 323.588 189.288 323.588 188.904C323.588 188.52 323.668 188.179 323.828 187.88C323.999 187.581 324.228 187.331 324.516 187.128C324.815 186.915 325.162 186.755 325.556 186.648C325.962 186.531 326.399 186.472 326.868 186.472C327.466 186.472 327.962 186.531 328.356 186.648C328.762 186.765 329.092 186.925 329.348 187.128C329.604 187.331 329.802 187.571 329.94 187.848C330.079 188.125 330.186 188.419 330.26 188.728L328.996 188.936C328.922 188.712 328.836 188.515 328.74 188.344C328.644 188.173 328.516 188.035 328.356 187.928C328.196 187.811 327.999 187.725 327.764 187.672C327.54 187.608 327.258 187.576 326.916 187.576C326.532 187.576 326.212 187.613 325.956 187.688C325.7 187.752 325.492 187.843 325.332 187.96C325.183 188.077 325.076 188.211 325.012 188.36C324.948 188.499 324.916 188.648 324.916 188.808C324.916 188.979 324.938 189.133 324.98 189.272C325.023 189.4 325.103 189.517 325.22 189.624C325.338 189.72 325.498 189.805 325.7 189.88C325.903 189.955 326.164 190.019 326.484 190.072L327.684 190.264C328.655 190.424 329.348 190.701 329.764 191.096C330.191 191.491 330.404 192.067 330.404 192.824C330.404 193.176 330.335 193.501 330.196 193.8C330.058 194.088 329.85 194.344 329.572 194.568C329.295 194.781 328.948 194.947 328.532 195.064C328.116 195.192 327.631 195.256 327.076 195.256C326.575 195.256 326.106 195.208 325.668 195.112C325.242 195.016 324.863 194.867 324.532 194.664C324.202 194.451 323.935 194.173 323.732 193.832C323.53 193.491 323.412 193.075 323.38 192.584H324.724ZM333.74 192.68C333.74 193.085 333.83 193.411 334.012 193.656C334.193 193.901 334.47 194.024 334.844 194.024C335.078 194.024 335.281 194.008 335.452 193.976C335.633 193.933 335.798 193.885 335.948 193.832L336.188 194.92C335.974 194.995 335.74 195.053 335.484 195.096C335.238 195.149 334.945 195.176 334.604 195.176C333.985 195.176 333.51 195.053 333.18 194.808C332.86 194.563 332.641 194.227 332.524 193.8C332.406 193.363 332.348 192.867 332.348 192.312V187.832H331.068V186.76H331.788C332.065 186.76 332.236 186.717 332.3 186.632C332.374 186.547 332.412 186.371 332.412 186.104V184.472H333.74V186.728H335.932V187.832H333.74V192.68ZM340.572 195.256C339.943 195.256 339.383 195.155 338.892 194.952C338.401 194.749 337.985 194.461 337.644 194.088C337.303 193.715 337.041 193.256 336.86 192.712C336.679 192.168 336.588 191.56 336.588 190.888C336.588 190.216 336.684 189.608 336.876 189.064C337.068 188.52 337.34 188.056 337.692 187.672C338.044 187.288 338.465 186.995 338.956 186.792C339.457 186.579 340.012 186.472 340.62 186.472C341.239 186.472 341.793 186.573 342.284 186.776C342.775 186.979 343.191 187.272 343.532 187.656C343.884 188.029 344.151 188.483 344.332 189.016C344.513 189.549 344.604 190.152 344.604 190.824C344.604 191.507 344.508 192.12 344.316 192.664C344.135 193.208 343.868 193.672 343.516 194.056C343.175 194.44 342.753 194.739 342.252 194.952C341.751 195.155 341.191 195.256 340.572 195.256ZM340.588 194.104C341.036 194.104 341.42 194.024 341.74 193.864C342.06 193.704 342.321 193.48 342.524 193.192C342.737 192.904 342.892 192.563 342.988 192.168C343.084 191.763 343.132 191.32 343.132 190.84C343.132 190.371 343.084 189.939 342.988 189.544C342.892 189.149 342.737 188.813 342.524 188.536C342.321 188.248 342.06 188.024 341.74 187.864C341.42 187.704 341.036 187.624 340.588 187.624C340.14 187.624 339.756 187.704 339.436 187.864C339.127 188.024 338.865 188.248 338.652 188.536C338.449 188.813 338.3 189.149 338.204 189.544C338.108 189.939 338.06 190.376 338.06 190.856C338.06 191.336 338.108 191.773 338.204 192.168C338.3 192.563 338.449 192.904 338.652 193.192C338.855 193.48 339.116 193.704 339.436 193.864C339.756 194.024 340.14 194.104 340.588 194.104ZM346.15 186.728H347.526V187.992C347.899 187.48 348.31 187.101 348.758 186.856C349.206 186.6 349.664 186.472 350.134 186.472C350.752 186.472 351.248 186.605 351.622 186.872C352.006 187.139 352.288 187.523 352.47 188.024C352.843 187.512 353.27 187.128 353.75 186.872C354.23 186.605 354.742 186.472 355.286 186.472C356.096 186.472 356.72 186.696 357.158 187.144C357.606 187.581 357.83 188.291 357.83 189.272V195H356.438V189.592C356.438 189.219 356.406 188.909 356.342 188.664C356.278 188.408 356.182 188.211 356.054 188.072C355.936 187.923 355.787 187.821 355.606 187.768C355.424 187.704 355.216 187.672 354.982 187.672C354.736 187.672 354.48 187.715 354.214 187.8C353.947 187.885 353.686 188.035 353.43 188.248C353.216 188.429 353.04 188.648 352.902 188.904C352.763 189.16 352.694 189.453 352.694 189.784V195H351.302V189.608C351.302 188.883 351.174 188.381 350.918 188.104C350.672 187.816 350.315 187.672 349.846 187.672C349.302 187.672 348.79 187.896 348.31 188.344C348.128 188.515 347.952 188.733 347.782 189C347.622 189.267 347.542 189.624 347.542 190.072V195H346.15V186.728ZM362.773 183.576H365.013V187.656C365.643 186.813 366.496 186.392 367.573 186.392C368.736 186.392 369.605 186.787 370.181 187.576C370.757 188.365 371.045 189.448 371.045 190.824C371.045 191.485 370.96 192.088 370.789 192.632C370.629 193.176 370.389 193.645 370.069 194.04C369.76 194.424 369.381 194.723 368.933 194.936C368.485 195.149 367.979 195.256 367.413 195.256C366.965 195.256 366.533 195.171 366.117 195C365.701 194.829 365.312 194.52 364.949 194.072V195H362.773V183.576ZM364.997 190.888C364.997 191.432 365.04 191.869 365.125 192.2C365.221 192.52 365.371 192.781 365.573 192.984C365.787 193.176 366 193.304 366.213 193.368C366.437 193.421 366.661 193.448 366.885 193.448C367.131 193.448 367.365 193.4 367.589 193.304C367.813 193.208 368.005 193.059 368.165 192.856C368.336 192.643 368.469 192.371 368.565 192.04C368.661 191.709 368.709 191.309 368.709 190.84C368.709 190.349 368.661 189.939 368.565 189.608C368.48 189.277 368.357 189.011 368.197 188.808C368.037 188.595 367.845 188.445 367.621 188.36C367.408 188.264 367.179 188.216 366.933 188.216C366.656 188.216 366.416 188.253 366.213 188.328C366.011 188.403 365.813 188.52 365.621 188.68C365.408 188.883 365.248 189.139 365.141 189.448C365.045 189.757 364.997 190.152 364.997 190.632V190.888ZM380.406 195H378.198V193.912C377.91 194.339 377.531 194.669 377.062 194.904C376.593 195.139 376.118 195.256 375.638 195.256C374.465 195.256 373.585 194.861 372.998 194.072C372.422 193.283 372.134 192.189 372.134 190.792C372.134 189.928 372.278 189.165 372.566 188.504C372.854 187.843 373.27 187.325 373.814 186.952C374.358 186.579 375.009 186.392 375.766 186.392C376.203 186.392 376.635 186.477 377.062 186.648C377.489 186.819 377.878 187.133 378.23 187.592V186.648H380.406V195ZM378.182 191.016V190.728C378.182 190.205 378.134 189.784 378.038 189.464C377.953 189.133 377.809 188.867 377.606 188.664C377.414 188.472 377.201 188.349 376.966 188.296C376.742 188.232 376.518 188.2 376.294 188.2C375.803 188.2 375.377 188.397 375.014 188.792C374.662 189.187 374.486 189.848 374.486 190.776C374.486 191.768 374.651 192.461 374.982 192.856C375.323 193.24 375.745 193.432 376.246 193.432C376.779 193.432 377.217 193.277 377.558 192.968C377.771 192.765 377.926 192.509 378.022 192.2C378.129 191.891 378.182 191.496 378.182 191.016ZM389.575 191.976C389.489 192.979 389.143 193.779 388.535 194.376C387.937 194.963 387.036 195.256 385.831 195.256C385.127 195.256 384.519 195.149 384.007 194.936C383.495 194.723 383.073 194.424 382.743 194.04C382.423 193.656 382.183 193.192 382.023 192.648C381.863 192.104 381.783 191.501 381.783 190.84C381.783 190.179 381.873 189.576 382.055 189.032C382.247 188.477 382.519 188.008 382.871 187.624C383.223 187.229 383.655 186.925 384.167 186.712C384.679 186.499 385.265 186.392 385.927 186.392C386.492 186.392 386.983 186.467 387.399 186.616C387.825 186.755 388.183 186.952 388.471 187.208C388.759 187.464 388.983 187.773 389.143 188.136C389.303 188.488 389.409 188.877 389.463 189.304L387.207 189.608C387.153 189.181 387.031 188.84 386.839 188.584C386.647 188.317 386.316 188.184 385.847 188.184C385.505 188.184 385.223 188.259 384.999 188.408C384.775 188.547 384.593 188.739 384.455 188.984C384.327 189.229 384.236 189.512 384.183 189.832C384.129 190.141 384.103 190.467 384.103 190.808C384.103 191.16 384.129 191.496 384.183 191.816C384.236 192.136 384.327 192.419 384.455 192.664C384.583 192.909 384.759 193.107 384.983 193.256C385.207 193.395 385.489 193.464 385.831 193.464C386.279 193.464 386.625 193.336 386.871 193.08C387.116 192.824 387.26 192.456 387.303 191.976H389.575ZM393.052 195H390.86V183.576H393.052V190.552L396.3 186.648H398.86L395.324 190.68L399.036 195H396.428L393.052 190.968V195ZM401.626 195.528C401.669 195.741 401.727 195.912 401.802 196.04C401.887 196.168 401.994 196.269 402.122 196.344C402.261 196.419 402.421 196.467 402.602 196.488C402.794 196.52 403.023 196.536 403.29 196.536C403.706 196.536 404.031 196.456 404.266 196.296C404.501 196.147 404.671 195.944 404.778 195.688C404.895 195.432 404.965 195.139 404.986 194.808C405.018 194.477 405.034 194.136 405.034 193.784V193.528C404.757 193.933 404.399 194.243 403.962 194.456C403.535 194.659 403.05 194.76 402.506 194.76C401.333 194.76 400.453 194.381 399.866 193.624C399.29 192.867 399.002 191.848 399.002 190.568C399.002 189.96 399.082 189.4 399.242 188.888C399.413 188.376 399.653 187.939 399.962 187.576C400.271 187.203 400.65 186.915 401.098 186.712C401.557 186.499 402.069 186.392 402.634 186.392C403.082 186.392 403.514 186.477 403.93 186.648C404.357 186.819 404.746 187.133 405.098 187.592V186.648H407.274V193.832C407.274 194.536 407.199 195.16 407.05 195.704C406.911 196.259 406.682 196.728 406.362 197.112C406.053 197.496 405.642 197.784 405.13 197.976C404.629 198.179 404.015 198.28 403.29 198.28C402.618 198.28 402.042 198.221 401.562 198.104C401.093 197.997 400.703 197.827 400.394 197.592C400.085 197.368 399.845 197.08 399.674 196.728C399.514 196.387 399.407 195.987 399.354 195.528H401.626ZM405.05 190.536C405.05 190.035 404.991 189.629 404.874 189.32C404.767 189.011 404.623 188.776 404.442 188.616C404.261 188.445 404.058 188.333 403.834 188.28C403.61 188.227 403.386 188.2 403.162 188.2C402.917 188.2 402.682 188.243 402.458 188.328C402.245 188.413 402.053 188.552 401.882 188.744C401.722 188.936 401.594 189.181 401.498 189.48C401.402 189.779 401.354 190.136 401.354 190.552C401.354 191.437 401.519 192.067 401.85 192.44C402.191 192.803 402.613 192.984 403.114 192.984C403.391 192.984 403.647 192.947 403.882 192.872C404.127 192.787 404.335 192.659 404.506 192.488C404.677 192.307 404.81 192.077 404.906 191.8C405.002 191.512 405.05 191.165 405.05 190.76V190.536ZM408.939 186.648H411.115V187.816C411.392 187.379 411.728 187.053 412.123 186.84C412.518 186.616 412.934 186.504 413.371 186.504C413.584 186.504 413.76 186.515 413.899 186.536C414.038 186.547 414.16 186.563 414.267 186.584L413.995 188.616C413.739 188.552 413.424 188.52 413.051 188.52C412.806 188.52 412.571 188.552 412.347 188.616C412.123 188.669 411.92 188.776 411.739 188.936C411.547 189.107 411.403 189.299 411.307 189.512C411.222 189.725 411.179 189.944 411.179 190.168V195H408.939V186.648ZM418.852 195.256C417.508 195.256 416.468 194.872 415.732 194.104C414.996 193.336 414.628 192.237 414.628 190.808C414.628 190.125 414.724 189.512 414.916 188.968C415.118 188.413 415.401 187.949 415.764 187.576C416.137 187.192 416.585 186.899 417.108 186.696C417.63 186.493 418.212 186.392 418.852 186.392C419.502 186.392 420.089 186.493 420.612 186.696C421.134 186.899 421.577 187.192 421.94 187.576C422.313 187.949 422.596 188.413 422.788 188.968C422.98 189.512 423.076 190.125 423.076 190.808C423.076 191.501 422.974 192.125 422.772 192.68C422.58 193.224 422.297 193.688 421.924 194.072C421.561 194.456 421.118 194.749 420.596 194.952C420.073 195.155 419.492 195.256 418.852 195.256ZM418.852 193.464C419.492 193.464 419.966 193.235 420.276 192.776C420.596 192.317 420.756 191.661 420.756 190.808C420.756 189.955 420.596 189.304 420.276 188.856C419.966 188.408 419.492 188.184 418.852 188.184C418.212 188.184 417.732 188.408 417.412 188.856C417.102 189.304 416.948 189.955 416.948 190.808C416.948 191.672 417.102 192.333 417.412 192.792C417.721 193.24 418.201 193.464 418.852 193.464ZM424.375 186.648H426.615V191.864C426.615 192.461 426.722 192.867 426.935 193.08C427.148 193.283 427.442 193.384 427.815 193.384C428.103 193.384 428.338 193.341 428.519 193.256C428.711 193.171 428.892 193.048 429.063 192.888C429.234 192.739 429.367 192.563 429.463 192.36C429.57 192.147 429.623 191.917 429.623 191.672V186.648H431.863V195H429.687V193.848C429.346 194.339 428.956 194.696 428.519 194.92C428.092 195.144 427.634 195.256 427.143 195.256C426.194 195.256 425.495 195.011 425.047 194.52C424.599 194.019 424.375 193.235 424.375 192.168V186.648ZM433.526 186.648H435.702V187.8C436.032 187.309 436.422 186.952 436.87 186.728C437.328 186.504 437.803 186.392 438.294 186.392C439.243 186.392 439.947 186.643 440.406 187.144C440.864 187.635 441.094 188.413 441.094 189.48V195H438.854V189.784C438.854 189.197 438.742 188.797 438.518 188.584C438.294 188.371 437.995 188.264 437.622 188.264C437.334 188.264 437.083 188.307 436.87 188.392C436.667 188.477 436.475 188.6 436.294 188.76C436.144 188.909 436.016 189.091 435.91 189.304C435.814 189.507 435.766 189.731 435.766 189.976V195H433.526V186.648ZM448.466 193.896C447.826 194.803 446.962 195.256 445.874 195.256C444.701 195.256 443.826 194.861 443.25 194.072C442.674 193.283 442.386 192.189 442.386 190.792C442.386 190.141 442.466 189.549 442.626 189.016C442.797 188.472 443.037 188.008 443.346 187.624C443.656 187.229 444.034 186.925 444.482 186.712C444.93 186.499 445.437 186.392 446.002 186.392C446.418 186.392 446.829 186.467 447.234 186.616C447.65 186.765 448.04 187.053 448.402 187.48V183.576H450.642V195H448.466V193.896ZM448.418 190.728C448.418 190.195 448.37 189.768 448.274 189.448C448.189 189.128 448.045 188.867 447.842 188.664C447.65 188.472 447.437 188.349 447.202 188.296C446.978 188.232 446.754 188.2 446.53 188.2C446.285 188.2 446.05 188.248 445.826 188.344C445.613 188.44 445.421 188.589 445.25 188.792C445.09 188.995 444.962 189.261 444.866 189.592C444.77 189.923 444.722 190.317 444.722 190.776C444.722 191.277 444.765 191.699 444.85 192.04C444.946 192.371 445.074 192.643 445.234 192.856C445.394 193.059 445.581 193.208 445.794 193.304C446.008 193.389 446.237 193.432 446.482 193.432C447.016 193.432 447.453 193.277 447.794 192.968C448.008 192.755 448.162 192.499 448.258 192.2C448.365 191.891 448.418 191.496 448.418 191.016V190.728ZM453.924 192.344C453.998 192.835 454.196 193.155 454.516 193.304C454.836 193.453 455.22 193.528 455.668 193.528C456.201 193.528 456.58 193.464 456.804 193.336C457.038 193.197 457.156 192.979 457.156 192.68C457.156 192.467 457.081 192.28 456.932 192.12C456.793 191.96 456.521 191.848 456.116 191.784L454.964 191.592C453.95 191.432 453.193 191.16 452.692 190.776C452.201 190.381 451.956 189.789 451.956 189C451.956 188.595 452.041 188.232 452.212 187.912C452.393 187.592 452.644 187.32 452.964 187.096C453.284 186.872 453.662 186.701 454.1 186.584C454.548 186.456 455.038 186.392 455.572 186.392C456.233 186.392 456.788 186.461 457.236 186.6C457.684 186.728 458.046 186.904 458.324 187.128C458.612 187.352 458.825 187.619 458.964 187.928C459.113 188.237 459.22 188.568 459.284 188.92L457.284 189.176C457.188 188.792 457.017 188.509 456.772 188.328C456.537 188.147 456.153 188.056 455.62 188.056C455.321 188.056 455.07 188.083 454.868 188.136C454.676 188.179 454.521 188.237 454.404 188.312C454.297 188.387 454.217 188.472 454.164 188.568C454.121 188.664 454.1 188.755 454.1 188.84C454.1 189.107 454.18 189.304 454.34 189.432C454.51 189.549 454.836 189.651 455.316 189.736L456.372 189.912C456.958 190.008 457.444 190.131 457.828 190.28C458.212 190.429 458.516 190.616 458.74 190.84C458.974 191.053 459.134 191.309 459.22 191.608C459.316 191.907 459.364 192.253 459.364 192.648C459.364 193.437 459.065 194.072 458.468 194.552C457.87 195.021 456.948 195.256 455.7 195.256C455.198 195.256 454.718 195.208 454.26 195.112C453.812 195.027 453.406 194.872 453.044 194.648C452.692 194.424 452.398 194.125 452.164 193.752C451.94 193.379 451.812 192.909 451.78 192.344H453.924ZM471.28 186.728V195H469.92V193.816C469.579 194.275 469.184 194.632 468.736 194.888C468.288 195.133 467.76 195.256 467.152 195.256C466.341 195.256 465.675 195.064 465.152 194.68C464.64 194.296 464.256 193.773 464 193.112C463.755 192.451 463.632 191.715 463.632 190.904C463.632 189.528 463.957 188.445 464.608 187.656C465.269 186.867 466.171 186.472 467.312 186.472C467.749 186.472 468.197 186.568 468.656 186.76C469.115 186.941 469.536 187.277 469.92 187.768V186.728H471.28ZM469.936 190.616C469.936 189.955 469.861 189.443 469.712 189.08C469.573 188.707 469.339 188.392 469.008 188.136C468.773 187.944 468.533 187.811 468.288 187.736C468.053 187.661 467.792 187.624 467.504 187.624C467.056 187.624 466.645 187.731 466.272 187.944C465.909 188.157 465.621 188.504 465.408 188.984C465.195 189.453 465.088 190.083 465.088 190.872C465.088 191.683 465.2 192.323 465.424 192.792C465.648 193.261 465.936 193.597 466.288 193.8C466.64 193.992 467.008 194.088 467.392 194.088C467.701 194.088 467.979 194.056 468.224 193.992C468.469 193.917 468.715 193.784 468.96 193.592C469.291 193.347 469.536 193.032 469.696 192.648C469.856 192.253 469.936 191.763 469.936 191.176V190.616ZM473.115 186.728H474.491V187.992C474.896 187.448 475.344 187.059 475.835 186.824C476.326 186.589 476.843 186.472 477.387 186.472C478.326 186.472 479.019 186.728 479.467 187.24C479.926 187.752 480.155 188.504 480.155 189.496V195H478.763V189.768C478.763 189 478.624 188.461 478.347 188.152C478.07 187.832 477.643 187.672 477.067 187.672C476.758 187.672 476.448 187.725 476.139 187.832C475.84 187.939 475.568 188.109 475.323 188.344C475.056 188.579 474.854 188.829 474.715 189.096C474.576 189.352 474.507 189.688 474.507 190.104V195H473.115V186.728ZM487.936 193.816C487.595 194.275 487.2 194.632 486.752 194.888C486.304 195.133 485.776 195.256 485.168 195.256C484.56 195.256 484.032 195.144 483.584 194.92C483.147 194.696 482.784 194.392 482.496 194.008C482.208 193.613 481.995 193.149 481.856 192.616C481.717 192.083 481.648 191.512 481.648 190.904C481.648 190.221 481.733 189.608 481.904 189.064C482.075 188.509 482.315 188.04 482.624 187.656C482.944 187.272 483.328 186.979 483.776 186.776C484.235 186.573 484.752 186.472 485.328 186.472C485.765 186.472 486.208 186.563 486.656 186.744C487.104 186.915 487.52 187.245 487.904 187.736V183.576H489.296V195H487.936V193.816ZM487.952 190.616C487.952 189.955 487.877 189.443 487.728 189.08C487.589 188.707 487.355 188.392 487.024 188.136C486.789 187.944 486.549 187.811 486.304 187.736C486.069 187.661 485.808 187.624 485.52 187.624C485.179 187.624 484.859 187.683 484.56 187.8C484.272 187.917 484.016 188.109 483.792 188.376C483.579 188.632 483.408 188.968 483.28 189.384C483.163 189.789 483.104 190.285 483.104 190.872C483.104 191.48 483.168 191.992 483.296 192.408C483.435 192.824 483.611 193.155 483.824 193.4C484.048 193.645 484.293 193.821 484.56 193.928C484.837 194.035 485.12 194.088 485.408 194.088C485.717 194.088 485.995 194.051 486.24 193.976C486.485 193.901 486.731 193.773 486.976 193.592C487.296 193.336 487.536 193.016 487.696 192.632C487.867 192.248 487.952 191.763 487.952 191.176V190.616ZM494.246 183.576H496.63V190.376C496.63 191.347 496.801 192.067 497.142 192.536C497.483 193.005 498.054 193.24 498.854 193.24C499.654 193.24 500.219 193.005 500.55 192.536C500.891 192.067 501.062 191.347 501.062 190.376V183.576H503.446V190.376C503.446 191.24 503.339 191.981 503.126 192.6C502.913 193.219 502.609 193.731 502.214 194.136C501.819 194.531 501.334 194.819 500.758 195C500.193 195.192 499.553 195.288 498.838 195.288C498.113 195.288 497.462 195.192 496.886 195C496.321 194.808 495.841 194.515 495.446 194.12C495.051 193.715 494.753 193.197 494.55 192.568C494.347 191.939 494.246 191.192 494.246 190.328V183.576ZM513.756 187.032C513.756 187.96 513.532 188.707 513.084 189.272C512.636 189.827 512.038 190.221 511.292 190.456L514.444 195H511.772L508.86 190.712H507.596V195H505.244V183.576H509.292C510.188 183.576 510.924 183.683 511.5 183.896C512.086 184.099 512.54 184.371 512.86 184.712C513.19 185.043 513.42 185.411 513.548 185.816C513.686 186.221 513.756 186.627 513.756 187.032ZM507.596 188.728H509.452C510.198 188.728 510.7 188.579 510.956 188.28C511.212 187.981 511.34 187.581 511.34 187.08C511.34 186.803 511.281 186.547 511.164 186.312C511.046 186.077 510.833 185.891 510.524 185.752C510.225 185.613 509.798 185.544 509.244 185.544H507.596V188.728ZM515.377 183.576H517.761V192.952H523.169L522.913 195H515.377V183.576ZM525.84 192.344C525.915 192.835 526.112 193.155 526.432 193.304C526.752 193.453 527.136 193.528 527.584 193.528C528.118 193.528 528.496 193.464 528.72 193.336C528.955 193.197 529.072 192.979 529.072 192.68C529.072 192.467 528.998 192.28 528.848 192.12C528.71 191.96 528.438 191.848 528.032 191.784L526.88 191.592C525.867 191.432 525.11 191.16 524.608 190.776C524.118 190.381 523.872 189.789 523.872 189C523.872 188.595 523.958 188.232 524.128 187.912C524.31 187.592 524.56 187.32 524.88 187.096C525.2 186.872 525.579 186.701 526.016 186.584C526.464 186.456 526.955 186.392 527.488 186.392C528.15 186.392 528.704 186.461 529.152 186.6C529.6 186.728 529.963 186.904 530.24 187.128C530.528 187.352 530.742 187.619 530.88 187.928C531.03 188.237 531.136 188.568 531.2 188.92L529.2 189.176C529.104 188.792 528.934 188.509 528.688 188.328C528.454 188.147 528.07 188.056 527.536 188.056C527.238 188.056 526.987 188.083 526.784 188.136C526.592 188.179 526.438 188.237 526.32 188.312C526.214 188.387 526.134 188.472 526.08 188.568C526.038 188.664 526.016 188.755 526.016 188.84C526.016 189.107 526.096 189.304 526.256 189.432C526.427 189.549 526.752 189.651 527.232 189.736L528.288 189.912C528.875 190.008 529.36 190.131 529.744 190.28C530.128 190.429 530.432 190.616 530.656 190.84C530.891 191.053 531.051 191.309 531.136 191.608C531.232 191.907 531.28 192.253 531.28 192.648C531.28 193.437 530.982 194.072 530.384 194.552C529.787 195.021 528.864 195.256 527.616 195.256C527.115 195.256 526.635 195.208 526.176 195.112C525.728 195.027 525.323 194.872 524.96 194.648C524.608 194.424 524.315 194.125 524.08 193.752C523.856 193.379 523.728 192.909 523.696 192.344H525.84ZM532.306 194.296C532.306 194.019 532.397 193.789 532.578 193.608C532.76 193.427 532.994 193.336 533.282 193.336C533.57 193.336 533.805 193.427 533.986 193.608C534.168 193.789 534.258 194.019 534.258 194.296C534.258 194.573 534.168 194.803 533.986 194.984C533.805 195.165 533.57 195.256 533.282 195.256C532.994 195.256 532.76 195.165 532.578 194.984C532.397 194.803 532.306 194.573 532.306 194.296Z" fill="#353535"/>
<path d="M127.704 6.864H129.912V17.208C129.912 18.984 130.24 20.312 130.896 21.192C131.568 22.072 132.672 22.512 134.208 22.512C135.76 22.512 136.856 22.072 137.496 21.192C138.136 20.296 138.456 18.968 138.456 17.208V6.864H140.664V17.208C140.664 18.488 140.512 19.584 140.208 20.496C139.92 21.392 139.496 22.136 138.936 22.728C138.392 23.32 137.712 23.752 136.896 24.024C136.096 24.296 135.192 24.432 134.184 24.432C132.12 24.432 130.52 23.856 129.384 22.704C128.264 21.552 127.704 19.688 127.704 17.112V6.864ZM144.735 6.864H146.823V24H144.735V6.864ZM153.606 20.52C153.606 21.128 153.742 21.616 154.014 21.984C154.286 22.352 154.702 22.536 155.262 22.536C155.614 22.536 155.918 22.512 156.174 22.464C156.446 22.4 156.694 22.328 156.918 22.248L157.278 23.88C156.958 23.992 156.606 24.08 156.222 24.144C155.854 24.224 155.414 24.264 154.902 24.264C153.974 24.264 153.262 24.08 152.766 23.712C152.286 23.344 151.958 22.84 151.782 22.2C151.606 21.544 151.518 20.8 151.518 19.968V13.248H149.598V11.64H150.678C151.094 11.64 151.35 11.576 151.446 11.448C151.558 11.32 151.614 11.056 151.614 10.656V8.208H153.606V11.592H156.894V13.248H153.606V20.52ZM159.526 8.112C159.526 7.712 159.662 7.384 159.934 7.128C160.206 6.856 160.534 6.72 160.918 6.72C161.334 6.72 161.67 6.848 161.926 7.104C162.182 7.36 162.31 7.696 162.31 8.112C162.31 8.512 162.182 8.848 161.926 9.12C161.67 9.376 161.334 9.504 160.918 9.504C160.518 9.504 160.182 9.376 159.91 9.12C159.654 8.848 159.526 8.512 159.526 8.112ZM159.886 24V11.592H161.974V24H159.886ZM165.949 11.592H168.013V13.488C168.573 12.72 169.189 12.152 169.861 11.784C170.533 11.4 171.221 11.208 171.925 11.208C172.853 11.208 173.597 11.408 174.157 11.808C174.733 12.208 175.157 12.784 175.429 13.536C175.989 12.768 176.629 12.192 177.349 11.808C178.069 11.408 178.837 11.208 179.653 11.208C180.869 11.208 181.805 11.544 182.461 12.216C183.133 12.872 183.469 13.936 183.469 15.408V24H181.381V15.888C181.381 15.328 181.333 14.864 181.237 14.496C181.141 14.112 180.997 13.816 180.805 13.608C180.629 13.384 180.405 13.232 180.133 13.152C179.861 13.056 179.549 13.008 179.197 13.008C178.829 13.008 178.445 13.072 178.045 13.2C177.645 13.328 177.253 13.552 176.869 13.872C176.549 14.144 176.285 14.472 176.077 14.856C175.869 15.24 175.765 15.68 175.765 16.176V24H173.677V15.912C173.677 14.824 173.485 14.072 173.101 13.656C172.733 13.224 172.197 13.008 171.493 13.008C170.677 13.008 169.909 13.344 169.189 14.016C168.917 14.272 168.653 14.6 168.397 15C168.157 15.4 168.037 15.936 168.037 16.608V24H165.949V11.592ZM198.405 11.592V24H196.365V22.224C195.853 22.912 195.261 23.448 194.589 23.832C193.917 24.2 193.125 24.384 192.213 24.384C190.997 24.384 189.997 24.096 189.213 23.52C188.445 22.944 187.869 22.16 187.485 21.168C187.117 20.176 186.933 19.072 186.933 17.856C186.933 15.792 187.421 14.168 188.397 12.984C189.389 11.8 190.741 11.208 192.453 11.208C193.109 11.208 193.781 11.352 194.469 11.64C195.157 11.912 195.789 12.416 196.365 13.152V11.592H198.405ZM196.389 17.424C196.389 16.432 196.277 15.664 196.053 15.12C195.845 14.56 195.493 14.088 194.997 13.704C194.645 13.416 194.285 13.216 193.917 13.104C193.565 12.992 193.173 12.936 192.741 12.936C192.069 12.936 191.453 13.096 190.893 13.416C190.349 13.736 189.917 14.256 189.597 14.976C189.277 15.68 189.117 16.624 189.117 17.808C189.117 19.024 189.285 19.984 189.621 20.688C189.957 21.392 190.389 21.896 190.917 22.2C191.445 22.488 191.997 22.632 192.573 22.632C193.037 22.632 193.453 22.584 193.821 22.488C194.189 22.376 194.557 22.176 194.925 21.888C195.421 21.52 195.789 21.048 196.029 20.472C196.269 19.88 196.389 19.144 196.389 18.264V17.424ZM205.166 20.52C205.166 21.128 205.302 21.616 205.574 21.984C205.846 22.352 206.262 22.536 206.822 22.536C207.174 22.536 207.478 22.512 207.734 22.464C208.006 22.4 208.254 22.328 208.478 22.248L208.838 23.88C208.518 23.992 208.166 24.08 207.782 24.144C207.414 24.224 206.974 24.264 206.462 24.264C205.534 24.264 204.822 24.08 204.326 23.712C203.846 23.344 203.518 22.84 203.342 22.2C203.166 21.544 203.078 20.8 203.078 19.968V13.248H201.158V11.64H202.238C202.654 11.64 202.91 11.576 203.006 11.448C203.118 11.32 203.174 11.056 203.174 10.656V8.208H205.166V11.592H208.454V13.248H205.166V20.52ZM221.774 20.52C221.566 21.72 221.03 22.664 220.166 23.352C219.318 24.04 218.094 24.384 216.494 24.384C214.606 24.384 213.158 23.816 212.15 22.68C211.142 21.528 210.638 19.928 210.638 17.88C210.638 16.808 210.782 15.856 211.07 15.024C211.358 14.192 211.758 13.496 212.27 12.936C212.798 12.376 213.422 11.952 214.142 11.664C214.862 11.36 215.646 11.208 216.494 11.208C217.454 11.208 218.278 11.36 218.966 11.664C219.654 11.968 220.214 12.392 220.646 12.936C221.094 13.464 221.422 14.096 221.63 14.832C221.854 15.568 221.966 16.376 221.966 17.256V18.312H212.75C212.75 18.936 212.83 19.52 212.99 20.064C213.166 20.592 213.406 21.056 213.71 21.456C214.03 21.84 214.422 22.144 214.886 22.368C215.35 22.592 215.886 22.704 216.494 22.704C217.534 22.704 218.294 22.512 218.774 22.128C219.254 21.728 219.582 21.192 219.758 20.52H221.774ZM219.878 16.752C219.878 16.16 219.814 15.624 219.686 15.144C219.558 14.664 219.358 14.256 219.086 13.92C218.814 13.568 218.462 13.296 218.03 13.104C217.598 12.912 217.078 12.816 216.47 12.816C215.366 12.816 214.502 13.152 213.878 13.824C213.27 14.496 212.91 15.472 212.798 16.752H219.878Z" fill="#3767EA"/>
<path d="M24.8723 7.68018C23.9415 8.60952 23.6553 9.10854 22.9872 10.5137L16.8085 24.0003L12.4362 14.5483L8.11595 24.0003L1.88617 10.5137C1.24149 9.10854 0.957446 8.65498 0 7.68018H7.90106C7.60952 7.90291 7.37598 8.18648 7.2186 8.50884C7.06122 8.83119 6.98423 9.18367 6.99361 9.53887C6.99361 10.0833 7.08936 10.4682 7.4 11.1713L9.76276 16.5251L11.5053 12.536L10.5319 10.3773C9.95957 9.13077 9.55319 8.35698 8.98085 7.68018H16.8819C16.1181 8.15596 15.7362 8.76812 15.7362 9.53887C15.7362 10.0833 15.8308 10.4682 16.1415 11.1713L18.5521 16.5251L20.9394 11.1763C21.25 10.4692 21.3649 10.0884 21.3649 9.56615C21.3649 8.88631 20.8638 8.07111 20.2904 7.68523L24.8723 7.68018Z" fill="#161616"/>
<path d="M33.0851 19.693C32.3212 22.8437 30.484 23.8862 27.8106 23.8862C24.7553 23.8862 21.8904 21.779 21.8904 17.8121C21.8904 14.0038 24.4202 11.3066 27.7414 11.3066C29.9138 11.3066 32.9691 12.3724 32.9691 16.8625H25.7553C26.2563 19.2647 27.9031 20.5112 30.1946 20.5112C31.3648 20.5092 32.1765 20.3052 33.0851 19.693ZM25.6117 15.2958V15.5867H28.7627C28.7627 13.3199 28.2372 12.6178 27.2351 12.6178C26.2085 12.6219 25.6117 13.5957 25.6117 15.2958Z" fill="#161616"/>
<path d="M47.5532 11.7821C45.5713 9.9921 43.6171 9.06275 42.1107 9.06275V19.0633C42.1107 21.0837 42.6596 22.3049 44.116 23.5515H35.0884C36.5447 22.3049 37.0937 21.0806 37.0937 19.0633V9.06275C35.5894 9.06275 33.5373 9.9921 31.6511 11.7821L32.6064 7C33.2501 7.47579 34.4437 7.67984 35.7809 7.67984H43.4192C44.7564 7.67984 45.949 7.47781 46.5937 7L47.5532 11.7821Z" fill="#161616"/>
<path d="M53.0383 23.5468H45.4479C46.3787 22.5043 46.784 21.8245 46.784 20.1699V16.4959C46.784 15.2039 46.5936 14.5917 45.6862 13.7978L45.1606 13.3452L50.8904 11.3047V14.1402C51.4394 12.5078 52.2979 11.3067 53.7064 11.3067C54.8521 11.3067 55.5926 12.0775 55.5926 13.2109C55.5926 14.4119 54.8043 15.2504 53.7064 15.2504C53.4681 14.7291 52.8947 14.4806 52.3702 14.4806C51.9447 14.4806 51.534 14.5938 51.3191 14.7978V20.0315C51.3191 21.779 51.6298 22.2538 53.0383 23.5468Z" fill="#161616"/>
<path d="M68.7234 21.4618C68.4372 22.8891 67.1957 23.8862 65.501 23.8862C64.0691 23.8862 62.9712 23.071 62.6372 22.1416C61.9148 23.3649 60.5808 23.8862 59.1489 23.8862C57.167 23.8862 55.8308 22.6396 55.8308 20.9395C55.8308 18.9455 57.3351 17.5626 60.7957 16.7696L62.3914 16.4069V14.3664C62.3914 13.0977 61.9383 12.5764 61.1266 12.5764C60.3627 12.5764 59.8617 13.0522 59.8617 13.7098C59.8617 14.2765 60.1478 14.6392 60.6489 15.0917C60.6489 15.817 59.4553 16.5655 58.2148 16.5655C57.9405 16.5712 57.6678 16.524 57.4132 16.427C57.1586 16.3299 56.9272 16.1848 56.7332 16.0006C56.5392 15.8163 56.3865 15.5967 56.2842 15.3549C56.182 15.1131 56.1323 14.8542 56.1383 14.5937C56.1383 12.6673 58.3819 11.3066 61.6702 11.3066C65.1074 11.3066 66.9223 12.6896 66.9223 15.7716V20.6456C66.9223 21.2577 67.3042 21.6648 67.901 21.6648C68.267 21.6648 68.5297 21.5971 68.7234 21.4618ZM62.3978 21.1214V17.4717L62.0883 17.5626C61.0617 17.8575 60.3691 18.4919 60.3691 19.7617C60.3691 20.8496 60.8223 21.5062 61.5627 21.5062C61.9414 21.5062 62.2521 21.3931 62.3946 21.1214H62.3978Z" fill="#161616"/>
<path d="M75.1892 23.5468H68.7679C69.436 22.9347 69.8658 22.0316 69.8658 20.1699V16.4959C69.8658 15.2484 69.6987 14.614 68.9083 13.9119L68.3594 13.4351L74.2785 11.3047V13.0725C74.9711 11.9845 76.4275 11.3047 77.8828 11.3047C80.1743 11.3047 81.4402 12.4835 81.4402 14.5918V20.9406C81.4402 22.2326 81.7977 23.0266 82.3711 23.5478H76.12C76.7402 22.9811 76.9072 22.2104 76.9072 21.5982V15.115C76.9072 14.1624 76.5732 13.6866 75.6423 13.6866C75.4141 13.6808 75.187 13.7179 74.9739 13.7957C74.7609 13.8736 74.5661 13.9906 74.4009 14.1402V21.5972C74.4009 22.2094 74.5679 22.9609 75.1892 23.5468Z" fill="#161616"/>
<path d="M83.5435 22.8891V19.0132C85.2616 21.1436 87.0542 22.3224 88.7233 22.3224C89.534 22.3224 89.9159 21.9184 89.9159 21.3476C89.9159 20.8042 89.6063 20.487 89.0574 20.2829L86.2914 19.3081C84.1637 18.5596 83.2063 17.3131 83.2063 15.4544C83.2063 13.0522 85.2829 11.3066 88.2435 11.3066C89.8393 11.3066 91.6095 11.738 92.4925 12.3491V15.6584C91.3946 13.823 89.6042 12.8027 87.8616 12.8027C86.9786 12.8027 86.5244 13.0744 86.5244 13.5957C86.5244 14.1169 86.8584 14.321 87.5988 14.6159L90.8712 15.8897C92.518 16.5241 93.2584 17.8616 93.2584 19.4708C93.2584 22.1224 91.2297 23.8902 88.1733 23.8902C86.5713 23.8843 84.9903 23.5424 83.5435 22.8891Z" fill="#161616"/>
<path d="M93.735 12.7801L95.118 10.7598C96.886 8.22431 98.2977 7 100.682 7C102.543 7 103.737 7.77075 103.737 8.92638C103.737 9.92442 102.878 10.6497 101.064 10.6497C101.064 9.24357 100.228 8.72232 99.3924 8.72232C98.5573 8.72232 97.9126 9.28902 97.9126 10.2184C97.9126 10.8528 98.2701 11.4881 99.3679 11.6467H102.021L101.064 12.7801H99.4403V19.5119C99.4403 20.7806 99.6531 21.914 101.036 23.0706L101.609 23.5464H93.3765C94.3339 22.6373 94.9041 21.5261 94.9041 19.8967V12.7801H93.735Z" fill="#161616"/>
<path d="M112.447 19.693C111.683 22.8437 109.845 23.8862 107.171 23.8862C104.116 23.8862 101.252 21.779 101.252 17.8121C101.252 14.0038 103.782 11.3066 107.103 11.3066C109.275 11.3066 112.331 12.3724 112.331 16.8625H105.121C105.622 19.2647 107.269 20.5112 109.56 20.5112C110.731 20.5092 111.542 20.3052 112.447 19.693ZM104.977 15.2958V15.5867H108.129C108.129 13.3199 107.603 12.6178 106.601 12.6178C105.574 12.6219 104.977 13.5957 104.977 15.2958Z" fill="#161616"/>
<path d="M120.446 23.5468H112.854C113.785 22.5043 114.192 21.8244 114.192 20.1698V16.4958C114.192 15.2038 114 14.5917 113.094 13.7977L112.568 13.3451L118.298 11.3066V14.1401C118.847 12.5077 119.706 11.3066 121.115 11.3066C122.261 11.3066 123 12.0774 123 13.2108C123 14.4119 122.213 15.2503 121.115 15.2503C120.876 14.7291 120.303 14.4806 119.778 14.4806C119.352 14.4806 118.943 14.5937 118.728 14.7978V20.0314C118.723 21.779 119.043 22.2538 120.446 23.5468Z" fill="#161616"/>
</svg>