<svg width="200" height="67" viewBox="0 0 200 67" fill="none" xmlns="http://www.w3.org/2000/svg">
<path d="M2.8431 7.82935C1.87473 3.95881 1.1735 2.41871 0 0.747283V0.658936H6.99327V0.747283C6.35644 2.11069 6.12269 4.74915 6.92649 8.04902L11.2412 25.8616L16.4146 8.75341L16.1475 7.82935C15.0766 3.95881 14.4779 2.41871 13.3044 0.747283V0.658936H20.2977V0.747283C19.761 2.02234 19.3269 4.74915 20.2309 8.04902L24.9129 25.5106L28.7292 10.2052C29.9671 5.14552 29.3636 2.15606 28.6624 0.747283V0.658936H32.6027V0.747283C31.0309 2.89626 30.6946 4.97121 29.8001 8.75341L23.7442 33.2088H23.074L16.7509 10.0285L9.79106 33.2088H9.12322L2.8431 7.82935Z" fill="#161616"/>
<path d="M34.3389 32.8554V32.767C35.2094 30.1405 35.6435 28.3258 35.6435 25.4223V8.092C35.6435 5.14552 35.2094 3.43112 34.3389 0.747283V0.658936H49.7971L51.1017 8.48837L50.8322 8.6197C49.06 6.15793 46.651 1.75969 45.1794 1.62836L39.5242 1.32034V16.1865H42.4007C44.0417 16.1865 45.3797 13.24 46.5509 11.5686H46.8514V21.5088H46.5509C45.4799 19.9687 44.0083 17.0652 42.4007 17.0652H39.5242V32.1964L45.4871 31.8883C48.23 31.757 50.806 27.4017 52.6807 24.0088L52.9478 24.1401L51.4762 32.8482L34.3389 32.8554Z" fill="#161616"/>
<path d="M56.2512 24.8947V8.61978C56.2512 5.05726 55.984 3.4312 54.9131 0.740202V0.651855H62.8103C70.1375 0.651855 72.2794 4.83042 72.2794 9.53668C72.2794 15.3867 68.8662 19.6536 62.3071 19.6536H60.1008V24.8875C60.1008 28.5384 60.3393 30.0331 61.4389 32.7671V32.8555H54.9131V32.7671C55.984 30.0857 56.2512 28.4572 56.2512 24.8947ZM61.3721 1.5401C61.0692 1.5401 60.6351 1.58308 60.1008 1.62845V18.7821H62.1735C66.5908 18.7821 68.3964 14.3384 68.3964 9.63219C68.3964 3.29987 65.62 1.5401 62.2403 1.5401H61.3721Z" fill="#161616"/>
<path d="M75.59 24.8947V8.61978C75.59 5.05726 75.3229 3.4312 74.252 0.740202V0.651855H82.7837C88.8396 0.651855 91.2486 3.73206 91.2486 8.34997C91.2486 12.0438 89.7412 15.0787 86.3972 16.4874L90.378 26.7428C91.7828 30.4367 92.5246 31.4037 94.2586 32.5474V32.8555H88.3697L82.3472 17.3351H79.4373V24.8995C79.4373 28.5503 79.6758 30.0451 80.7753 32.7791V32.8674H74.252V32.7791C75.3229 30.0857 75.59 28.4572 75.59 24.8947ZM81.0425 1.5401C80.6084 1.5401 80.0717 1.5401 79.4373 1.58308V16.4492H82.0466C86.2278 16.4492 87.3321 12.667 87.3321 8.31415C87.3321 4.30989 86.161 1.5401 82.0466 1.5401H81.0425Z" fill="#161616"/>
<path d="M96.1025 32.8554V32.767C96.9731 30.1405 97.4072 28.3258 97.4072 25.4223V8.092C97.4072 5.14552 96.9731 3.43112 96.1025 0.747283V0.658936H111.558L112.865 8.48837L112.596 8.6197C110.824 6.15793 108.415 1.75969 106.943 1.62836L101.288 1.32034V16.1865H104.164C105.805 16.1865 107.143 13.24 108.315 11.5686H108.615V21.5088H108.315C107.244 19.9687 105.772 17.0652 104.164 17.0652H101.288V32.1964L107.251 31.8883C109.994 31.757 112.093 28.8344 113.967 25.4414L114.235 25.5727L113.24 32.8482L96.1025 32.8554Z" fill="#161616"/>
<path d="M130.286 9.36953C127.944 2.85814 125.736 0.878692 123.369 0.878692C121.094 0.878692 119.723 2.81516 119.723 5.80701C119.723 9.98557 122.532 11.743 125.511 13.6341C128.824 15.7472 132.235 18.0347 132.235 24.1402C132.235 30.7375 128.18 33.5097 123.47 33.5097C121.072 33.4674 118.715 32.8803 116.577 31.7929L116.138 25.5728L116.405 25.4415C118.981 31.7762 121.352 32.6358 124.397 32.6358C127.443 32.6358 128.915 29.8206 128.915 26.6115C128.915 22.4329 126.506 20.3198 123.727 18.5624C120.25 16.3179 116.736 14.1188 116.736 8.40011C116.736 2.33045 120.45 0 124.464 0C126.354 0.0166218 128.216 0.452076 129.917 1.27506L130.587 9.23582L130.286 9.36953Z" fill="#161616"/>
<path d="M134.153 32.8554V32.767C135.024 30.1405 135.458 28.3258 135.458 25.4223V8.092C135.458 5.14552 135.024 3.43112 134.153 0.747283V0.658936H149.612L150.916 8.48837L150.649 8.6197C148.874 6.15793 146.465 1.75969 144.999 1.62836L139.343 1.32034V16.1865H142.222C143.861 16.1865 145.199 13.24 146.37 11.5686H146.668V21.5088H146.368C145.297 19.9687 143.825 17.0652 142.22 17.0652H139.339V32.1964L145.302 31.8883C148.044 31.757 150.623 27.4017 152.495 24.0088L152.762 24.1401L151.291 32.8482L134.153 32.8554Z" fill="#161616"/>
<path d="M157.107 24.1162C157.107 28.0727 157.544 29.7011 159.416 32.779V32.8673H154.264V32.779C155.934 29.7441 156.306 28.0297 156.306 24.1162V6.86231C156.139 3.95881 155.569 2.72673 153.694 0.747283V0.658936H159.049L173.067 25.6873L172.966 9.41243C172.966 5.49891 172.532 3.78211 170.927 0.747283V0.658936H175.745V0.747283C174.137 3.82748 173.703 5.45354 173.703 9.41243V32.8554L172.499 32.9891L156.974 5.29117L157.107 24.1162Z" fill="#161616"/>
<path d="M185.246 32.8554V32.767C186.317 30.0856 186.584 28.4691 186.584 24.8874V1.4063L182.937 1.583C181.465 1.71432 178.99 6.64264 177.282 9.85178L177.015 9.72045L178.286 0.658936H198.729L200 9.72045L199.733 9.85178C197.925 6.64264 195.583 1.71432 194.078 1.583L190.431 1.4063V24.8946C190.431 28.5455 190.67 30.0402 191.769 32.7742V32.8625L185.246 32.8554Z" fill="#161616"/>
<path d="M35.626 47.7854H37.4414V53.3826C37.8864 52.7997 38.4012 52.3488 38.9858 52.0301C39.5703 51.7113 40.2592 51.5518 41.0524 51.5514C41.8174 51.5514 42.4887 51.6904 43.0662 51.9685C43.6322 52.2373 44.1258 52.6367 44.506 53.1338C44.8886 53.6331 45.1739 54.2261 45.3617 54.9127C45.5495 55.5993 45.6434 56.3588 45.6434 57.1913C45.6434 58.079 45.5321 58.8804 45.3095 59.5955C45.0869 60.3105 44.7671 60.9174 44.35 61.4161C43.9388 61.9096 43.4207 62.3038 42.8347 62.5689C42.2442 62.8394 41.5799 62.9746 40.8418 62.9746C40.213 62.9741 39.5913 62.843 39.016 62.5897C38.4252 62.3333 37.8939 61.8928 37.422 61.2684V62.6422H35.626V47.7854ZM37.422 57.5649C37.422 58.2587 37.5019 58.8516 37.6616 59.3438C37.8214 59.8359 38.0406 60.2417 38.3193 60.5611C38.5881 60.8744 38.9323 61.1145 39.3196 61.259C39.7089 61.4048 40.1331 61.4776 40.5924 61.4776C41.0171 61.4815 41.4386 61.4038 41.8338 61.2487C42.2163 61.0965 42.5468 60.8502 42.8253 60.5101C43.1038 60.1699 43.3229 59.7294 43.4825 59.1887C43.6422 58.6479 43.7223 57.989 43.7226 57.2121C43.7226 56.4212 43.6356 55.7588 43.4616 55.225C43.2875 54.6911 43.0615 54.2646 42.7835 53.9453C42.5047 53.6264 42.1881 53.3974 41.8338 53.2584C41.4851 53.1209 41.1135 53.0503 40.7385 53.0504C40.2891 53.0461 39.8429 53.1273 39.424 53.2896C39.0251 53.446 38.6654 53.6875 38.3702 53.9973C38.0709 54.3081 37.8378 54.7031 37.671 55.1823C37.5042 55.6615 37.4212 56.2129 37.422 56.8365V57.5649Z" fill="#161616"/>
<path d="M56.711 51.8848L50.4923 66.678H48.6136L50.5543 62.3708L46.0889 51.8848H48.1964L51.4516 60.2504L54.7069 51.8848H56.711Z" fill="#161616"/>
<path d="M61.5508 47.7854H63.721L66.8304 59.9993L70.0647 47.8477H72.1313L75.345 59.9993L78.4325 47.7854H80.4775L76.3456 62.6417H74.3215L71.0038 50.2193L67.7483 62.6417H65.7869L61.5508 47.7854Z" fill="#161616"/>
<path d="M90.2663 59.6248C90.0859 60.6651 89.6233 61.4835 88.8787 62.08C88.134 62.6765 87.0663 62.9747 85.6756 62.9747C84.0338 62.9747 82.7747 62.4788 81.8985 61.487C81.0223 60.4953 80.5841 59.1116 80.584 57.3361C80.584 56.4068 80.7092 55.5813 80.9597 54.8598C81.2101 54.1382 81.5614 53.5348 82.0134 53.0497C82.4643 52.5652 83.0164 52.1853 83.6306 51.9367C84.2567 51.6801 84.9383 51.5518 85.6756 51.5518C86.5103 51.5518 87.2267 51.6836 87.8249 51.9472C88.4231 52.2109 88.9135 52.5749 89.296 53.0394C89.6785 53.5042 89.9637 54.0557 90.1517 54.6937C90.3396 55.3317 90.4335 56.0319 90.4334 56.7942V57.7095H82.4213C82.4213 58.2503 82.4943 58.7532 82.6403 59.218C82.7863 59.6828 82.995 60.0852 83.2665 60.425C83.5381 60.7654 83.8843 61.0394 84.2784 61.226C84.6819 61.4205 85.148 61.5176 85.6766 61.5175C86.5808 61.5175 87.2416 61.3474 87.6589 61.0074C88.0761 60.6674 88.3614 60.2062 88.5146 59.6238L90.2663 59.6248ZM88.6179 56.358C88.6179 55.8449 88.5623 55.3803 88.4511 54.964C88.3399 54.5478 88.1659 54.1905 87.9293 53.8922C87.6926 53.5942 87.3865 53.3619 87.0111 53.1952C86.6356 53.0285 86.1835 52.9453 85.6547 52.9455C84.695 52.9455 83.9473 53.2368 83.4116 53.8196C82.8759 54.4023 82.5595 55.2484 82.4622 56.358H88.6179Z" fill="#161616"/>
<path d="M93.78 49.4914H88.8555V47.7854H100.645V49.4914H95.7207V62.641H93.78V49.4914Z" fill="#161616"/>
<path d="M99.3169 51.8845H101.111V53.549C101.515 52.9529 101.988 52.4949 102.53 52.1752C103.073 51.8554 103.65 51.6959 104.262 51.6965C104.638 51.6965 104.958 51.7243 105.222 51.7799L104.992 53.4653C104.853 53.4379 104.714 53.4133 104.574 53.3917C104.422 53.37 104.268 53.3596 104.115 53.3606C103.767 53.3631 103.421 53.4229 103.092 53.5375C102.744 53.6556 102.417 53.8532 102.112 54.1304C101.813 54.3847 101.568 54.696 101.392 55.046C101.218 55.3929 101.131 55.7951 101.131 56.2528V62.6418H99.3154L99.3169 51.8845Z" fill="#161616"/>
<path d="M115.867 51.8847V62.642H114.093V61.1024C113.648 61.699 113.133 62.1602 112.549 62.486C111.965 62.8118 111.276 62.9748 110.482 62.9749C109.425 62.9749 108.559 62.7253 107.884 62.226C107.21 61.7266 106.709 61.0469 106.382 60.1868C106.055 59.327 105.892 58.3702 105.892 57.3165C105.892 55.5269 106.319 54.1189 107.175 53.0924C108.031 52.066 109.203 51.5527 110.691 51.5527C111.261 51.5527 111.846 51.6741 112.444 51.9168C113.042 52.1595 113.592 52.6 114.092 53.2381V51.8847H115.867ZM114.114 56.9416C114.114 56.0816 114.02 55.4123 113.832 54.9336C113.644 54.4549 113.335 54.0489 112.904 53.7158C112.598 53.466 112.289 53.2926 111.976 53.1954C111.641 53.0953 111.292 53.0463 110.942 53.05C110.358 53.05 109.826 53.189 109.346 53.467C108.866 53.7451 108.487 54.1918 108.209 54.8073C107.93 55.4245 107.79 56.2463 107.79 57.2728C107.79 58.3272 107.936 59.1595 108.228 59.7697C108.52 60.38 108.896 60.8134 109.355 61.07C109.815 61.3268 110.295 61.4551 110.795 61.4549C111.198 61.4549 111.56 61.4098 111.88 61.3197C112.2 61.2296 112.52 61.0597 112.84 60.8099C113.268 60.4938 113.601 60.0652 113.799 59.5718C114.008 59.0657 114.112 58.4312 114.112 57.668L114.114 56.9416Z" fill="#161616"/>
<path d="M117.927 51.8844H119.722V53.5281C120.25 52.8208 120.834 52.3148 121.474 52.0103C122.106 51.7071 122.798 51.5506 123.498 51.5525C124.722 51.5525 125.63 51.8854 126.221 52.5512C126.813 53.2171 127.108 54.195 127.108 55.4851V62.6418H125.293V55.8374C125.293 54.8388 125.112 54.1347 124.75 53.7254C124.389 53.316 123.832 53.1116 123.081 53.1121C122.672 53.113 122.266 53.1834 121.881 53.3201C121.479 53.4624 121.113 53.6895 120.807 53.9859C120.459 54.2911 120.194 54.6136 120.014 54.9535C119.833 55.2933 119.743 55.7338 119.743 56.2748V62.6418H117.927L117.927 51.8844Z" fill="#161616"/>
<path d="M130.588 59.5001C130.713 60.2492 131.029 60.7726 131.537 61.0702C132.045 61.3679 132.737 61.5171 133.614 61.5177C134.532 61.5177 135.182 61.3616 135.565 61.0494C135.947 60.7372 136.138 60.3247 136.137 59.8119C136.138 59.6119 136.113 59.4126 136.064 59.2187C136.014 59.0309 135.917 58.859 135.782 58.7195C135.642 58.5738 135.448 58.4454 135.198 58.3343C134.947 58.2233 134.62 58.1333 134.217 58.0645L132.839 57.8564C132.227 57.7595 131.691 57.6346 131.232 57.4818C130.773 57.3291 130.384 57.1314 130.064 56.8889C129.753 56.6558 129.506 56.348 129.347 55.9942C129.187 55.6404 129.107 55.2138 129.107 54.7145C129.107 54.2152 129.215 53.7713 129.43 53.3829C129.65 52.9896 129.957 52.6516 130.328 52.3945C130.71 52.1239 131.162 51.9158 131.684 51.7701C132.206 51.6244 132.773 51.5516 133.385 51.5518C134.164 51.5518 134.814 51.6281 135.336 51.7806C135.858 51.9332 136.285 52.1413 136.619 52.4048C136.943 52.6561 137.207 52.976 137.391 53.3412C137.574 53.7057 137.714 54.0896 137.81 54.4856L136.161 54.7555C136.075 54.4888 135.963 54.231 135.827 53.9854C135.704 53.7663 135.533 53.5781 135.326 53.4349C135.117 53.2892 134.863 53.1782 134.563 53.102C134.263 53.0258 133.891 52.9876 133.446 52.9874C132.946 52.9874 132.528 53.0326 132.194 53.1228C131.86 53.2131 131.592 53.3344 131.391 53.4867C131.189 53.6397 131.046 53.8098 130.963 53.9967C130.88 54.1833 130.837 54.3854 130.838 54.5897C130.835 54.7904 130.863 54.9905 130.922 55.1826C130.981 55.3619 131.089 55.5209 131.235 55.6414C131.388 55.7734 131.596 55.8878 131.861 55.9848C132.125 56.0818 132.466 56.165 132.883 56.2343L134.448 56.4841C135.714 56.691 136.621 57.0514 137.171 57.5652C137.72 58.0791 137.995 58.8282 137.995 59.8124C137.995 60.2704 137.905 60.69 137.724 61.0712C137.544 61.4525 137.273 61.785 136.911 62.069C136.549 62.3532 136.096 62.5752 135.554 62.7348C135.012 62.8944 134.379 62.9741 133.655 62.974C133.001 62.974 132.393 62.9116 131.829 62.7868C131.266 62.662 130.769 62.4643 130.337 62.1938C129.908 61.9258 129.55 61.5581 129.294 61.1222C129.03 60.6785 128.877 60.1375 128.835 59.4992L130.588 59.5001Z" fill="#161616"/>
<path d="M140.703 50.9691C140.703 50.1924 140.849 49.5577 141.141 49.0651C141.433 48.5725 141.819 48.2084 142.299 47.9729C142.78 47.7371 143.319 47.6192 143.917 47.6192C144.224 47.6185 144.53 47.6358 144.835 47.6712C145.146 47.71 145.453 47.7762 145.753 47.8689L145.461 49.2837C145.254 49.2177 145.041 49.1724 144.825 49.1485C144.627 49.1279 144.429 49.1174 144.231 49.1171C143.744 49.1171 143.327 49.2455 142.979 49.5023C142.631 49.7591 142.457 50.2272 142.456 50.9066V51.8844H145.191V53.3201H142.456V62.6425H140.64V53.3201H138.95V51.9463H139.889C140.251 51.9463 140.477 51.8838 140.568 51.7588C140.658 51.6339 140.703 51.3706 140.703 50.9691Z" fill="#161616"/>
<path d="M155.628 59.6248C155.447 60.6651 154.985 61.4835 154.24 62.08C153.495 62.6765 152.428 62.9747 151.037 62.9747C149.395 62.9747 148.136 62.4788 147.26 61.487C146.384 60.4953 145.945 59.1116 145.945 57.3361C145.945 56.4068 146.071 55.5813 146.321 54.8598C146.571 54.1382 146.923 53.5348 147.375 53.0497C147.826 52.5651 148.378 52.1852 148.992 51.9367C149.618 51.6801 150.3 51.5518 151.037 51.5518C151.872 51.5518 152.588 51.6836 153.187 51.9472C153.785 52.2109 154.275 52.5749 154.658 53.0394C155.04 53.5042 155.325 54.0557 155.513 54.6937C155.701 55.3317 155.795 56.0319 155.795 56.7942V57.7095H147.782C147.782 58.2503 147.855 58.7532 148.001 59.218C148.147 59.6828 148.356 60.0852 148.627 60.425C148.899 60.7654 149.245 61.0394 149.639 61.226C150.042 61.4205 150.508 61.5176 151.037 61.5175C151.941 61.5175 152.602 61.3474 153.019 61.0074C153.437 60.6674 153.722 60.2062 153.875 59.6238L155.628 59.6248ZM153.979 56.358C153.979 55.8449 153.924 55.3803 153.813 54.964C153.701 54.5478 153.528 54.1905 153.291 53.8922C153.054 53.5942 152.748 53.3619 152.373 53.1952C151.998 53.0285 151.545 52.9453 151.017 52.9455C150.056 52.9455 149.309 53.2368 148.773 53.8196C148.238 54.4023 147.921 55.2484 147.824 56.358H153.979Z" fill="#161616"/>
<path d="M157.779 51.8845H159.574V53.549C159.977 52.9529 160.45 52.4949 160.993 52.1752C161.535 51.8554 162.113 51.6959 162.725 51.6965C163.1 51.6965 163.42 51.7243 163.684 51.7799L163.454 53.4653C163.315 53.4379 163.176 53.4133 163.036 53.3917C162.884 53.37 162.731 53.3596 162.577 53.3606C162.229 53.3631 161.883 53.4229 161.555 53.5375C161.207 53.6556 160.88 53.8532 160.574 54.1304C160.275 54.3852 160.031 54.6969 159.855 55.0472C159.681 55.3941 159.594 55.7964 159.594 56.254V62.6418H157.778L157.779 51.8845Z" fill="#161616"/>
</svg>