<svg width="540" height="199" viewBox="0 0 540 199" fill="none" xmlns="http://www.w3.org/2000/svg">
<path d="M13.248 105.096H13.032V122.736C13.032 126.192 13.752 127.848 16.776 129H5.148C8.172 127.848 8.892 126.192 8.892 122.736V105.096H8.676C4.32 105.096 2.556 106.032 0 109.848L1.332 102.972C2.088 103.584 3.312 103.8 4.788 103.8H17.136C18.576 103.8 19.8 103.584 20.592 102.972L21.924 109.848C19.332 106.032 17.568 105.096 13.248 105.096ZM33.5295 129C35.0055 128.244 35.5815 127.344 35.5815 124.86V116.796C35.5815 113.988 34.3935 112.512 32.1615 112.512C30.5055 112.512 29.2095 113.268 28.3095 114.744V124.86C28.3095 127.344 28.8135 128.172 30.3615 129H22.3695C24.0255 128.208 24.6015 127.308 24.6015 124.86V108.732C24.6015 106.572 23.9175 105.708 22.2975 105.42L28.3095 102.72V113.484C29.3535 111.576 31.3695 110.388 33.7455 110.388C37.2735 110.388 39.2895 112.512 39.2895 116.292V124.86C39.2895 127.344 39.8655 128.244 41.4135 129H33.5295ZM50.7035 110.388C55.0595 110.388 57.6875 113.556 57.5075 118.38H45.4115C45.5555 122.988 48.1475 125.868 52.2515 125.868C54.4475 125.868 56.1395 125.148 57.3635 123.708C56.7515 127.38 54.2675 129.54 50.7035 129.54C45.7355 129.54 42.5675 125.976 42.5675 120.216C42.5675 114.384 45.7715 110.388 50.7035 110.388ZM53.7275 117.156C53.8355 113.7 52.5035 111.756 50.1635 111.756C47.4275 111.756 45.6995 113.772 45.4475 117.156H53.7275ZM77.5724 129.612C71.5244 129.612 67.9964 126.048 67.9964 119.316V108.372C67.9964 105.924 67.1324 104.7 65.6564 103.8H75.1604C73.1084 104.7 72.3524 105.888 72.3524 108.372V119.1C72.3524 124.392 74.5484 127.164 78.7964 127.164C82.7204 127.164 84.8804 124.32 84.8804 118.956V109.092C84.8804 106.284 83.6204 104.7 81.3164 103.8H89.0564C87.4364 104.7 86.6444 106.284 86.6444 109.092V118.668C86.6444 125.976 83.6204 129.612 77.5724 129.612ZM90.2239 129C91.8799 128.208 92.4559 127.308 92.4559 124.86V108.732C92.4559 106.572 91.7359 105.708 90.1519 105.42L96.1639 102.72V124.86C96.1639 127.344 96.7399 128.244 98.3599 129H90.2239ZM108.011 127.2C109.055 127.2 109.919 126.804 110.639 125.94C109.991 128.352 108.443 129.54 106.103 129.54C103.511 129.54 101.783 128.136 101.783 125.004V112.08H99.335L105.491 106.176V110.928H109.667V112.08H105.491V124.176C105.491 126.084 106.355 127.2 108.011 127.2ZM115.171 108.3C113.803 108.3 112.795 107.256 112.795 105.96C112.795 104.592 113.803 103.584 115.171 103.584C116.539 103.584 117.583 104.628 117.583 105.96C117.583 107.256 116.539 108.3 115.171 108.3ZM113.515 124.86V116.22C113.515 114.024 112.903 113.124 111.319 112.764L117.223 110.532V124.824C117.223 127.236 117.799 128.208 119.455 129H111.319C113.011 128.172 113.515 127.2 113.515 124.86ZM141.417 129C143.037 128.136 143.469 127.2 143.469 124.86V116.256C143.469 113.808 142.389 112.512 140.409 112.512C138.897 112.512 137.853 113.232 136.989 114.816C137.025 115.176 137.061 115.608 137.061 116.04V124.86C137.061 127.236 137.529 128.172 139.113 129H131.301C132.885 128.136 133.353 127.2 133.353 124.86V116.328C133.353 113.844 132.273 112.512 130.293 112.512C128.889 112.512 127.773 113.268 126.909 114.744V124.86C126.909 127.236 127.377 128.172 128.961 129H121.005C122.697 128.172 123.201 127.2 123.201 124.86V116.22C123.201 114.024 122.589 113.124 121.005 112.728L126.873 110.532V113.556C127.845 111.576 129.681 110.388 131.841 110.388C134.469 110.388 136.161 111.576 136.773 113.808C137.817 111.612 139.725 110.388 141.957 110.388C145.377 110.388 147.213 112.368 147.213 116.04V124.86C147.213 127.236 147.645 128.172 149.265 129H141.417ZM166.715 127.272C167.255 127.272 167.723 127.128 168.191 126.732C167.939 128.424 166.607 129.54 164.807 129.54C162.899 129.54 161.531 128.46 161.279 126.228C160.343 128.244 158.255 129.54 156.023 129.54C152.999 129.54 151.091 127.812 151.091 125.22C151.091 122.34 153.071 120.432 157.319 119.46L161.243 118.596V116.148C161.243 112.692 160.343 111.468 157.895 111.468C156.203 111.468 154.943 112.44 154.943 113.772C154.943 114.816 155.339 115.464 156.167 116.112C156.059 117.3 155.195 118.164 153.791 118.164C152.351 118.164 151.415 117.048 151.415 115.5C151.415 112.62 154.367 110.388 158.291 110.388C162.683 110.388 164.951 112.44 164.951 116.544V125.148C164.951 126.588 165.527 127.272 166.715 127.272ZM157.787 127.308C159.335 127.308 160.379 126.66 161.243 125.112V119.676L158.831 120.288C156.239 120.936 154.943 122.124 154.943 124.284C154.943 126.156 156.023 127.308 157.787 127.308ZM177.061 127.2C178.105 127.2 178.969 126.804 179.689 125.94C179.041 128.352 177.493 129.54 175.153 129.54C172.561 129.54 170.833 128.136 170.833 125.004V112.08H168.385L174.541 106.176V110.928H178.717V112.08H174.541V124.176C174.541 126.084 175.405 127.2 177.061 127.2ZM188.153 110.388C192.509 110.388 195.137 113.556 194.957 118.38H182.861C183.005 122.988 185.597 125.868 189.701 125.868C191.897 125.868 193.589 125.148 194.813 123.708C194.201 127.38 191.717 129.54 188.153 129.54C183.185 129.54 180.017 125.976 180.017 120.216C180.017 114.384 183.221 110.388 188.153 110.388ZM191.177 117.156C191.285 113.7 189.953 111.756 187.613 111.756C184.877 111.756 183.149 113.772 182.897 117.156H191.177ZM225.105 110.928H230.397C229.497 111.612 228.921 112.512 228.165 114.42L222.153 129.432H221.937L216.573 116.832L211.497 129.432H211.317L204.837 114.168C204.081 112.296 203.289 111.36 202.533 110.928H210.561C209.373 111.36 208.833 112.044 208.833 112.944C208.833 113.376 208.941 113.916 209.229 114.636L212.613 123.132L215.817 114.996L215.457 114.168C214.665 112.296 213.909 111.36 213.009 110.928H221.289C219.957 111.36 219.417 112.044 219.417 112.944C219.417 113.376 219.489 113.916 219.813 114.636L223.197 123.132L226.509 114.852C226.833 114.024 226.977 113.52 226.977 112.944C226.977 111.936 226.221 111.288 225.105 110.928ZM246.365 127.272C246.905 127.272 247.373 127.128 247.841 126.732C247.589 128.424 246.257 129.54 244.457 129.54C242.549 129.54 241.181 128.46 240.929 126.228C239.993 128.244 237.905 129.54 235.673 129.54C232.649 129.54 230.741 127.812 230.741 125.22C230.741 122.34 232.721 120.432 236.969 119.46L240.893 118.596V116.148C240.893 112.692 239.993 111.468 237.545 111.468C235.853 111.468 234.593 112.44 234.593 113.772C234.593 114.816 234.989 115.464 235.817 116.112C235.709 117.3 234.845 118.164 233.441 118.164C232.001 118.164 231.065 117.048 231.065 115.5C231.065 112.62 234.017 110.388 237.941 110.388C242.333 110.388 244.601 112.44 244.601 116.544V125.148C244.601 126.588 245.177 127.272 246.365 127.272ZM237.437 127.308C238.985 127.308 240.029 126.66 240.893 125.112V119.676L238.481 120.288C235.889 120.936 234.593 122.124 234.593 124.284C234.593 126.156 235.673 127.308 237.437 127.308ZM258.486 110.928H264.138C263.022 111.684 262.518 112.476 261.726 114.6L255.822 130.656C254.274 134.94 252.582 136.74 249.918 136.74C248.01 136.74 246.642 135.66 246.642 133.932C246.642 132.492 247.65 131.448 248.982 131.304C249.27 132.78 250.278 133.572 251.538 133.572C253.05 133.572 254.13 132.348 254.13 130.512C254.13 129.864 253.986 129.144 253.662 128.208L248.226 114.492C247.506 112.728 246.498 111.36 245.562 110.928H253.914C252.834 111.324 252.294 112.08 252.294 113.088C252.294 113.7 252.546 114.6 252.87 115.464L256.434 124.896L259.602 116.22C260.07 114.996 260.286 114.096 260.286 113.448C260.286 112.296 259.71 111.504 258.486 110.928ZM280.126 127.2C281.17 127.2 282.034 126.804 282.754 125.94C282.106 128.352 280.558 129.54 278.218 129.54C275.626 129.54 273.898 128.136 273.898 125.004V112.08H271.45L277.606 106.176V110.928H281.782V112.08H277.606V124.176C277.606 126.084 278.47 127.2 280.126 127.2ZM291.903 129.54C286.395 129.54 283.083 125.508 283.083 119.964C283.083 114.456 286.395 110.388 291.903 110.388C297.411 110.388 300.759 114.456 300.759 119.964C300.759 125.508 297.411 129.54 291.903 129.54ZM291.903 128.316C294.963 128.316 296.583 125.148 296.583 119.964C296.583 114.78 294.963 111.612 291.903 111.612C288.879 111.612 287.223 114.78 287.223 119.964C287.223 125.148 288.879 128.316 291.903 128.316ZM10.224 165.72C6.804 165.72 3.42 164.82 1.044 163.272V156.036C4.536 160.824 7.776 163.164 10.944 163.164C12.996 163.164 14.328 162.228 14.328 160.644C14.328 159.024 13.428 158.016 11.628 157.332L6.372 155.352C2.988 154.092 0.9 151.104 0.9 147.504C0.9 142.608 4.968 139.08 10.584 139.08C13.896 139.08 16.272 139.692 18.612 141.132V148.044C16.092 143.796 13.14 141.672 9.792 141.672C7.776 141.672 6.624 142.536 6.624 144.12C6.624 145.524 7.488 146.316 9.468 147.108L14.724 149.232C18.504 150.78 20.34 153.192 20.34 156.648C20.34 162.012 16.2 165.72 10.224 165.72ZM26.6788 154.38C27.3628 157.764 29.7748 159.672 33.4108 159.672C35.2468 159.672 36.4348 159.348 37.7668 158.52C37.3348 162.876 34.5268 165.54 30.3508 165.54C24.6988 165.54 21.0628 162.012 21.0628 155.892C21.0628 149.952 24.5188 145.56 29.8828 145.56C34.9228 145.56 37.7668 148.98 37.7668 154.38H26.6788ZM29.0908 147.468C27.4348 147.468 26.4628 149.232 26.4628 152.256V152.364H31.4308C31.4308 148.872 30.7828 147.468 29.0908 147.468ZM49.3957 165C50.2597 163.992 50.5837 162.912 50.5837 160.968V151.608C50.5837 149.952 49.8997 149.124 48.6037 149.124C47.8837 149.124 47.2717 149.376 46.8037 149.808V160.968C46.8037 163.02 47.0557 163.848 47.9917 165H38.3077C39.5317 163.992 39.9637 162.948 39.9637 160.968V153.3C39.9637 150.816 39.5677 149.808 38.3077 148.944L46.6237 145.56V148.512C47.5237 146.784 49.6117 145.56 51.8437 145.56C55.4077 145.56 57.4237 147.684 57.4237 151.392V160.968C57.4237 162.84 57.8197 163.992 58.8277 165H49.3957ZM80.2159 165H71.6119V163.092C70.5679 164.64 68.8759 165.54 66.8599 165.54C62.5399 165.54 59.9119 162.192 59.9119 156.684C59.9119 150.06 63.4399 145.56 68.3359 145.56C69.7399 145.56 70.9279 145.92 71.6119 146.388C71.5759 143.904 70.8919 142.716 68.9479 141.636L78.4519 138.72V161.4C78.4519 163.452 78.8839 164.352 80.2159 165ZM70.4959 161.976C70.8919 161.976 71.2879 161.868 71.6119 161.688V147.972C71.3239 147.72 70.9999 147.612 70.5679 147.612C68.5879 147.612 67.1839 150.564 67.1839 155.028C67.1839 159.672 68.4079 161.976 70.4959 161.976ZM111.025 146.1H116.173C115.489 146.82 115.165 147.576 114.589 148.944L107.713 165.18H107.137L101.305 152.436L95.7608 165.18H95.2208L87.5168 148.044C87.0488 146.964 86.7608 146.604 86.3648 146.1H96.9848C96.1928 146.532 95.6528 147.216 95.6528 148.188C95.6528 148.584 95.7248 149.016 95.9408 149.52L97.9928 154.632L100.081 149.736L99.2888 148.044C98.7848 146.964 98.5328 146.604 98.1368 146.1H108.757C107.965 146.532 107.425 147.216 107.425 148.188C107.425 148.584 107.497 149.016 107.713 149.52L109.801 154.632L111.853 149.808C112.141 149.16 112.249 148.62 112.249 148.116C112.249 147.18 111.745 146.496 111.025 146.1ZM120.902 145.272C118.814 145.272 117.194 143.616 117.194 141.636C117.194 139.62 118.814 137.964 120.902 137.964C122.99 137.964 124.61 139.62 124.61 141.636C124.61 143.616 122.99 145.272 120.902 145.272ZM117.662 160.968V153.264C117.662 150.816 117.302 149.844 116.078 149.016L124.502 145.56V160.932C124.502 162.948 125.078 163.992 126.158 165H116.006C117.23 163.992 117.662 162.948 117.662 160.968ZM137.751 161.508C138.615 161.508 139.407 161.184 139.947 160.608C139.407 163.884 137.499 165.54 133.971 165.54C130.947 165.54 128.463 163.956 128.463 160.212V147.9H126.699L135.303 140.628V146.1H139.083V147.9H135.303V158.736C135.303 160.464 136.239 161.508 137.751 161.508ZM150.933 165C151.797 163.992 152.121 162.948 152.121 160.968V151.608C152.121 149.952 151.437 149.124 150.141 149.124C149.385 149.124 148.773 149.412 148.341 149.808V160.968C148.341 162.948 148.593 163.848 149.529 165H139.845C141.069 163.992 141.501 162.948 141.501 160.968V146.964C141.501 144.696 140.961 143.76 139.593 142.824L148.341 138.72V148.224C149.313 146.64 151.293 145.56 153.381 145.56C156.873 145.56 158.961 147.612 158.961 151.392V160.968C158.961 162.948 159.357 163.92 160.365 165H150.933ZM171.316 165.54C165.304 165.54 161.272 161.544 161.272 155.568C161.272 149.556 165.304 145.56 171.316 145.56C177.328 145.56 181.36 149.556 181.36 155.568C181.36 161.544 177.328 165.54 171.316 165.54ZM171.316 163.56C173.08 163.56 173.98 160.824 173.98 155.568C173.98 150.276 173.08 147.54 171.316 147.54C169.552 147.54 168.652 150.276 168.652 155.568C168.652 160.824 169.552 163.56 171.316 163.56ZM202.038 164.424L193.794 165.216V162.876C192.786 164.46 190.77 165.54 188.754 165.54C185.91 165.54 183.75 163.992 183.75 159.816V153.588C183.75 151.032 183.318 149.988 182.094 149.052L190.59 145.56V159.888C190.59 161.256 191.094 161.976 192.21 161.976C192.858 161.976 193.362 161.688 193.794 161.256V153.336C193.794 150.78 193.362 149.988 192.138 149.052L200.634 145.56V161.364C200.634 162.732 201.102 163.74 202.038 164.424ZM213.621 161.508C214.485 161.508 215.277 161.184 215.817 160.608C215.277 163.884 213.369 165.54 209.841 165.54C206.817 165.54 204.333 163.956 204.333 160.212V147.9H202.569L211.173 140.628V146.1H214.953V147.9H211.173V158.736C211.173 160.464 212.109 161.508 213.621 161.508ZM222.841 165C224.281 163.56 224.857 161.796 224.857 158.952V145.848C224.857 142.968 224.281 141.204 222.841 139.8H234.505C232.993 141.204 232.417 142.932 232.417 145.848V162.84C235.261 162.84 239.617 158.7 241.777 154.02L240.625 165H222.841ZM247.4 145.272C245.312 145.272 243.692 143.616 243.692 141.636C243.692 139.62 245.312 137.964 247.4 137.964C249.488 137.964 251.108 139.62 251.108 141.636C251.108 143.616 249.488 145.272 247.4 145.272ZM244.16 160.968V153.264C244.16 150.816 243.8 149.844 242.576 149.016L251 145.56V160.932C251 162.948 251.576 163.992 252.656 165H242.504C243.728 163.992 244.16 162.948 244.16 160.968ZM274.005 165C274.905 163.884 275.193 162.948 275.193 160.968V150.924C275.193 149.7 274.689 149.124 273.645 149.124C272.961 149.124 272.493 149.34 272.097 149.844C272.133 150.168 272.133 150.492 272.133 150.816V160.968C272.133 162.948 272.421 163.884 273.321 165H264.105C265.005 163.884 265.293 162.948 265.293 160.968V150.96C265.293 149.736 264.789 149.124 263.745 149.124C263.133 149.124 262.665 149.34 262.233 149.808V160.968C262.233 162.948 262.521 163.884 263.421 165H253.737C254.961 163.992 255.393 162.948 255.393 160.968V153.264C255.393 150.816 254.997 149.808 253.737 148.944L262.053 145.56V148.584C262.989 146.676 264.861 145.56 267.165 145.56C269.649 145.56 271.233 146.64 271.845 148.656C272.889 146.676 274.761 145.56 277.029 145.56C280.305 145.56 282.033 147.396 282.033 150.816V160.968C282.033 162.948 282.321 163.884 283.221 165H274.005ZM289.202 145.272C287.114 145.272 285.494 143.616 285.494 141.636C285.494 139.62 287.114 137.964 289.202 137.964C291.29 137.964 292.91 139.62 292.91 141.636C292.91 143.616 291.29 145.272 289.202 145.272ZM285.962 160.968V153.264C285.962 150.816 285.602 149.844 284.378 149.016L292.802 145.56V160.932C292.802 162.948 293.378 163.992 294.458 165H284.306C285.53 163.992 285.962 162.948 285.962 160.968ZM306.051 161.508C306.915 161.508 307.707 161.184 308.247 160.608C307.707 163.884 305.799 165.54 302.271 165.54C299.247 165.54 296.763 163.956 296.763 160.212V147.9H294.999L303.603 140.628V146.1H307.383V147.9H303.603V158.736C303.603 160.464 304.539 161.508 306.051 161.508ZM316.092 165.54C313.716 165.54 311.34 165 309.108 163.956V158.052C311.376 161.004 314.508 162.948 317.028 162.948C318.072 162.948 318.72 162.408 318.72 161.436C318.72 160.68 318.216 160.248 316.848 159.708L313.212 158.376C310.116 157.224 308.604 155.208 308.604 152.148C308.604 148.296 311.772 145.56 316.2 145.56C318.612 145.56 321.276 146.244 322.608 147.216V152.472C320.988 149.916 317.82 147.972 315.444 147.972C314.292 147.972 313.716 148.368 313.716 149.196C313.716 149.952 314.076 150.348 315.516 150.924L319.116 152.4C322.5 153.768 323.76 155.712 323.76 158.52C323.76 162.732 320.7 165.54 316.092 165.54ZM329.042 165.864C326.918 165.864 325.19 164.136 325.19 162.012C325.19 159.924 326.918 158.196 329.042 158.196C331.13 158.196 332.858 159.924 332.858 162.012C332.858 164.136 331.13 165.864 329.042 165.864Z" fill="#161616"/>
<path d="M4.192 190.152L0.208 183.576H1.904L4.928 188.856L8.032 183.576H9.584L5.68 190.152V195H4.192V190.152ZM12.2765 195.256C11.6472 195.256 11.0872 195.155 10.5965 194.952C10.1058 194.749 9.68983 194.461 9.3485 194.088C9.00717 193.715 8.74583 193.256 8.5645 192.712C8.38317 192.168 8.2925 191.56 8.2925 190.888C8.2925 190.216 8.3885 189.608 8.5805 189.064C8.7725 188.52 9.0445 188.056 9.3965 187.672C9.7485 187.288 10.1698 186.995 10.6605 186.792C11.1618 186.579 11.7165 186.472 12.3245 186.472C12.9432 186.472 13.4978 186.573 13.9885 186.776C14.4792 186.979 14.8952 187.272 15.2365 187.656C15.5885 188.029 15.8552 188.483 16.0365 189.016C16.2178 189.549 16.3085 190.152 16.3085 190.824C16.3085 191.507 16.2125 192.12 16.0205 192.664C15.8392 193.208 15.5725 193.672 15.2205 194.056C14.8792 194.44 14.4578 194.739 13.9565 194.952C13.4552 195.155 12.8952 195.256 12.2765 195.256ZM12.2925 194.104C12.7405 194.104 13.1245 194.024 13.4445 193.864C13.7645 193.704 14.0258 193.48 14.2285 193.192C14.4418 192.904 14.5965 192.563 14.6925 192.168C14.7885 191.763 14.8365 191.32 14.8365 190.84C14.8365 190.371 14.7885 189.939 14.6925 189.544C14.5965 189.149 14.4418 188.813 14.2285 188.536C14.0258 188.248 13.7645 188.024 13.4445 187.864C13.1245 187.704 12.7405 187.624 12.2925 187.624C11.8445 187.624 11.4605 187.704 11.1405 187.864C10.8312 188.024 10.5698 188.248 10.3565 188.536C10.1538 188.813 10.0045 189.149 9.9085 189.544C9.8125 189.939 9.7645 190.376 9.7645 190.856C9.7645 191.336 9.8125 191.773 9.9085 192.168C10.0045 192.563 10.1538 192.904 10.3565 193.192C10.5592 193.48 10.8205 193.704 11.1405 193.864C11.4605 194.024 11.8445 194.104 12.2925 194.104ZM17.8059 186.728H19.1979V191.944C19.1979 192.712 19.3205 193.256 19.5659 193.576C19.8219 193.896 20.2325 194.056 20.7979 194.056C21.4165 194.056 21.9765 193.832 22.4779 193.384C22.7445 193.149 22.9472 192.904 23.0859 192.648C23.2245 192.381 23.2939 192.04 23.2939 191.624V186.728H24.6859V195H23.3099V193.72C22.9045 194.253 22.4672 194.643 21.9979 194.888C21.5285 195.133 21.0219 195.256 20.4779 195.256C19.5392 195.256 18.8565 195.005 18.4299 194.504C18.0139 193.992 17.8059 193.229 17.8059 192.216V186.728ZM36.9131 192.2C36.7745 193.149 36.4118 193.896 35.8251 194.44C35.2385 194.984 34.4118 195.256 33.3451 195.256C32.7158 195.256 32.1558 195.155 31.6651 194.952C31.1851 194.749 30.7798 194.461 30.4491 194.088C30.1291 193.704 29.8838 193.245 29.7131 192.712C29.5531 192.168 29.4731 191.56 29.4731 190.888C29.4731 190.227 29.5638 189.624 29.7451 189.08C29.9265 188.536 30.1878 188.072 30.5291 187.688C30.8705 187.304 31.2865 187.005 31.7771 186.792C32.2678 186.579 32.8225 186.472 33.4411 186.472C34.4331 186.472 35.2011 186.717 35.7451 187.208C36.2891 187.688 36.6358 188.355 36.7851 189.208L35.3931 189.464C35.3398 189.197 35.2651 188.952 35.1691 188.728C35.0838 188.504 34.9611 188.312 34.8011 188.152C34.6411 187.981 34.4438 187.853 34.2091 187.768C33.9851 187.672 33.7131 187.624 33.3931 187.624C32.9558 187.624 32.5825 187.709 32.2731 187.88C31.9638 188.04 31.7078 188.269 31.5051 188.568C31.3131 188.856 31.1691 189.197 31.0731 189.592C30.9878 189.987 30.9451 190.408 30.9451 190.856C30.9451 191.304 30.9878 191.725 31.0731 192.12C31.1585 192.515 31.2971 192.861 31.4891 193.16C31.6811 193.448 31.9318 193.677 32.2411 193.848C32.5505 194.019 32.9291 194.104 33.3771 194.104C34.0491 194.104 34.5451 193.933 34.8651 193.592C35.1958 193.251 35.4091 192.787 35.5051 192.2H36.9131ZM45.7386 186.728V195H44.3786V193.816C44.0373 194.275 43.6426 194.632 43.1946 194.888C42.7466 195.133 42.2186 195.256 41.6106 195.256C40.8 195.256 40.1333 195.064 39.6106 194.68C39.0986 194.296 38.7146 193.773 38.4586 193.112C38.2133 192.451 38.0906 191.715 38.0906 190.904C38.0906 189.528 38.416 188.445 39.0666 187.656C39.728 186.867 40.6293 186.472 41.7706 186.472C42.208 186.472 42.656 186.568 43.1146 186.76C43.5733 186.941 43.9946 187.277 44.3786 187.768V186.728H45.7386ZM44.3946 190.616C44.3946 189.955 44.32 189.443 44.1706 189.08C44.032 188.707 43.7973 188.392 43.4666 188.136C43.232 187.944 42.992 187.811 42.7466 187.736C42.512 187.661 42.2506 187.624 41.9626 187.624C41.5146 187.624 41.104 187.731 40.7306 187.944C40.368 188.157 40.08 188.504 39.8666 188.984C39.6533 189.453 39.5466 190.083 39.5466 190.872C39.5466 191.683 39.6586 192.323 39.8826 192.792C40.1066 193.261 40.3946 193.597 40.7466 193.8C41.0986 193.992 41.4666 194.088 41.8506 194.088C42.16 194.088 42.4373 194.056 42.6826 193.992C42.928 193.917 43.1733 193.784 43.4186 193.592C43.7493 193.347 43.9946 193.032 44.1546 192.648C44.3146 192.253 44.3946 191.763 44.3946 191.176V190.616ZM47.5739 186.728H48.9499V187.992C49.3552 187.448 49.8032 187.059 50.2939 186.824C50.7845 186.589 51.3019 186.472 51.8459 186.472C52.7845 186.472 53.4779 186.728 53.9259 187.24C54.3845 187.752 54.6139 188.504 54.6139 189.496V195H53.2219V189.768C53.2219 189 53.0832 188.461 52.8059 188.152C52.5285 187.832 52.1019 187.672 51.5259 187.672C51.2165 187.672 50.9072 187.725 50.5979 187.832C50.2992 187.939 50.0272 188.109 49.7819 188.344C49.5152 188.579 49.3125 188.829 49.1739 189.096C49.0352 189.352 48.9659 189.688 48.9659 190.104V195H47.5739V186.728ZM60.5174 192.584C60.6134 193.16 60.8534 193.565 61.2374 193.8C61.632 194.024 62.1654 194.136 62.8374 194.136C63.5414 194.136 64.0374 194.019 64.3254 193.784C64.624 193.539 64.7734 193.219 64.7734 192.824C64.7734 192.664 64.752 192.515 64.7094 192.376C64.6774 192.227 64.608 192.099 64.5014 191.992C64.3947 191.875 64.2454 191.773 64.0534 191.688C63.8614 191.603 63.6107 191.533 63.3014 191.48L62.2454 191.32C61.776 191.245 61.3654 191.149 61.0134 191.032C60.6614 190.915 60.3627 190.765 60.1174 190.584C59.872 190.392 59.6854 190.163 59.5574 189.896C59.44 189.619 59.3814 189.288 59.3814 188.904C59.3814 188.52 59.4614 188.179 59.6214 187.88C59.792 187.581 60.0214 187.331 60.3094 187.128C60.608 186.915 60.9547 186.755 61.3494 186.648C61.7547 186.531 62.192 186.472 62.6614 186.472C63.2587 186.472 63.7547 186.531 64.1494 186.648C64.5547 186.765 64.8854 186.925 65.1414 187.128C65.3974 187.331 65.5947 187.571 65.7334 187.848C65.872 188.125 65.9787 188.419 66.0534 188.728L64.7894 188.936C64.7147 188.712 64.6294 188.515 64.5334 188.344C64.4374 188.173 64.3094 188.035 64.1494 187.928C63.9894 187.811 63.792 187.725 63.5574 187.672C63.3334 187.608 63.0507 187.576 62.7094 187.576C62.3254 187.576 62.0054 187.613 61.7494 187.688C61.4934 187.752 61.2854 187.843 61.1254 187.96C60.976 188.077 60.8694 188.211 60.8054 188.36C60.7414 188.499 60.7094 188.648 60.7094 188.808C60.7094 188.979 60.7307 189.133 60.7734 189.272C60.816 189.4 60.896 189.517 61.0134 189.624C61.1307 189.72 61.2907 189.805 61.4934 189.88C61.696 189.955 61.9574 190.019 62.2774 190.072L63.4774 190.264C64.448 190.424 65.1414 190.701 65.5574 191.096C65.984 191.491 66.1974 192.067 66.1974 192.824C66.1974 193.176 66.128 193.501 65.9894 193.8C65.8507 194.088 65.6427 194.344 65.3654 194.568C65.088 194.781 64.7414 194.947 64.3254 195.064C63.9094 195.192 63.424 195.256 62.8694 195.256C62.368 195.256 61.8987 195.208 61.4614 195.112C61.0347 195.016 60.656 194.867 60.3254 194.664C59.9947 194.451 59.728 194.173 59.5254 193.832C59.3227 193.491 59.2054 193.075 59.1734 192.584H60.5174ZM74.5784 192.68C74.4397 193.48 74.0824 194.109 73.5064 194.568C72.941 195.027 72.125 195.256 71.0584 195.256C69.7997 195.256 68.8344 194.877 68.1624 194.12C67.4904 193.352 67.1544 192.285 67.1544 190.92C67.1544 190.205 67.2504 189.571 67.4424 189.016C67.6344 188.461 67.901 187.997 68.2424 187.624C68.5944 187.251 69.0104 186.968 69.4904 186.776C69.9704 186.573 70.493 186.472 71.0584 186.472C71.6984 186.472 72.2477 186.573 72.7064 186.776C73.165 186.979 73.5384 187.261 73.8264 187.624C74.125 187.976 74.3437 188.397 74.4824 188.888C74.6317 189.379 74.7064 189.917 74.7064 190.504V191.208H68.5624C68.5624 191.624 68.6157 192.013 68.7224 192.376C68.8397 192.728 68.9997 193.037 69.2024 193.304C69.4157 193.56 69.677 193.763 69.9864 193.912C70.2957 194.061 70.653 194.136 71.0584 194.136C71.7517 194.136 72.2584 194.008 72.5784 193.752C72.8984 193.485 73.117 193.128 73.2344 192.68H74.5784ZM73.3144 190.168C73.3144 189.773 73.2717 189.416 73.1864 189.096C73.101 188.776 72.9677 188.504 72.7864 188.28C72.605 188.045 72.3704 187.864 72.0824 187.736C71.7944 187.608 71.4477 187.544 71.0424 187.544C70.3064 187.544 69.7304 187.768 69.3144 188.216C68.909 188.664 68.669 189.315 68.5944 190.168H73.3144ZM76.2314 186.728H77.6074V187.992C78.0127 187.448 78.4607 187.059 78.9514 186.824C79.442 186.589 79.9594 186.472 80.5034 186.472C81.442 186.472 82.1354 186.728 82.5834 187.24C83.042 187.752 83.2714 188.504 83.2714 189.496V195H81.8794V189.768C81.8794 189 81.7407 188.461 81.4634 188.152C81.186 187.832 80.7594 187.672 80.1834 187.672C79.874 187.672 79.5647 187.725 79.2554 187.832C78.9567 187.939 78.6847 188.109 78.4394 188.344C78.1727 188.579 77.97 188.829 77.8314 189.096C77.6927 189.352 77.6234 189.688 77.6234 190.104V195H76.2314V186.728ZM91.0524 193.816C90.711 194.275 90.3164 194.632 89.8684 194.888C89.4204 195.133 88.8924 195.256 88.2844 195.256C87.6764 195.256 87.1484 195.144 86.7004 194.92C86.263 194.696 85.9004 194.392 85.6124 194.008C85.3244 193.613 85.111 193.149 84.9724 192.616C84.8337 192.083 84.7644 191.512 84.7644 190.904C84.7644 190.221 84.8497 189.608 85.0204 189.064C85.191 188.509 85.431 188.04 85.7404 187.656C86.0604 187.272 86.4444 186.979 86.8924 186.776C87.351 186.573 87.8684 186.472 88.4444 186.472C88.8817 186.472 89.3244 186.563 89.7724 186.744C90.2204 186.915 90.6364 187.245 91.0204 187.736V183.576H92.4124V195H91.0524V193.816ZM91.0684 190.616C91.0684 189.955 90.9937 189.443 90.8444 189.08C90.7057 188.707 90.471 188.392 90.1404 188.136C89.9057 187.944 89.6657 187.811 89.4204 187.736C89.1857 187.661 88.9244 187.624 88.6364 187.624C88.295 187.624 87.975 187.683 87.6764 187.8C87.3884 187.917 87.1324 188.109 86.9084 188.376C86.695 188.632 86.5244 188.968 86.3964 189.384C86.279 189.789 86.2204 190.285 86.2204 190.872C86.2204 191.48 86.2844 191.992 86.4124 192.408C86.551 192.824 86.727 193.155 86.9404 193.4C87.1644 193.645 87.4097 193.821 87.6764 193.928C87.9537 194.035 88.2364 194.088 88.5244 194.088C88.8337 194.088 89.111 194.051 89.3564 193.976C89.6017 193.901 89.847 193.773 90.0924 193.592C90.4124 193.336 90.6524 193.016 90.8124 192.632C90.983 192.248 91.0684 191.763 91.0684 191.176V190.616ZM98.0341 186.024C98.0341 185.427 98.1461 184.941 98.3701 184.568C98.5941 184.184 98.8875 183.901 99.2501 183.72C99.6235 183.539 100.039 183.448 100.498 183.448C100.743 183.448 100.978 183.464 101.202 183.496C101.426 183.517 101.661 183.565 101.906 183.64L101.682 184.728C101.511 184.675 101.346 184.643 101.186 184.632C101.037 184.611 100.887 184.6 100.738 184.6C100.365 184.6 100.045 184.701 99.7781 184.904C99.5115 185.096 99.3781 185.453 99.3781 185.976V186.728H101.474V187.832H99.3781V195H97.9861V187.832H96.6901V186.776H97.4101C97.6875 186.776 97.8581 186.728 97.9221 186.632C97.9968 186.536 98.0341 186.333 98.0341 186.024ZM102.626 184.408C102.626 184.141 102.717 183.923 102.898 183.752C103.079 183.571 103.298 183.48 103.554 183.48C103.831 183.48 104.055 183.565 104.226 183.736C104.397 183.907 104.482 184.131 104.482 184.408C104.482 184.675 104.397 184.899 104.226 185.08C104.055 185.251 103.831 185.336 103.554 185.336C103.287 185.336 103.063 185.251 102.882 185.08C102.711 184.899 102.626 184.675 102.626 184.408ZM102.866 195V186.728H104.258V195H102.866ZM106.14 183.576H107.532V195H106.14V183.576ZM116.533 192.68C116.395 193.48 116.037 194.109 115.461 194.568C114.896 195.027 114.08 195.256 113.013 195.256C111.755 195.256 110.789 194.877 110.117 194.12C109.445 193.352 109.109 192.285 109.109 190.92C109.109 190.205 109.205 189.571 109.397 189.016C109.589 188.461 109.856 187.997 110.197 187.624C110.549 187.251 110.965 186.968 111.445 186.776C111.925 186.573 112.448 186.472 113.013 186.472C113.653 186.472 114.203 186.573 114.661 186.776C115.12 186.979 115.493 187.261 115.781 187.624C116.08 187.976 116.299 188.397 116.437 188.888C116.587 189.379 116.661 189.917 116.661 190.504V191.208H110.517C110.517 191.624 110.571 192.013 110.677 192.376C110.795 192.728 110.955 193.037 111.157 193.304C111.371 193.56 111.632 193.763 111.941 193.912C112.251 194.061 112.608 194.136 113.013 194.136C113.707 194.136 114.213 194.008 114.533 193.752C114.853 193.485 115.072 193.128 115.189 192.68H116.533ZM115.269 190.168C115.269 189.773 115.227 189.416 115.141 189.096C115.056 188.776 114.923 188.504 114.741 188.28C114.56 188.045 114.325 187.864 114.037 187.736C113.749 187.608 113.403 187.544 112.997 187.544C112.261 187.544 111.685 187.768 111.269 188.216C110.864 188.664 110.624 189.315 110.549 190.168H115.269ZM119.082 192.584C119.178 193.16 119.418 193.565 119.802 193.8C120.197 194.024 120.73 194.136 121.402 194.136C122.106 194.136 122.602 194.019 122.89 193.784C123.189 193.539 123.338 193.219 123.338 192.824C123.338 192.664 123.317 192.515 123.274 192.376C123.242 192.227 123.173 192.099 123.066 191.992C122.96 191.875 122.81 191.773 122.618 191.688C122.426 191.603 122.176 191.533 121.866 191.48L120.81 191.32C120.341 191.245 119.93 191.149 119.578 191.032C119.226 190.915 118.928 190.765 118.682 190.584C118.437 190.392 118.25 190.163 118.122 189.896C118.005 189.619 117.946 189.288 117.946 188.904C117.946 188.52 118.026 188.179 118.186 187.88C118.357 187.581 118.586 187.331 118.874 187.128C119.173 186.915 119.52 186.755 119.914 186.648C120.32 186.531 120.757 186.472 121.226 186.472C121.824 186.472 122.32 186.531 122.714 186.648C123.12 186.765 123.45 186.925 123.706 187.128C123.962 187.331 124.16 187.571 124.298 187.848C124.437 188.125 124.544 188.419 124.618 188.728L123.354 188.936C123.28 188.712 123.194 188.515 123.098 188.344C123.002 188.173 122.874 188.035 122.714 187.928C122.554 187.811 122.357 187.725 122.122 187.672C121.898 187.608 121.616 187.576 121.274 187.576C120.89 187.576 120.57 187.613 120.314 187.688C120.058 187.752 119.85 187.843 119.69 187.96C119.541 188.077 119.434 188.211 119.37 188.36C119.306 188.499 119.274 188.648 119.274 188.808C119.274 188.979 119.296 189.133 119.338 189.272C119.381 189.4 119.461 189.517 119.578 189.624C119.696 189.72 119.856 189.805 120.058 189.88C120.261 189.955 120.522 190.019 120.842 190.072L122.042 190.264C123.013 190.424 123.706 190.701 124.122 191.096C124.549 191.491 124.762 192.067 124.762 192.824C124.762 193.176 124.693 193.501 124.554 193.8C124.416 194.088 124.208 194.344 123.93 194.568C123.653 194.781 123.306 194.947 122.89 195.064C122.474 195.192 121.989 195.256 121.434 195.256C120.933 195.256 120.464 195.208 120.026 195.112C119.6 195.016 119.221 194.867 118.89 194.664C118.56 194.451 118.293 194.173 118.09 193.832C117.888 193.491 117.77 193.075 117.738 192.584H119.082ZM133.18 195.256C132.551 195.256 131.991 195.155 131.5 194.952C131.01 194.749 130.594 194.461 130.252 194.088C129.911 193.715 129.65 193.256 129.468 192.712C129.287 192.168 129.196 191.56 129.196 190.888C129.196 190.216 129.292 189.608 129.484 189.064C129.676 188.52 129.948 188.056 130.3 187.672C130.652 187.288 131.074 186.995 131.564 186.792C132.066 186.579 132.62 186.472 133.228 186.472C133.847 186.472 134.402 186.573 134.892 186.776C135.383 186.979 135.799 187.272 136.14 187.656C136.492 188.029 136.759 188.483 136.94 189.016C137.122 189.549 137.212 190.152 137.212 190.824C137.212 191.507 137.116 192.12 136.924 192.664C136.743 193.208 136.476 193.672 136.124 194.056C135.783 194.44 135.362 194.739 134.86 194.952C134.359 195.155 133.799 195.256 133.18 195.256ZM133.196 194.104C133.644 194.104 134.028 194.024 134.348 193.864C134.668 193.704 134.93 193.48 135.132 193.192C135.346 192.904 135.5 192.563 135.596 192.168C135.692 191.763 135.74 191.32 135.74 190.84C135.74 190.371 135.692 189.939 135.596 189.544C135.5 189.149 135.346 188.813 135.132 188.536C134.93 188.248 134.668 188.024 134.348 187.864C134.028 187.704 133.644 187.624 133.196 187.624C132.748 187.624 132.364 187.704 132.044 187.864C131.735 188.024 131.474 188.248 131.26 188.536C131.058 188.813 130.908 189.149 130.812 189.544C130.716 189.939 130.668 190.376 130.668 190.856C130.668 191.336 130.716 191.773 130.812 192.168C130.908 192.563 131.058 192.904 131.26 193.192C131.463 193.48 131.724 193.704 132.044 193.864C132.364 194.024 132.748 194.104 133.196 194.104ZM139.302 186.024C139.302 185.427 139.414 184.941 139.638 184.568C139.862 184.184 140.155 183.901 140.518 183.72C140.891 183.539 141.307 183.448 141.766 183.448C142.011 183.448 142.246 183.464 142.47 183.496C142.694 183.517 142.928 183.565 143.174 183.64L142.95 184.728C142.779 184.675 142.614 184.643 142.454 184.632C142.304 184.611 142.155 184.6 142.006 184.6C141.632 184.6 141.312 184.701 141.046 184.904C140.779 185.096 140.646 185.453 140.646 185.976V186.728H142.742V187.832H140.646V195H139.254V187.832H137.958V186.776H138.678C138.955 186.776 139.126 186.728 139.19 186.632C139.264 186.536 139.302 186.333 139.302 186.024ZM154.928 195H152.72V193.912C152.432 194.339 152.053 194.669 151.584 194.904C151.115 195.139 150.64 195.256 150.16 195.256C148.987 195.256 148.107 194.861 147.52 194.072C146.944 193.283 146.656 192.189 146.656 190.792C146.656 189.928 146.8 189.165 147.088 188.504C147.376 187.843 147.792 187.325 148.336 186.952C148.88 186.579 149.531 186.392 150.288 186.392C150.725 186.392 151.157 186.477 151.584 186.648C152.011 186.819 152.4 187.133 152.752 187.592V186.648H154.928V195ZM152.704 191.016V190.728C152.704 190.205 152.656 189.784 152.56 189.464C152.475 189.133 152.331 188.867 152.128 188.664C151.936 188.472 151.723 188.349 151.488 188.296C151.264 188.232 151.04 188.2 150.816 188.2C150.325 188.2 149.899 188.397 149.536 188.792C149.184 189.187 149.008 189.848 149.008 190.776C149.008 191.768 149.173 192.461 149.504 192.856C149.845 193.24 150.267 193.432 150.768 193.432C151.301 193.432 151.739 193.277 152.08 192.968C152.293 192.765 152.448 192.509 152.544 192.2C152.651 191.891 152.704 191.496 152.704 191.016ZM156.593 186.648H158.769V187.8C159.099 187.309 159.489 186.952 159.937 186.728C160.395 186.504 160.87 186.392 161.361 186.392C162.31 186.392 163.014 186.643 163.473 187.144C163.931 187.635 164.161 188.413 164.161 189.48V195H161.921V189.784C161.921 189.197 161.809 188.797 161.585 188.584C161.361 188.371 161.062 188.264 160.689 188.264C160.401 188.264 160.15 188.307 159.937 188.392C159.734 188.477 159.542 188.6 159.361 188.76C159.211 188.909 159.083 189.091 158.977 189.304C158.881 189.507 158.833 189.731 158.833 189.976V195H156.593V186.648ZM173.537 186.648L168.801 198.104H166.401L168.033 194.488L164.721 186.648H167.313L169.201 191.96L171.089 186.648H173.537ZM179.202 192.344C179.276 192.835 179.474 193.155 179.794 193.304C180.114 193.453 180.498 193.528 180.946 193.528C181.479 193.528 181.858 193.464 182.082 193.336C182.316 193.197 182.434 192.979 182.434 192.68C182.434 192.467 182.359 192.28 182.21 192.12C182.071 191.96 181.799 191.848 181.394 191.784L180.242 191.592C179.228 191.432 178.471 191.16 177.97 190.776C177.479 190.381 177.234 189.789 177.234 189C177.234 188.595 177.319 188.232 177.49 187.912C177.671 187.592 177.922 187.32 178.242 187.096C178.562 186.872 178.94 186.701 179.378 186.584C179.826 186.456 180.316 186.392 180.85 186.392C181.511 186.392 182.066 186.461 182.514 186.6C182.962 186.728 183.324 186.904 183.602 187.128C183.89 187.352 184.103 187.619 184.242 187.928C184.391 188.237 184.498 188.568 184.562 188.92L182.562 189.176C182.466 188.792 182.295 188.509 182.05 188.328C181.815 188.147 181.431 188.056 180.898 188.056C180.599 188.056 180.348 188.083 180.146 188.136C179.954 188.179 179.799 188.237 179.682 188.312C179.575 188.387 179.495 188.472 179.442 188.568C179.399 188.664 179.378 188.755 179.378 188.84C179.378 189.107 179.458 189.304 179.618 189.432C179.788 189.549 180.114 189.651 180.594 189.736L181.65 189.912C182.236 190.008 182.722 190.131 183.106 190.28C183.49 190.429 183.794 190.616 184.018 190.84C184.252 191.053 184.412 191.309 184.498 191.608C184.594 191.907 184.642 192.253 184.642 192.648C184.642 193.437 184.343 194.072 183.746 194.552C183.148 195.021 182.226 195.256 180.978 195.256C180.476 195.256 179.996 195.208 179.538 195.112C179.09 195.027 178.684 194.872 178.322 194.648C177.97 194.424 177.676 194.125 177.442 193.752C177.218 193.379 177.09 192.909 177.058 192.344H179.202ZM185.651 184.456C185.651 184.072 185.779 183.763 186.035 183.528C186.291 183.293 186.611 183.176 186.995 183.176C187.379 183.176 187.699 183.299 187.955 183.544C188.211 183.779 188.339 184.088 188.339 184.472C188.339 184.856 188.211 185.165 187.955 185.4C187.699 185.624 187.379 185.736 186.995 185.736C186.611 185.736 186.291 185.619 186.035 185.384C185.779 185.149 185.651 184.84 185.651 184.456ZM185.875 186.648H188.115V195H185.875V186.648ZM189.39 193.48L193.454 188.392H189.47V186.648H196.302V188.168L192.254 193.256H196.494L196.286 195H189.39V193.48ZM204.961 192.392C204.812 193.331 204.433 194.045 203.825 194.536C203.228 195.016 202.353 195.256 201.201 195.256C199.815 195.256 198.769 194.872 198.065 194.104C197.372 193.336 197.025 192.248 197.025 190.84C197.025 190.136 197.127 189.512 197.329 188.968C197.532 188.413 197.815 187.944 198.177 187.56C198.551 187.176 198.993 186.888 199.505 186.696C200.017 186.493 200.583 186.392 201.201 186.392C202.481 186.392 203.441 186.76 204.081 187.496C204.732 188.232 205.057 189.224 205.057 190.472V191.368H199.265C199.287 192.04 199.457 192.568 199.777 192.952C200.097 193.325 200.577 193.512 201.217 193.512C202.103 193.512 202.625 193.139 202.785 192.392H204.961ZM202.897 189.896C202.897 189.32 202.753 188.872 202.465 188.552C202.188 188.232 201.751 188.072 201.153 188.072C200.855 188.072 200.593 188.12 200.369 188.216C200.145 188.312 199.953 188.445 199.793 188.616C199.644 188.776 199.527 188.968 199.441 189.192C199.356 189.405 199.308 189.64 199.297 189.896H202.897ZM208.175 194.504C208.175 194.877 208.084 195.288 207.903 195.736C207.722 196.184 207.476 196.6 207.167 196.984H206.335C206.506 196.717 206.66 196.429 206.799 196.12C206.948 195.821 207.06 195.517 207.135 195.208C206.858 195.187 206.634 195.096 206.463 194.936C206.303 194.765 206.223 194.552 206.223 194.296C206.223 194.019 206.314 193.789 206.495 193.608C206.676 193.427 206.911 193.336 207.199 193.336C207.498 193.336 207.732 193.443 207.903 193.656C208.084 193.869 208.175 194.152 208.175 194.504ZM220.372 186.728V195H219.012V193.816C218.67 194.275 218.276 194.632 217.828 194.888C217.38 195.133 216.852 195.256 216.244 195.256C215.433 195.256 214.766 195.064 214.244 194.68C213.732 194.296 213.348 193.773 213.092 193.112C212.846 192.451 212.724 191.715 212.724 190.904C212.724 189.528 213.049 188.445 213.7 187.656C214.361 186.867 215.262 186.472 216.404 186.472C216.841 186.472 217.289 186.568 217.748 186.76C218.206 186.941 218.628 187.277 219.012 187.768V186.728H220.372ZM219.028 190.616C219.028 189.955 218.953 189.443 218.804 189.08C218.665 188.707 218.43 188.392 218.1 188.136C217.865 187.944 217.625 187.811 217.38 187.736C217.145 187.661 216.884 187.624 216.596 187.624C216.148 187.624 215.737 187.731 215.364 187.944C215.001 188.157 214.713 188.504 214.5 188.984C214.286 189.453 214.18 190.083 214.18 190.872C214.18 191.683 214.292 192.323 214.516 192.792C214.74 193.261 215.028 193.597 215.38 193.8C215.732 193.992 216.1 194.088 216.484 194.088C216.793 194.088 217.07 194.056 217.316 193.992C217.561 193.917 217.806 193.784 218.052 193.592C218.382 193.347 218.628 193.032 218.788 192.648C218.948 192.253 219.028 191.763 219.028 191.176V190.616ZM223.103 192.584C223.199 193.16 223.439 193.565 223.823 193.8C224.218 194.024 224.751 194.136 225.423 194.136C226.127 194.136 226.623 194.019 226.911 193.784C227.21 193.539 227.359 193.219 227.359 192.824C227.359 192.664 227.338 192.515 227.295 192.376C227.263 192.227 227.194 192.099 227.087 191.992C226.98 191.875 226.831 191.773 226.639 191.688C226.447 191.603 226.196 191.533 225.887 191.48L224.831 191.32C224.362 191.245 223.951 191.149 223.599 191.032C223.247 190.915 222.948 190.765 222.703 190.584C222.458 190.392 222.271 190.163 222.143 189.896C222.026 189.619 221.967 189.288 221.967 188.904C221.967 188.52 222.047 188.179 222.207 187.88C222.378 187.581 222.607 187.331 222.895 187.128C223.194 186.915 223.54 186.755 223.935 186.648C224.34 186.531 224.778 186.472 225.247 186.472C225.844 186.472 226.34 186.531 226.735 186.648C227.14 186.765 227.471 186.925 227.727 187.128C227.983 187.331 228.18 187.571 228.319 187.848C228.458 188.125 228.564 188.419 228.639 188.728L227.375 188.936C227.3 188.712 227.215 188.515 227.119 188.344C227.023 188.173 226.895 188.035 226.735 187.928C226.575 187.811 226.378 187.725 226.143 187.672C225.919 187.608 225.636 187.576 225.295 187.576C224.911 187.576 224.591 187.613 224.335 187.688C224.079 187.752 223.871 187.843 223.711 187.96C223.562 188.077 223.455 188.211 223.391 188.36C223.327 188.499 223.295 188.648 223.295 188.808C223.295 188.979 223.316 189.133 223.359 189.272C223.402 189.4 223.482 189.517 223.599 189.624C223.716 189.72 223.876 189.805 224.079 189.88C224.282 189.955 224.543 190.019 224.863 190.072L226.063 190.264C227.034 190.424 227.727 190.701 228.143 191.096C228.57 191.491 228.783 192.067 228.783 192.824C228.783 193.176 228.714 193.501 228.575 193.8C228.436 194.088 228.228 194.344 227.951 194.568C227.674 194.781 227.327 194.947 226.911 195.064C226.495 195.192 226.01 195.256 225.455 195.256C224.954 195.256 224.484 195.208 224.047 195.112C223.62 195.016 223.242 194.867 222.911 194.664C222.58 194.451 222.314 194.173 222.111 193.832C221.908 193.491 221.791 193.075 221.759 192.584H223.103ZM237.201 195.256C236.572 195.256 236.012 195.155 235.521 194.952C235.03 194.749 234.614 194.461 234.273 194.088C233.932 193.715 233.67 193.256 233.489 192.712C233.308 192.168 233.217 191.56 233.217 190.888C233.217 190.216 233.313 189.608 233.505 189.064C233.697 188.52 233.969 188.056 234.321 187.672C234.673 187.288 235.094 186.995 235.585 186.792C236.086 186.579 236.641 186.472 237.249 186.472C237.868 186.472 238.422 186.573 238.913 186.776C239.404 186.979 239.82 187.272 240.161 187.656C240.513 188.029 240.78 188.483 240.961 189.016C241.142 189.549 241.233 190.152 241.233 190.824C241.233 191.507 241.137 192.12 240.945 192.664C240.764 193.208 240.497 193.672 240.145 194.056C239.804 194.44 239.382 194.739 238.881 194.952C238.38 195.155 237.82 195.256 237.201 195.256ZM237.217 194.104C237.665 194.104 238.049 194.024 238.369 193.864C238.689 193.704 238.95 193.48 239.153 193.192C239.366 192.904 239.521 192.563 239.617 192.168C239.713 191.763 239.761 191.32 239.761 190.84C239.761 190.371 239.713 189.939 239.617 189.544C239.521 189.149 239.366 188.813 239.153 188.536C238.95 188.248 238.689 188.024 238.369 187.864C238.049 187.704 237.665 187.624 237.217 187.624C236.769 187.624 236.385 187.704 236.065 187.864C235.756 188.024 235.494 188.248 235.281 188.536C235.078 188.813 234.929 189.149 234.833 189.544C234.737 189.939 234.689 190.376 234.689 190.856C234.689 191.336 234.737 191.773 234.833 192.168C234.929 192.563 235.078 192.904 235.281 193.192C235.484 193.48 235.745 193.704 236.065 193.864C236.385 194.024 236.769 194.104 237.217 194.104ZM243.322 186.024C243.322 185.427 243.434 184.941 243.658 184.568C243.882 184.184 244.176 183.901 244.538 183.72C244.912 183.539 245.328 183.448 245.786 183.448C246.032 183.448 246.266 183.464 246.49 183.496C246.714 183.517 246.949 183.565 247.194 183.64L246.97 184.728C246.8 184.675 246.634 184.643 246.474 184.632C246.325 184.611 246.176 184.6 246.026 184.6C245.653 184.6 245.333 184.701 245.066 184.904C244.8 185.096 244.666 185.453 244.666 185.976V186.728H246.762V187.832H244.666V195H243.274V187.832H241.978V186.776H242.698C242.976 186.776 243.146 186.728 243.21 186.632C243.285 186.536 243.322 186.333 243.322 186.024ZM249.986 192.68C249.986 193.085 250.077 193.411 250.258 193.656C250.44 193.901 250.717 194.024 251.09 194.024C251.325 194.024 251.528 194.008 251.698 193.976C251.88 193.933 252.045 193.885 252.194 193.832L252.434 194.92C252.221 194.995 251.986 195.053 251.73 195.096C251.485 195.149 251.192 195.176 250.85 195.176C250.232 195.176 249.757 195.053 249.426 194.808C249.106 194.563 248.888 194.227 248.77 193.8C248.653 193.363 248.594 192.867 248.594 192.312V187.832H247.314V186.76H248.034C248.312 186.76 248.482 186.717 248.546 186.632C248.621 186.547 248.658 186.371 248.658 186.104V184.472H249.986V186.728H252.178V187.832H249.986V192.68ZM260.259 192.68C260.12 193.48 259.763 194.109 259.187 194.568C258.622 195.027 257.806 195.256 256.739 195.256C255.48 195.256 254.515 194.877 253.843 194.12C253.171 193.352 252.835 192.285 252.835 190.92C252.835 190.205 252.931 189.571 253.123 189.016C253.315 188.461 253.582 187.997 253.923 187.624C254.275 187.251 254.691 186.968 255.171 186.776C255.651 186.573 256.174 186.472 256.739 186.472C257.379 186.472 257.928 186.573 258.387 186.776C258.846 186.979 259.219 187.261 259.507 187.624C259.806 187.976 260.024 188.397 260.163 188.888C260.312 189.379 260.387 189.917 260.387 190.504V191.208H254.243C254.243 191.624 254.296 192.013 254.403 192.376C254.52 192.728 254.68 193.037 254.883 193.304C255.096 193.56 255.358 193.763 255.667 193.912C255.976 194.061 256.334 194.136 256.739 194.136C257.432 194.136 257.939 194.008 258.259 193.752C258.579 193.485 258.798 193.128 258.915 192.68H260.259ZM258.995 190.168C258.995 189.773 258.952 189.416 258.867 189.096C258.782 188.776 258.648 188.504 258.467 188.28C258.286 188.045 258.051 187.864 257.763 187.736C257.475 187.608 257.128 187.544 256.723 187.544C255.987 187.544 255.411 187.768 254.995 188.216C254.59 188.664 254.35 189.315 254.275 190.168H258.995ZM261.912 186.728H263.288V187.992C263.693 187.448 264.141 187.059 264.632 186.824C265.123 186.589 265.64 186.472 266.184 186.472C267.123 186.472 267.816 186.728 268.264 187.24C268.723 187.752 268.952 188.504 268.952 189.496V195H267.56V189.768C267.56 189 267.421 188.461 267.144 188.152C266.867 187.832 266.44 187.672 265.864 187.672C265.555 187.672 265.245 187.725 264.936 187.832C264.637 187.939 264.365 188.109 264.12 188.344C263.853 188.579 263.651 188.829 263.512 189.096C263.373 189.352 263.304 189.688 263.304 190.104V195H261.912V186.728ZM281.336 186.728V195H279.976V193.816C279.634 194.275 279.24 194.632 278.792 194.888C278.344 195.133 277.816 195.256 277.208 195.256C276.397 195.256 275.73 195.064 275.208 194.68C274.696 194.296 274.312 193.773 274.056 193.112C273.81 192.451 273.688 191.715 273.688 190.904C273.688 189.528 274.013 188.445 274.664 187.656C275.325 186.867 276.226 186.472 277.368 186.472C277.805 186.472 278.253 186.568 278.712 186.76C279.17 186.941 279.592 187.277 279.976 187.768V186.728H281.336ZM279.992 190.616C279.992 189.955 279.917 189.443 279.768 189.08C279.629 188.707 279.394 188.392 279.064 188.136C278.829 187.944 278.589 187.811 278.344 187.736C278.109 187.661 277.848 187.624 277.56 187.624C277.112 187.624 276.701 187.731 276.328 187.944C275.965 188.157 275.677 188.504 275.464 188.984C275.25 189.453 275.144 190.083 275.144 190.872C275.144 191.683 275.256 192.323 275.48 192.792C275.704 193.261 275.992 193.597 276.344 193.8C276.696 193.992 277.064 194.088 277.448 194.088C277.757 194.088 278.034 194.056 278.28 193.992C278.525 193.917 278.77 193.784 279.016 193.592C279.346 193.347 279.592 193.032 279.752 192.648C279.912 192.253 279.992 191.763 279.992 191.176V190.616ZM284.067 192.584C284.163 193.16 284.403 193.565 284.787 193.8C285.181 194.024 285.715 194.136 286.387 194.136C287.091 194.136 287.587 194.019 287.875 193.784C288.173 193.539 288.323 193.219 288.323 192.824C288.323 192.664 288.301 192.515 288.259 192.376C288.227 192.227 288.157 192.099 288.051 191.992C287.944 191.875 287.795 191.773 287.603 191.688C287.411 191.603 287.16 191.533 286.851 191.48L285.795 191.32C285.325 191.245 284.915 191.149 284.563 191.032C284.211 190.915 283.912 190.765 283.667 190.584C283.421 190.392 283.235 190.163 283.107 189.896C282.989 189.619 282.931 189.288 282.931 188.904C282.931 188.52 283.011 188.179 283.171 187.88C283.341 187.581 283.571 187.331 283.859 187.128C284.157 186.915 284.504 186.755 284.899 186.648C285.304 186.531 285.741 186.472 286.211 186.472C286.808 186.472 287.304 186.531 287.699 186.648C288.104 186.765 288.435 186.925 288.691 187.128C288.947 187.331 289.144 187.571 289.283 187.848C289.421 188.125 289.528 188.419 289.603 188.728L288.339 188.936C288.264 188.712 288.179 188.515 288.083 188.344C287.987 188.173 287.859 188.035 287.699 187.928C287.539 187.811 287.341 187.725 287.107 187.672C286.883 187.608 286.6 187.576 286.259 187.576C285.875 187.576 285.555 187.613 285.299 187.688C285.043 187.752 284.835 187.843 284.675 187.96C284.525 188.077 284.419 188.211 284.355 188.36C284.291 188.499 284.259 188.648 284.259 188.808C284.259 188.979 284.28 189.133 284.323 189.272C284.365 189.4 284.445 189.517 284.563 189.624C284.68 189.72 284.84 189.805 285.043 189.88C285.245 189.955 285.507 190.019 285.827 190.072L287.027 190.264C287.997 190.424 288.691 190.701 289.107 191.096C289.533 191.491 289.747 192.067 289.747 192.824C289.747 193.176 289.677 193.501 289.539 193.8C289.4 194.088 289.192 194.344 288.915 194.568C288.637 194.781 288.291 194.947 287.875 195.064C287.459 195.192 286.973 195.256 286.419 195.256C285.917 195.256 285.448 195.208 285.011 195.112C284.584 195.016 284.205 194.867 283.875 194.664C283.544 194.451 283.277 194.173 283.075 193.832C282.872 193.491 282.755 193.075 282.723 192.584H284.067ZM301.637 186.728L296.869 198.104H295.429L296.917 194.792L293.493 186.728H295.109L297.605 193.16L300.101 186.728H301.637ZM305.907 195.256C305.278 195.256 304.718 195.155 304.227 194.952C303.736 194.749 303.32 194.461 302.979 194.088C302.638 193.715 302.376 193.256 302.195 192.712C302.014 192.168 301.923 191.56 301.923 190.888C301.923 190.216 302.019 189.608 302.211 189.064C302.403 188.52 302.675 188.056 303.027 187.672C303.379 187.288 303.8 186.995 304.291 186.792C304.792 186.579 305.347 186.472 305.955 186.472C306.574 186.472 307.128 186.573 307.619 186.776C308.11 186.979 308.526 187.272 308.867 187.656C309.219 188.029 309.486 188.483 309.667 189.016C309.848 189.549 309.939 190.152 309.939 190.824C309.939 191.507 309.843 192.12 309.651 192.664C309.47 193.208 309.203 193.672 308.851 194.056C308.51 194.44 308.088 194.739 307.587 194.952C307.086 195.155 306.526 195.256 305.907 195.256ZM305.923 194.104C306.371 194.104 306.755 194.024 307.075 193.864C307.395 193.704 307.656 193.48 307.859 193.192C308.072 192.904 308.227 192.563 308.323 192.168C308.419 191.763 308.467 191.32 308.467 190.84C308.467 190.371 308.419 189.939 308.323 189.544C308.227 189.149 308.072 188.813 307.859 188.536C307.656 188.248 307.395 188.024 307.075 187.864C306.755 187.704 306.371 187.624 305.923 187.624C305.475 187.624 305.091 187.704 304.771 187.864C304.462 188.024 304.2 188.248 303.987 188.536C303.784 188.813 303.635 189.149 303.539 189.544C303.443 189.939 303.395 190.376 303.395 190.856C303.395 191.336 303.443 191.773 303.539 192.168C303.635 192.563 303.784 192.904 303.987 193.192C304.19 193.48 304.451 193.704 304.771 193.864C305.091 194.024 305.475 194.104 305.923 194.104ZM311.437 186.728H312.829V191.944C312.829 192.712 312.951 193.256 313.197 193.576C313.453 193.896 313.863 194.056 314.429 194.056C315.047 194.056 315.607 193.832 316.109 193.384C316.375 193.149 316.578 192.904 316.717 192.648C316.855 192.381 316.925 192.04 316.925 191.624V186.728H318.317V195H316.941V193.72C316.535 194.253 316.098 194.643 315.629 194.888C315.159 195.133 314.653 195.256 314.109 195.256C313.17 195.256 312.487 195.005 312.061 194.504C311.645 193.992 311.437 193.229 311.437 192.216V186.728ZM323.376 186.728H324.752V187.992C325.157 187.448 325.605 187.059 326.096 186.824C326.586 186.589 327.104 186.472 327.648 186.472C328.586 186.472 329.28 186.728 329.728 187.24C330.186 187.752 330.416 188.504 330.416 189.496V195H329.024V189.768C329.024 189 328.885 188.461 328.608 188.152C328.33 187.832 327.904 187.672 327.328 187.672C327.018 187.672 326.709 187.725 326.4 187.832C326.101 187.939 325.829 188.109 325.584 188.344C325.317 188.579 325.114 188.829 324.976 189.096C324.837 189.352 324.768 189.688 324.768 190.104V195H323.376V186.728ZM339.333 192.68C339.194 193.48 338.837 194.109 338.261 194.568C337.695 195.027 336.879 195.256 335.813 195.256C334.554 195.256 333.589 194.877 332.917 194.12C332.245 193.352 331.909 192.285 331.909 190.92C331.909 190.205 332.005 189.571 332.197 189.016C332.389 188.461 332.655 187.997 332.997 187.624C333.349 187.251 333.765 186.968 334.245 186.776C334.725 186.573 335.247 186.472 335.813 186.472C336.453 186.472 337.002 186.573 337.461 186.776C337.919 186.979 338.293 187.261 338.581 187.624C338.879 187.976 339.098 188.397 339.237 188.888C339.386 189.379 339.461 189.917 339.461 190.504V191.208H333.317C333.317 191.624 333.37 192.013 333.477 192.376C333.594 192.728 333.754 193.037 333.957 193.304C334.17 193.56 334.431 193.763 334.741 193.912C335.05 194.061 335.407 194.136 335.813 194.136C336.506 194.136 337.013 194.008 337.333 193.752C337.653 193.485 337.871 193.128 337.989 192.68H339.333ZM338.069 190.168C338.069 189.773 338.026 189.416 337.941 189.096C337.855 188.776 337.722 188.504 337.541 188.28C337.359 188.045 337.125 187.864 336.837 187.736C336.549 187.608 336.202 187.544 335.797 187.544C335.061 187.544 334.485 187.768 334.069 188.216C333.663 188.664 333.423 189.315 333.349 190.168H338.069ZM348.138 192.68C347.999 193.48 347.642 194.109 347.066 194.568C346.5 195.027 345.684 195.256 344.618 195.256C343.359 195.256 342.394 194.877 341.722 194.12C341.05 193.352 340.714 192.285 340.714 190.92C340.714 190.205 340.81 189.571 341.002 189.016C341.194 188.461 341.46 187.997 341.802 187.624C342.154 187.251 342.57 186.968 343.05 186.776C343.53 186.573 344.052 186.472 344.618 186.472C345.258 186.472 345.807 186.573 346.266 186.776C346.724 186.979 347.098 187.261 347.386 187.624C347.684 187.976 347.903 188.397 348.042 188.888C348.191 189.379 348.266 189.917 348.266 190.504V191.208H342.122C342.122 191.624 342.175 192.013 342.282 192.376C342.399 192.728 342.559 193.037 342.762 193.304C342.975 193.56 343.236 193.763 343.546 193.912C343.855 194.061 344.212 194.136 344.618 194.136C345.311 194.136 345.818 194.008 346.138 193.752C346.458 193.485 346.676 193.128 346.794 192.68H348.138ZM346.874 190.168C346.874 189.773 346.831 189.416 346.746 189.096C346.66 188.776 346.527 188.504 346.346 188.28C346.164 188.045 345.93 187.864 345.642 187.736C345.354 187.608 345.007 187.544 344.602 187.544C343.866 187.544 343.29 187.768 342.874 188.216C342.468 188.664 342.228 189.315 342.154 190.168H346.874ZM355.807 193.816C355.465 194.275 355.071 194.632 354.623 194.888C354.175 195.133 353.647 195.256 353.039 195.256C352.431 195.256 351.903 195.144 351.455 194.92C351.017 194.696 350.655 194.392 350.367 194.008C350.079 193.613 349.865 193.149 349.727 192.616C349.588 192.083 349.519 191.512 349.519 190.904C349.519 190.221 349.604 189.608 349.775 189.064C349.945 188.509 350.185 188.04 350.495 187.656C350.815 187.272 351.199 186.979 351.647 186.776C352.105 186.573 352.623 186.472 353.199 186.472C353.636 186.472 354.079 186.563 354.527 186.744C354.975 186.915 355.391 187.245 355.775 187.736V183.576H357.167V195H355.807V193.816ZM355.823 190.616C355.823 189.955 355.748 189.443 355.599 189.08C355.46 188.707 355.225 188.392 354.895 188.136C354.66 187.944 354.42 187.811 354.175 187.736C353.94 187.661 353.679 187.624 353.391 187.624C353.049 187.624 352.729 187.683 352.431 187.8C352.143 187.917 351.887 188.109 351.663 188.376C351.449 188.632 351.279 188.968 351.151 189.384C351.033 189.789 350.975 190.285 350.975 190.872C350.975 191.48 351.039 191.992 351.167 192.408C351.305 192.824 351.481 193.155 351.695 193.4C351.919 193.645 352.164 193.821 352.431 193.928C352.708 194.035 352.991 194.088 353.279 194.088C353.588 194.088 353.865 194.051 354.111 193.976C354.356 193.901 354.601 193.773 354.847 193.592C355.167 193.336 355.407 193.016 355.567 192.632C355.737 192.248 355.823 191.763 355.823 191.176V190.616ZM358.73 194.296C358.73 194.019 358.821 193.789 359.002 193.608C359.183 193.427 359.418 193.336 359.706 193.336C359.994 193.336 360.229 193.427 360.41 193.608C360.591 193.789 360.682 194.019 360.682 194.296C360.682 194.573 360.591 194.803 360.41 194.984C360.229 195.165 359.994 195.256 359.706 195.256C359.418 195.256 359.183 195.165 359.002 194.984C358.821 194.803 358.73 194.573 358.73 194.296Z" fill="#161616"/>
<path d="M24.8723 7.68018C23.9415 8.60952 23.6553 9.10854 22.9872 10.5137L16.8085 24.0003L12.4362 14.5483L8.11595 24.0003L1.88617 10.5137C1.24149 9.10854 0.957446 8.65498 0 7.68018H7.90106C7.60952 7.90291 7.37598 8.18648 7.2186 8.50884C7.06122 8.83119 6.98423 9.18367 6.99361 9.53887C6.99361 10.0833 7.08936 10.4682 7.4 11.1713L9.76276 16.5251L11.5053 12.536L10.5319 10.3773C9.95957 9.13077 9.55319 8.35698 8.98085 7.68018H16.8819C16.1181 8.15596 15.7362 8.76812 15.7362 9.53887C15.7362 10.0833 15.8308 10.4682 16.1415 11.1713L18.5521 16.5251L20.9394 11.1763C21.25 10.4692 21.3649 10.0884 21.3649 9.56615C21.3649 8.88631 20.8638 8.07111 20.2904 7.68523L24.8723 7.68018Z" fill="#161616"/>
<path d="M33.0851 19.693C32.3212 22.8437 30.484 23.8862 27.8106 23.8862C24.7553 23.8862 21.8904 21.779 21.8904 17.8121C21.8904 14.0038 24.4202 11.3066 27.7414 11.3066C29.9138 11.3066 32.9691 12.3724 32.9691 16.8625H25.7553C26.2563 19.2647 27.9031 20.5112 30.1946 20.5112C31.3648 20.5092 32.1765 20.3052 33.0851 19.693ZM25.6117 15.2958V15.5867H28.7627C28.7627 13.3199 28.2372 12.6178 27.2351 12.6178C26.2085 12.6219 25.6117 13.5957 25.6117 15.2958Z" fill="#161616"/>
<path d="M47.5531 11.7821C45.5712 9.9921 43.617 9.06275 42.1106 9.06275V19.0633C42.1106 21.0837 42.6595 22.3049 44.1159 23.5515H35.0882C36.5446 22.3049 37.0936 21.0806 37.0936 19.0633V9.06275C35.5893 9.06275 33.5372 9.9921 31.651 11.7821L32.6063 7C33.2499 7.47579 34.4436 7.67984 35.7808 7.67984H43.4191C44.7563 7.67984 45.9489 7.47781 46.5935 7L47.5531 11.7821Z" fill="#161616"/>
<path d="M53.0382 23.5468H45.4478C46.3787 22.5043 46.784 21.8245 46.784 20.1699V16.4959C46.784 15.2039 46.5936 14.5917 45.6861 13.7978L45.1606 13.3452L50.8904 11.3047V14.1402C51.4393 12.5078 52.2978 11.3067 53.7063 11.3067C54.8521 11.3067 55.5925 12.0775 55.5925 13.2109C55.5925 14.4119 54.8042 15.2504 53.7063 15.2504C53.468 14.7291 52.8946 14.4806 52.3702 14.4806C51.9446 14.4806 51.534 14.5938 51.3191 14.7978V20.0315C51.3191 21.779 51.6297 22.2538 53.0382 23.5468Z" fill="#161616"/>
<path d="M68.7234 21.4618C68.4372 22.8891 67.1957 23.8862 65.501 23.8862C64.0691 23.8862 62.9712 23.071 62.6372 22.1416C61.9148 23.3649 60.5808 23.8862 59.1489 23.8862C57.167 23.8862 55.8308 22.6396 55.8308 20.9395C55.8308 18.9455 57.3351 17.5626 60.7957 16.7696L62.3914 16.4069V14.3664C62.3914 13.0977 61.9383 12.5764 61.1266 12.5764C60.3627 12.5764 59.8617 13.0522 59.8617 13.7098C59.8617 14.2765 60.1478 14.6392 60.6489 15.0917C60.6489 15.817 59.4553 16.5655 58.2148 16.5655C57.9405 16.5712 57.6678 16.524 57.4132 16.427C57.1586 16.3299 56.9272 16.1848 56.7332 16.0006C56.5392 15.8163 56.3865 15.5967 56.2842 15.3549C56.182 15.1131 56.1323 14.8542 56.1383 14.5937C56.1383 12.6673 58.3819 11.3066 61.6702 11.3066C65.1074 11.3066 66.9223 12.6896 66.9223 15.7716V20.6456C66.9223 21.2577 67.3042 21.6648 67.901 21.6648C68.267 21.6648 68.5297 21.5971 68.7234 21.4618ZM62.3978 21.1214V17.4717L62.0883 17.5626C61.0617 17.8575 60.3691 18.4919 60.3691 19.7617C60.3691 20.8496 60.8223 21.5062 61.5627 21.5062C61.9414 21.5062 62.2521 21.3931 62.3946 21.1214H62.3978Z" fill="#161616"/>
<path d="M75.1893 23.5468H68.7681C69.4361 22.9347 69.8659 22.0316 69.8659 20.1699V16.4959C69.8659 15.2484 69.6989 14.614 68.9085 13.9119L68.3596 13.4351L74.2787 11.3047V13.0725C74.9713 11.9845 76.4276 11.3047 77.883 11.3047C80.1744 11.3047 81.4404 12.4835 81.4404 14.5918V20.9406C81.4404 22.2326 81.7978 23.0266 82.3712 23.5478H76.1202C76.7404 22.9811 76.9074 22.2104 76.9074 21.5982V15.115C76.9074 14.1624 76.5734 13.6866 75.6425 13.6866C75.4143 13.6808 75.1872 13.7179 74.9741 13.7957C74.761 13.8736 74.5663 13.9906 74.401 14.1402V21.5972C74.401 22.2094 74.5681 22.9609 75.1893 23.5468Z" fill="#161616"/>
<path d="M83.5435 22.8891V19.0132C85.2616 21.1436 87.0542 22.3224 88.7233 22.3224C89.534 22.3224 89.9159 21.9184 89.9159 21.3476C89.9159 20.8042 89.6063 20.487 89.0574 20.2829L86.2914 19.3081C84.1637 18.5596 83.2063 17.3131 83.2063 15.4544C83.2063 13.0522 85.2829 11.3066 88.2435 11.3066C89.8393 11.3066 91.6095 11.738 92.4925 12.3491V15.6584C91.3946 13.823 89.6042 12.8027 87.8616 12.8027C86.9786 12.8027 86.5244 13.0744 86.5244 13.5957C86.5244 14.1169 86.8584 14.321 87.5988 14.6159L90.8712 15.8897C92.518 16.5241 93.2584 17.8616 93.2584 19.4708C93.2584 22.1224 91.2297 23.8902 88.1733 23.8902C86.5713 23.8843 84.9903 23.5424 83.5435 22.8891Z" fill="#161616"/>
<path d="M93.7351 12.7801L95.1181 10.7598C96.8862 8.22431 98.2979 7 100.682 7C102.544 7 103.737 7.77075 103.737 8.92638C103.737 9.92442 102.878 10.6497 101.064 10.6497C101.064 9.24357 100.228 8.72232 99.3925 8.72232C98.5574 8.72232 97.9128 9.28902 97.9128 10.2184C97.9128 10.8528 98.2702 11.4881 99.3681 11.6467H102.021L101.064 12.7801H99.4404V19.5119C99.4404 20.7806 99.6532 21.914 101.036 23.0706L101.61 23.5464H93.3766C94.334 22.6373 94.9042 21.5261 94.9042 19.8967V12.7801H93.7351Z" fill="#161616"/>
<path d="M112.447 19.693C111.683 22.8437 109.845 23.8862 107.171 23.8862C104.116 23.8862 101.252 21.779 101.252 17.8121C101.252 14.0038 103.782 11.3066 107.103 11.3066C109.276 11.3066 112.331 12.3724 112.331 16.8625H105.121C105.622 19.2647 107.269 20.5112 109.561 20.5112C110.731 20.5092 111.543 20.3052 112.447 19.693ZM104.978 15.2958V15.5867H108.129C108.129 13.3199 107.603 12.6178 106.601 12.6178C105.574 12.6219 104.978 13.5957 104.978 15.2958Z" fill="#161616"/>
<path d="M120.446 23.5468H112.854C113.785 22.5043 114.191 21.8244 114.191 20.1698V16.4958C114.191 15.2038 114 14.5917 113.094 13.7977L112.568 13.3451L118.298 11.3066V14.1401C118.847 12.5077 119.706 11.3066 121.115 11.3066C122.261 11.3066 123 12.0774 123 13.2108C123 14.4119 122.213 15.2503 121.115 15.2503C120.875 14.7291 120.303 14.4806 119.778 14.4806C119.352 14.4806 118.943 14.5937 118.728 14.7978V20.0314C118.723 21.779 119.043 22.2538 120.446 23.5468Z" fill="#161616"/>
<path d="M127.704 6.864H129.912V17.208C129.912 18.984 130.24 20.312 130.896 21.192C131.568 22.072 132.672 22.512 134.208 22.512C135.76 22.512 136.856 22.072 137.496 21.192C138.136 20.296 138.456 18.968 138.456 17.208V6.864H140.664V17.208C140.664 18.488 140.512 19.584 140.208 20.496C139.92 21.392 139.496 22.136 138.936 22.728C138.392 23.32 137.712 23.752 136.896 24.024C136.096 24.296 135.192 24.432 134.184 24.432C132.12 24.432 130.52 23.856 129.384 22.704C128.264 21.552 127.704 19.688 127.704 17.112V6.864ZM144.735 6.864H146.823V24H144.735V6.864ZM153.606 20.52C153.606 21.128 153.742 21.616 154.014 21.984C154.286 22.352 154.702 22.536 155.262 22.536C155.614 22.536 155.918 22.512 156.174 22.464C156.446 22.4 156.694 22.328 156.918 22.248L157.278 23.88C156.958 23.992 156.606 24.08 156.222 24.144C155.854 24.224 155.414 24.264 154.902 24.264C153.974 24.264 153.262 24.08 152.766 23.712C152.286 23.344 151.958 22.84 151.782 22.2C151.606 21.544 151.518 20.8 151.518 19.968V13.248H149.598V11.64H150.678C151.094 11.64 151.35 11.576 151.446 11.448C151.558 11.32 151.614 11.056 151.614 10.656V8.208H153.606V11.592H156.894V13.248H153.606V20.52ZM159.526 8.112C159.526 7.712 159.662 7.384 159.934 7.128C160.206 6.856 160.534 6.72 160.918 6.72C161.334 6.72 161.67 6.848 161.926 7.104C162.182 7.36 162.31 7.696 162.31 8.112C162.31 8.512 162.182 8.848 161.926 9.12C161.67 9.376 161.334 9.504 160.918 9.504C160.518 9.504 160.182 9.376 159.91 9.12C159.654 8.848 159.526 8.512 159.526 8.112ZM159.886 24V11.592H161.974V24H159.886ZM165.949 11.592H168.013V13.488C168.573 12.72 169.189 12.152 169.861 11.784C170.533 11.4 171.221 11.208 171.925 11.208C172.853 11.208 173.597 11.408 174.157 11.808C174.733 12.208 175.157 12.784 175.429 13.536C175.989 12.768 176.629 12.192 177.349 11.808C178.069 11.408 178.837 11.208 179.653 11.208C180.869 11.208 181.805 11.544 182.461 12.216C183.133 12.872 183.469 13.936 183.469 15.408V24H181.381V15.888C181.381 15.328 181.333 14.864 181.237 14.496C181.141 14.112 180.997 13.816 180.805 13.608C180.629 13.384 180.405 13.232 180.133 13.152C179.861 13.056 179.549 13.008 179.197 13.008C178.829 13.008 178.445 13.072 178.045 13.2C177.645 13.328 177.253 13.552 176.869 13.872C176.549 14.144 176.285 14.472 176.077 14.856C175.869 15.24 175.765 15.68 175.765 16.176V24H173.677V15.912C173.677 14.824 173.485 14.072 173.101 13.656C172.733 13.224 172.197 13.008 171.493 13.008C170.677 13.008 169.909 13.344 169.189 14.016C168.917 14.272 168.653 14.6 168.397 15C168.157 15.4 168.037 15.936 168.037 16.608V24H165.949V11.592ZM198.405 11.592V24H196.365V22.224C195.853 22.912 195.261 23.448 194.589 23.832C193.917 24.2 193.125 24.384 192.213 24.384C190.997 24.384 189.997 24.096 189.213 23.52C188.445 22.944 187.869 22.16 187.485 21.168C187.117 20.176 186.933 19.072 186.933 17.856C186.933 15.792 187.421 14.168 188.397 12.984C189.389 11.8 190.741 11.208 192.453 11.208C193.109 11.208 193.781 11.352 194.469 11.64C195.157 11.912 195.789 12.416 196.365 13.152V11.592H198.405ZM196.389 17.424C196.389 16.432 196.277 15.664 196.053 15.12C195.845 14.56 195.493 14.088 194.997 13.704C194.645 13.416 194.285 13.216 193.917 13.104C193.565 12.992 193.173 12.936 192.741 12.936C192.069 12.936 191.453 13.096 190.893 13.416C190.349 13.736 189.917 14.256 189.597 14.976C189.277 15.68 189.117 16.624 189.117 17.808C189.117 19.024 189.285 19.984 189.621 20.688C189.957 21.392 190.389 21.896 190.917 22.2C191.445 22.488 191.997 22.632 192.573 22.632C193.037 22.632 193.453 22.584 193.821 22.488C194.189 22.376 194.557 22.176 194.925 21.888C195.421 21.52 195.789 21.048 196.029 20.472C196.269 19.88 196.389 19.144 196.389 18.264V17.424ZM205.166 20.52C205.166 21.128 205.302 21.616 205.574 21.984C205.846 22.352 206.262 22.536 206.822 22.536C207.174 22.536 207.478 22.512 207.734 22.464C208.006 22.4 208.254 22.328 208.478 22.248L208.838 23.88C208.518 23.992 208.166 24.08 207.782 24.144C207.414 24.224 206.974 24.264 206.462 24.264C205.534 24.264 204.822 24.08 204.326 23.712C203.846 23.344 203.518 22.84 203.342 22.2C203.166 21.544 203.078 20.8 203.078 19.968V13.248H201.158V11.64H202.238C202.654 11.64 202.91 11.576 203.006 11.448C203.118 11.32 203.174 11.056 203.174 10.656V8.208H205.166V11.592H208.454V13.248H205.166V20.52ZM221.774 20.52C221.566 21.72 221.03 22.664 220.166 23.352C219.318 24.04 218.094 24.384 216.494 24.384C214.606 24.384 213.158 23.816 212.15 22.68C211.142 21.528 210.638 19.928 210.638 17.88C210.638 16.808 210.782 15.856 211.07 15.024C211.358 14.192 211.758 13.496 212.27 12.936C212.798 12.376 213.422 11.952 214.142 11.664C214.862 11.36 215.646 11.208 216.494 11.208C217.454 11.208 218.278 11.36 218.966 11.664C219.654 11.968 220.214 12.392 220.646 12.936C221.094 13.464 221.422 14.096 221.63 14.832C221.854 15.568 221.966 16.376 221.966 17.256V18.312H212.75C212.75 18.936 212.83 19.52 212.99 20.064C213.166 20.592 213.406 21.056 213.71 21.456C214.03 21.84 214.422 22.144 214.886 22.368C215.35 22.592 215.886 22.704 216.494 22.704C217.534 22.704 218.294 22.512 218.774 22.128C219.254 21.728 219.582 21.192 219.758 20.52H221.774ZM219.878 16.752C219.878 16.16 219.814 15.624 219.686 15.144C219.558 14.664 219.358 14.256 219.086 13.92C218.814 13.568 218.462 13.296 218.03 13.104C217.598 12.912 217.078 12.816 216.47 12.816C215.366 12.816 214.502 13.152 213.878 13.824C213.27 14.496 212.91 15.472 212.798 16.752H219.878Z" fill="#3767EA"/>
</svg>